<svg id="Capa_1" enable-background="new 0 0 512 512" height="512" viewBox="0 0 512 512" width="512" xmlns="http://www.w3.org/2000/svg"><path d="m337.164 219.221v-51.088c0-44.825-36.338-81.164-81.164-81.164l-20.016 132.251h101.18z" fill="#07485e"/><path d="m256 86.969c-44.826 0-81.164 36.338-81.164 81.164v51.088h81.164z" fill="#09607d"/><path d="m357.852 512v-228.994l-121.868-20.016 20.016 249.01z" fill="#c47e4e"/><path d="m154.148 512h101.852v-249.01l-101.852 20.016z" fill="#dbad5c"/><path d="m389.745 219.221h-153.761l20.016 63.785h133.745z" fill="#895140"/><path d="m122.255 219.221h133.745v63.785h-133.745z" fill="#c47e4e"/><path d="m256 204.221h166.572v30h-166.572z" fill="#dbad5c"/><path d="m89.428 204.221h166.572v30h-166.572z" fill="#e7c994"/><path d="m309.493 53.493c0-29.544-23.95-53.493-53.493-53.493l-20.016 53.493 20.016 53.493c29.543 0 53.493-23.95 53.493-53.493z" fill="#ffdecf"/><path d="m202.507 53.493c0 29.543 23.95 53.493 53.493 53.493v-106.986c-29.543 0-53.493 23.949-53.493 53.493z" fill="#ffeee5"/></svg>