<svg id="Layer_1" enable-background="new 0 0 150 150" height="512" viewBox="0 0 150 150" width="512" xmlns="http://www.w3.org/2000/svg"><g><g><path d="m81.084 82.335h18.008v15.511h-18.008z" fill="#b8bed9" transform="matrix(.707 -.707 .707 .707 -37.318 90.089)"/></g><g><path d="m94.053 76.963h2.814v15.511h-2.814z" fill="#a1a6be" transform="matrix(.707 -.707 .707 .707 -31.946 92.314)"/></g><g><path d="m83.309 87.707h2.814v15.511h-2.814z" fill="#d8dbea" transform="matrix(.707 -.707 .707 .707 -42.69 87.863)"/></g><g><path d="m89.2052002 102.9415283c-.2558594 0-.5117188-.0976563-.7070313-.2929688l-10.9682617-10.9677734c-.1875-.1875-.2929688-.4414063-.2929688-.7070313s.1054688-.5195313.2929688-.7070313l12.7338867-12.734375c.375-.375 1.0390625-.375 1.4140625 0l10.9682617 10.96875c.390625.390625.390625 1.0234375 0 1.4140625l-12.7338867 12.7333984c-.1953125.1953127-.4511718.2929689-.7070312.2929689zm-9.5541992-11.9677734 9.5541992 9.5537109 11.3198242-11.3193359-9.5541992-9.5546875z" fill="#231f20"/></g><g><path d="m55.5411377 93.6378174c-9.7597656 0-19.5195313-3.7148438-26.9492188-11.1445313-14.859375-14.8598633-14.859375-39.0385742 0-53.8984375 14.859375-14.859375 39.0390625-14.859375 53.8984375 0 14.8598633 14.8598633 14.8598633 39.0385742 0 53.8984375-7.4296875 7.4296875-17.1894531 11.1445313-26.9492187 11.1445313zm0-74.1884766c-9.2475586 0-18.4951172 3.5200195-25.5351563 10.5595703-14.0795898 14.0800781-14.0795898 36.9902344 0 51.0703125 6.8208008 6.8203125 15.8891602 10.5771484 25.5351563 10.5771484s18.7143555-3.7568359 25.5351563-10.5771484 10.5771484-15.8891602 10.5771484-25.5351563-3.7563477-18.7143555-10.5771484-25.5351563c-7.0400391-7.0395506-16.2875977-10.5595702-25.5351563-10.5595702z" fill="#231f20"/></g><g><path d="m103.9285583 87.2183075-16.7131805 16.7132034 31.6340027 31.6339951c4.5690002 4.5691071 11.977005 4.5691071 16.5460815 0l.167099-.167099c4.5690918-4.5690918 4.5690918-11.9770966 0-16.546196z" fill="#575d72"/></g><g><path d="m101.938858 89.2079086 31.6340027 31.6340027c4.2608032 4.2607956 4.5442963 10.9881973.8585968 15.5820999.3323975-.2667084.6557007-.5502014.9640045-.8585052l.167099-.167099c4.5690918-4.5690918 4.5690918-11.9770966 0-16.546196l-31.6340027-31.6340027z" fill="#414656"/></g><g><path d="m89.2049637 101.9418106 31.6339951 31.6339951c4.2608032 4.2608032 10.988205 4.5443115 15.5821991.8585968-.2667847.3324127-.550293.6556091-.8585968.9640045l-.167099.167099c-4.5690765 4.5691071-11.9770813 4.5691071-16.5462036 0l-31.6338806-31.6339951z" fill="#8f93a1"/></g><g><circle cx="55.541" cy="55.544" fill="#b8bed9" r="44.552"/></g><g><path d="m44.7771606 12.3091097c13.6750984-2.2395 28.1921005 1.9018002 38.7386017 12.4483004 17.3986206 17.3985996 17.3986206 45.607399 0 63.0060043-5.9396057 5.9394989-13.1397018 9.8479004-20.7388 11.7320938 8.884697-1.454895 17.4151001-5.5962982 24.2671967-12.4483948 17.3985977-17.3986053 17.3985977-45.6072006 0-63.0058022-11.4589997-11.4591016-27.6063996-15.3675012-42.2669984-11.7322015z" fill="#a1a6be"/></g><g><path d="m66.3053818 98.7793121c-13.6752205 2.2394943-28.1921196-1.9018021-38.7387199-12.4483032-17.3984985-17.3985977-17.3984985-45.607399 0-63.0059967 5.9395981-5.9396 13.139801-9.8479004 20.7388992-11.7321005-8.8848 1.4548998-17.4151821 5.5962992-24.2672997 12.4483995-17.3985996 17.3986015-17.3985996 45.6071968 0 63.0058022 11.4591179 11.4589977 27.6064987 15.3674984 42.2671204 11.7321987z" fill="#d0d4e6"/></g><g><ellipse cx="55.541" cy="55.544" fill="#f2f2f3" rx="37.112" ry="37.112" transform="matrix(.923 -.384 .384 .923 -17.072 25.59)"/></g><g><path d="m68.8358612 20.8953094c-2.0603027-.7905006-4.1479034-1.3735008-6.2416992-1.7812004l-39.4376011 54.5491982c2.3194008 4.1508026 5.4393005 7.8704987 9.2461987 10.9039993l43.4425011-60.0886993c-2.1625977-1.4105969-4.5014039-2.6209984-7.0093995-3.5832978z" fill="#fff"/></g><g><path d="m85.1081619 33.1182098c-1.4567032-1.9244003-3.1062012-3.7150002-4.9363022-5.3390999l-43.2731971 59.8546029c1.6870995.9773941 3.4695969 1.8386002 5.3480988 2.5593948.4222984.1620026.8470001.305603 1.2714005.4513016z" fill="#fff"/></g><g><path d="m55.5411377 93.6378174c-9.7597656 0-19.5195313-3.7148438-26.9492188-11.1445313-14.859375-14.8598633-14.859375-39.0385742 0-53.8984375 14.859375-14.859375 39.0390625-14.859375 53.8984375 0 14.8598633 14.8598633 14.8598633 39.0385742 0 53.8984375-7.4296875 7.4296875-17.1894531 11.1445313-26.9492187 11.1445313zm0-74.1884766c-9.2475586 0-18.4951172 3.5200195-25.5351563 10.5595703-14.0795898 14.0800781-14.0795898 36.9902344 0 51.0703125 6.8208008 6.8203125 15.8891602 10.5771484 25.5351563 10.5771484s18.7143555-3.7568359 25.5351563-10.5771484 10.5771484-15.8891602 10.5771484-25.5351563-3.7563477-18.7143555-10.5771484-25.5351563c-7.0400391-7.0395506-16.2875977-10.5595702-25.5351563-10.5595702z" fill="#231f20"/></g><g><path d="m127.1221924 139.9864502c-3.2519531 0-6.5043945-1.2382813-8.9799805-3.7138672l-31.6337891-31.6337891c-.390625-.390625-.390625-1.0234375 0-1.4140625l16.7128906-16.7138672c.375-.375 1.0390625-.375 1.4140625 0l31.6342773 31.6347656c2.3984375 2.3984375 3.7197266 5.5869141 3.7197266 8.9794922s-1.3212891 6.5820313-3.7197266 8.9804688l-.1669922.1669922c-2.4755858 2.4755859-5.7280272 3.7138672-8.9804686 3.7138672zm-38.4926758-36.0546875 30.9267578 30.9267578c2.0209961 2.0205078 4.7080078 3.1337891 7.565918 3.1337891 2.8583984 0 5.5454102-1.1132813 7.5664063-3.1337891l.1669922-.1669922c2.0205078-2.0214844 3.1337891-4.7080078 3.1337891-7.5664063s-1.112793-5.5449219-3.1337891-7.5654297l-30.9272462-30.9277343z" fill="#231f20"/></g><g><path d="m55.5411377 101.0743408c-11.6645508 0-23.3295898-4.4404297-32.2099609-13.3203125-17.7607422-17.7607422-17.7607422-46.6591797 0-64.4199219 17.7617188-17.7617188 46.6601563-17.7597656 64.4199219 0 8.6040039 8.6035156 13.3422852 20.0424805 13.3422852 32.2099609s-4.7382813 23.6064453-13.3422852 32.2099609c-8.8803712 8.8798829-20.5449219 13.3203126-32.209961 13.3203126zm0-89.0615234c-11.1538086 0-22.3041992 4.2441406-30.7958984 12.7353516-16.980957 16.980957-16.980957 44.6108398 0 61.5917969 16.9814453 16.9814453 44.6113281 16.9794922 61.5917969 0 8.2260742-8.2255859 12.7563477-19.1625977 12.7563477-30.7958984s-4.5302734-22.5698242-12.7563477-30.7958984c-8.4892579-8.489258-19.6445313-12.7353517-30.7958985-12.7353517z" fill="#231f20"/></g></g></svg>