<?xml version="1.0"?>
<svg xmlns="http://www.w3.org/2000/svg" xmlns:xlink="http://www.w3.org/1999/xlink" width="512" height="512" viewBox="0 0 128 128"><defs><linearGradient id="a" x1="83.324" y1="85.058" x2="38.845" y2="40.579" gradientUnits="userSpaceOnUse"><stop offset="0" stop-color="#b660e9"/><stop offset="1" stop-color="#ffdd46"/></linearGradient></defs><path d="M72.75,46.25V64a1.75,1.75,0,0,1-3.5,0V46.25a5.25,5.25,0,0,0-10.5,0V87.5a1.75,1.75,0,0,1-3.5,0V46.25a8.75,8.75,0,0,1,17.5,0ZM71,68.5a1.75,1.75,0,0,0-1.75,1.75v1.375a1.75,1.75,0,0,0,3.5,0V70.25A1.75,1.75,0,0,0,71,68.5Zm0,8.25a1.75,1.75,0,0,0-1.75,1.75V89.566a11.167,11.167,0,1,1-22.333,0V44.35a16.91,16.91,0,0,1,3.665-10.576,1.75,1.75,0,1,0-2.747-2.168A20.373,20.373,0,0,0,43.417,44.35V89.566a14.667,14.667,0,1,0,29.333,0V78.5A1.75,1.75,0,0,0,71,76.75ZM54.59,29.783a1.737,1.737,0,0,0,.875-.235c.276-.159.557-.312.843-.456a1.75,1.75,0,1,0-1.583-3.121c-.343.174-.681.355-1.013.548a1.75,1.75,0,0,0,.878,3.264ZM64,23.767q-.825,0-1.634.064a1.749,1.749,0,1,0,.277,3.488q.671-.052,1.357-.052A17.1,17.1,0,0,1,81.083,44.35V64a1.75,1.75,0,0,0,3.5,0V44.35A20.606,20.606,0,0,0,64,23.767Z" fill="url(#a)"/></svg>
