<?xml version="1.0" encoding="iso-8859-1"?>
<!-- Generator: Adobe Illustrator 19.0.0, SVG Export Plug-In . SVG Version: 6.00 Build 0)  -->
<svg version="1.1" id="Capa_1" xmlns="http://www.w3.org/2000/svg" xmlns:xlink="http://www.w3.org/1999/xlink" x="0px" y="0px"
	 viewBox="0 0 480 480" style="enable-background:new 0 0 480 480;" xml:space="preserve">
<path style="fill:#E6E6E6;" d="M184,264H32V40h416v224H296"/>
<g>
	<path style="fill:#0071BC;" d="M128,368c22.091,0,40,17.909,40,40v24l0,0H88l0,0v-24C88,385.909,105.909,368,128,368z"/>
	<path style="fill:#0071BC;" d="M240,368c22.091,0,40,17.909,40,40v24l0,0h-80l0,0v-24C200,385.909,217.909,368,240,368z"/>
	<path style="fill:#0071BC;" d="M352,368c22.091,0,40,17.909,40,40v24l0,0h-80l0,0v-24C312,385.909,329.909,368,352,368z"/>
</g>
<g>
	<path style="fill:#754C24;" d="M176,304h128v32H176V304z"/>
	<path style="fill:#754C24;" d="M328,200H152l-8-32h192L328,200z"/>
</g>
<path style="fill:#8C6239;" d="M304,200l-16,104h-96l-16-104H304z"/>
<g>
	<circle style="fill:#FBB03B;" cx="200" cy="104" r="16"/>
	<circle style="fill:#FBB03B;" cx="280" cy="104" r="16"/>
</g>
<g>
	<path style="fill:#29ABE2;" d="M72,408c22.091,0,40,17.909,40,40v24l0,0H32l0,0v-24C32,425.909,49.909,408,72,408z"/>
	<path style="fill:#29ABE2;" d="M184,408c22.091,0,40,17.909,40,40v24l0,0h-80l0,0v-24C144,425.909,161.909,408,184,408z"/>
	<path style="fill:#29ABE2;" d="M296,408c22.091,0,40,17.909,40,40v24l0,0h-80l0,0v-24C256,425.909,273.909,408,296,408z"/>
	<path style="fill:#29ABE2;" d="M408,408c22.091,0,40,17.909,40,40v24l0,0h-80l0,0v-24C368,425.909,385.909,408,408,408z"/>
</g>
<path style="fill:#0071BC;" d="M8,8h464v32H8V8z"/>
<path d="M232,224h16v16h-16V224z"/>
<path d="M216,256h48v16h-48V256z"/>
<path d="M360,472c0,4.418,3.582,8,8,8h80c4.418,0,8-3.582,8-8v-24c0.12-26.399-21.183-47.897-47.582-48.017
	c-3.025-0.014-6.044,0.26-9.018,0.817c-3.918-26.178-28.316-44.224-54.495-40.305c-20.833,3.118-37.187,19.473-40.305,40.305
	c-5.682-1.088-11.518-1.088-17.2,0c-3.918-26.178-28.316-44.224-54.495-40.305c-20.833,3.118-37.187,19.473-40.305,40.305
	c-5.682-1.088-11.518-1.088-17.2,0c-3.918-26.178-28.316-44.224-54.495-40.305c-20.833,3.118-37.187,19.473-40.305,40.305
	c-25.948-4.86-50.923,12.234-55.783,38.182c-0.557,2.973-0.83,5.993-0.817,9.018v24c0,4.418,3.582,8,8,8h80c4.418,0,8-3.582,8-8l0,0
	v-24c-0.016-2.682-0.257-5.358-0.72-8h17.44c-0.463,2.642-0.704,5.318-0.72,8v24c0,4.418,3.582,8,8,8h80c4.418,0,8-3.582,8-8v-24
	c-0.016-2.682-0.257-5.358-0.72-8h17.44c-0.463,2.642-0.704,5.318-0.72,8v24c0,4.418,3.582,8,8,8h80c4.418,0,8-3.582,8-8v-24
	c-0.016-2.682-0.257-5.358-0.72-8h17.44c-0.463,2.642-0.704,5.318-0.72,8L360,472z M440,448v16h-64v-16c0-17.673,14.327-32,32-32
	S440,430.327,440,448z M104,464H40v-16c0-17.673,14.327-32,32-32s32,14.327,32,32V464z M142.496,424h-28.992
	c-4.185-7.208-10.166-13.208-17.36-17.416c0.683-17.594,15.499-31.302,33.093-30.619c16.636,0.646,29.973,13.984,30.619,30.619
	C152.662,410.792,146.681,416.792,142.496,424z M216,464h-64v-16c0-17.673,14.327-32,32-32s32,14.327,32,32V464z M254.496,424
	h-28.992c-4.185-7.208-10.166-13.208-17.36-17.416c0.683-17.594,15.499-31.302,33.093-30.619
	c16.636,0.646,29.973,13.984,30.619,30.619C264.662,410.792,258.681,416.792,254.496,424L254.496,424z M328,464h-64v-16
	c0-17.673,14.327-32,32-32s32,14.327,32,32V464z M337.504,424c-4.185-7.208-10.166-13.208-17.36-17.416
	c0.683-17.594,15.499-31.302,33.093-30.619c16.636,0.646,29.973,13.984,30.619,30.619c-7.194,4.208-13.175,10.208-17.36,17.416
	H337.504z"/>
<path d="M472,0H8C3.582,0,0,3.582,0,8v32c0,4.418,3.582,8,8,8h16v216c0,4.418,3.582,8,8,8h146.984l3.688,24H176
	c-4.418,0-8,3.582-8,8v32c0,4.418,3.582,8,8,8h128c4.418,0,8-3.582,8-8v-32c0-4.418-3.582-8-8-8h-6.672l3.688-24H448
	c4.418,0,8-3.582,8-8V48h16c4.418,0,8-3.582,8-8V8C480,3.582,476.418,0,472,0z M325.752,176l-4,16H158.248l-4-16H325.752z M296,328
	H184v-16h112V328z M198.864,296l-13.536-88h109.344l-13.536,88H198.864z M440,256H303.48l7.384-48H328
	c3.672-0.001,6.871-2.501,7.76-6.064l8-32c1.069-4.287-1.539-8.629-5.826-9.698C337.301,160.08,336.652,160,336,160h-16v-24
	c0-2.122-0.844-4.156-2.344-5.656L301.6,114.28c1.566-3.202,2.386-6.716,2.4-10.28c0-13.255-10.745-24-24-24s-24,10.745-24,24
	s10.745,24,24,24c3.564-0.014,7.078-0.834,10.28-2.4L304,139.312V160H176v-20.688l13.72-13.712c3.202,1.566,6.716,2.386,10.28,2.4
	c13.255,0,24-10.745,24-24s-10.745-24-24-24s-24,10.745-24,24c0.014,3.564,0.834,7.078,2.4,10.28l-16.064,16.064
	c-1.497,1.501-2.338,3.536-2.336,5.656v24h-16c-4.418,0.001-7.999,3.584-7.998,8.002c0,0.652,0.08,1.301,0.238,1.934l8,32
	c0.889,3.563,4.088,6.063,7.76,6.064h17.136l7.384,48H40V48h400L440,256z M280,112c-4.418,0-8-3.582-8-8s3.582-8,8-8s8,3.582,8,8
	S284.418,112,280,112z M192,104c0-4.418,3.582-8,8-8s8,3.582,8,8s-3.582,8-8,8S192,108.418,192,104z M464,32H16V16h448V32z"/>
<g>
</g>
<g>
</g>
<g>
</g>
<g>
</g>
<g>
</g>
<g>
</g>
<g>
</g>
<g>
</g>
<g>
</g>
<g>
</g>
<g>
</g>
<g>
</g>
<g>
</g>
<g>
</g>
<g>
</g>
</svg>
