<svg id="Layer_3" enable-background="new 0 0 64 64" height="512" viewBox="0 0 64 64" width="512" xmlns="http://www.w3.org/2000/svg"><g><path d="m16 6h44v26h-44z" fill="#e7e4dd"/><circle cx="28" cy="16" fill="#78b75b" r="6"/><path d="m34 16h-6v-6c3.314 0 6 2.686 6 6z" fill="#e39854"/><path d="m22.854 19.087c-.542-.902-.854-1.958-.854-3.087 0-3.314 2.686-6 6-6v6z" fill="#f2c351"/><path d="m14 32h48v4h-48z" fill="#758190"/><path d="m14 32h48v4h-48z" fill="#758190"/><path d="m22 41h5.515c1.591 0 3.117-.632 4.243-1.757l8.207-8.207c.663-.663 1.562-1.036 2.5-1.036 1.952 0 3.535 1.583 3.535 3.536 0 .938-.372 1.837-1.036 2.5l-14.207 14.207c-1.125 1.125-1.757 2.651-1.757 4.242v7.515h-27v-13c0-4.418 3.582-8 8-8h4" fill="#e39854"/><path d="m21.874 39c.082.32.126.655.126 1 0 2.209-1.791 4-4 4s-4-1.791-4-4c0-.346.044-.681.126-1.001" fill="#efbe9a"/><circle cx="18" cy="32" fill="#fadfb2" r="8"/><path d="m44 37-5-5 .964-.964c.663-.663 1.562-1.036 2.5-1.036 1.953 0 3.536 1.583 3.536 3.536 0 .938-.372 1.837-1.036 2.5z" fill="#fadfb2"/><path d="m25.747 29.997c-2.583-.065-5.025-1.127-6.829-2.936.783-.575 1.486-1.266 2.082-2.061l.209-.33c2.225.975 3.921 2.934 4.538 5.327z" fill="#976947"/><path d="m10.582 29h2.418c3.148 0 6.111-1.482 8-4l.204-.333-.09-.039c-.957-.404-2.009-.628-3.114-.628-3.357 0-6.232 2.068-7.418 5z" fill="#c18e59"/><path d="m14 2h48v4h-48z" fill="#758190"/><path d="m14 2h48v4h-48z" fill="#758190"/><g><path d="m9 50h1.999v12h-1.999z" fill="#c16b3f"/></g><path d="m40 19h16v4h-16z" fill="#78b75b"/><g><path d="m40.999 9h1.999v10h-1.999z" fill="#96cc7f"/></g><g><path d="m44.999 11h1.999v8h-1.999z" fill="#96cc7f"/></g><g><path d="m48.999 13h1.999v6h-1.999z" fill="#96cc7f"/></g><g><path d="m52.999 15h1.999v4h-1.999z" fill="#96cc7f"/></g><g><path d="m46.999 26h9.999v2h-9.999z" fill="#669e4f"/></g><g><path d="m27.999 26h6.999v2h-6.999z" fill="#669e4f"/></g><path d="m23 54c-1.657 0-3-1.343-3-3v-3h6v3c0 1.657-1.343 3-3 3z" fill="#f5cf88"/><path d="m20 48v3c0 1.176.683 2.183 1.668 2.675 1.762-1.271 2.913-3.337 2.913-5.675z" fill="#fadfb2"/></g></svg>