<svg width="520" height="520" viewBox="0 0 520 520" fill="none" xmlns="http://www.w3.org/2000/svg">
<g filter="url(#filter0_d)">
<rect x="4" width="512" height="512" rx="88" fill="#C4C4C4"/>
<rect x="4" width="512" height="512" rx="88" fill="url(#paint0_linear)"/>
<circle cx="272.5" cy="239.54" r="62" stroke="white" stroke-width="57"/>
<path d="M290.909 201.623L343 140.04" stroke="white" stroke-width="58"/>
<path d="M339 141.04H415.007" stroke="white" stroke-width="56"/>
<path d="M363 137.04C363 150.294 352.255 161.04 339 161.04C325.745 161.04 315 150.294 315 137.04C315 123.785 325.745 113.04 339 113.04C352.255 113.04 363 123.785 363 137.04Z" fill="white"/>
<path d="M442.5 141C442.5 156.464 429.964 169 414.5 169C399.036 169 386.5 156.464 386.5 141C386.5 125.536 399.036 113 414.5 113C429.964 113 442.5 125.536 442.5 141Z" fill="white"/>
<path d="M442.5 141C442.5 156.464 429.964 169 414.5 169C399.036 169 386.5 156.464 386.5 141C386.5 125.536 399.036 113 414.5 113C429.964 113 442.5 125.536 442.5 141Z" stroke="black"/>
<path d="M229.591 225.662L177.5 164.079" stroke="white" stroke-width="58"/>
<path d="M181.5 165.079H105.493" stroke="white" stroke-width="56"/>
<path d="M157.5 161.079C157.5 174.334 168.245 185.079 181.5 185.079C194.755 185.079 205.5 174.334 205.5 161.079C205.5 147.824 194.755 137.079 181.5 137.079C168.245 137.079 157.5 147.824 157.5 161.079Z" fill="white"/>
<path d="M78 165.04C78 180.504 90.536 193.04 106 193.04C121.464 193.04 134 180.504 134 165.04C134 149.576 121.464 137.04 106 137.04C90.536 137.04 78 149.576 78 165.04Z" fill="white"/>
<path d="M78 165.04C78 180.504 90.536 193.04 106 193.04C121.464 193.04 134 180.504 134 165.04C134 149.576 121.464 137.04 106 137.04C90.536 137.04 78 149.576 78 165.04Z" stroke="black"/>
<path d="M293.164 297.915L271.954 375.735" stroke="white" stroke-width="58"/>
<path d="M277.507 371.024L201.5 371.006" stroke="white" stroke-width="56"/>
<path d="M253.506 375.018C253.509 361.764 264.256 351.021 277.511 351.024C290.766 351.027 301.509 361.775 301.506 375.03C301.503 388.284 290.755 399.027 277.5 399.024C264.245 399.021 253.503 388.273 253.506 375.018Z" fill="white"/>
<path d="M174.007 371.039C174.01 355.575 186.549 343.042 202.013 343.046C217.477 343.05 230.01 355.588 230.007 371.052C230.003 386.516 217.464 399.05 202 399.046C186.536 399.042 174.003 386.503 174.007 371.039Z" fill="white"/>
<path d="M174.007 371.039C174.01 355.575 186.549 343.042 202.013 343.046C217.477 343.05 230.01 355.588 230.007 371.052C230.003 386.516 217.464 399.05 202 399.046C186.536 399.042 174.003 386.503 174.007 371.039Z" stroke="black"/>
</g>
<defs>
<filter id="filter0_d" x="0" y="0" width="520" height="520" filterUnits="userSpaceOnUse" color-interpolation-filters="sRGB">
<feFlood flood-opacity="0" result="BackgroundImageFix"/>
<feColorMatrix in="SourceAlpha" type="matrix" values="0 0 0 0 0 0 0 0 0 0 0 0 0 0 0 0 0 0 127 0"/>
<feOffset dy="4"/>
<feGaussianBlur stdDeviation="2"/>
<feColorMatrix type="matrix" values="0 0 0 0 0 0 0 0 0 0 0 0 0 0 0 0 0 0 0.25 0"/>
<feBlend mode="normal" in2="BackgroundImageFix" result="effect1_dropShadow"/>
<feBlend mode="normal" in="SourceGraphic" in2="effect1_dropShadow" result="shape"/>
</filter>
<linearGradient id="paint0_linear" x1="4" y1="18" x2="462.5" y2="512" gradientUnits="userSpaceOnUse">
<stop stop-color="#AAC2FF"/>
<stop offset="1" stop-color="#5585FF"/>
</linearGradient>
</defs>
</svg>
