<?xml version="1.0" encoding="iso-8859-1"?>
<!-- Generator: Adobe Illustrator 19.0.0, SVG Export Plug-In . SVG Version: 6.00 Build 0)  -->
<svg version="1.1" id="Capa_1" xmlns="http://www.w3.org/2000/svg" xmlns:xlink="http://www.w3.org/1999/xlink" x="0px" y="0px"
	 viewBox="0 0 417.372 417.372" style="enable-background:new 0 0 417.372 417.372;" xml:space="preserve">
<path style="fill:#5E9196;" d="M302.92,114.702c-57.37-47.567-131.098-47.567-188.467,0c-22.029,18.265-45.78,42.615-68.748,74.928
	c-8.096,11.389-8.096,26.726,0,38.115c22.968,32.313,46.72,56.662,68.748,74.928c57.369,47.566,131.097,47.566,188.467,0
	c22.028-18.266,45.779-42.615,68.748-74.928c8.096-11.389,8.096-26.726,0-38.115C348.7,157.317,324.949,132.967,302.92,114.702z"/>
<path style="fill:#3F6472;" d="M302.92,114.702c-13.547-11.231-28.012-19.777-42.951-25.705l-97.047,241.44
	c46.846,16.424,97.836,7.191,139.998-27.766c22.028-18.266,45.779-42.615,68.748-74.928c8.096-11.389,8.096-26.726,0-38.115
	C348.7,157.317,324.949,132.967,302.92,114.702z"/>
<circle style="fill:#FFFFFF;" cx="208.686" cy="208.686" r="89.84"/>
<path style="fill:#224249;" d="M219.409,139.546c-7.028-1.081-13.875-1.067-20.431-0.143c-4.37,0.617-6.226,5.685-3.585,9.221
	c5.13,6.869,7.76,15.688,6.431,25.214c-2.065,14.803-14.038,26.897-28.819,29.112c-9.277,1.39-17.88-0.993-24.698-5.784
	c-3.613-2.539-8.628-0.565-9.137,3.822c-1.111,9.579-0.246,19.756,3.588,30.373c9.279,25.691,32.526,44.688,59.742,47.026
	c44.396,3.813,81.094-33.868,75.608-78.559C274.34,169.136,249.971,144.248,219.409,139.546z"/>
<g>
	<polygon style="fill:#FFBC6C;" points="21.935,70.838 0,70.838 0,0 70.838,0 70.838,21.936 21.935,21.936 	"/>
	<polygon style="fill:#FFBC6C;" points="417.372,70.838 395.436,70.838 395.436,21.936 346.534,21.936 346.534,0 417.372,0 	"/>
	<polygon style="fill:#FFBC6C;" points="70.838,417.372 0,417.372 0,346.534 21.935,346.534 21.935,395.436 70.838,395.436 	"/>
	<polygon style="fill:#FFBC6C;" points="417.372,417.372 346.534,417.372 346.534,395.436 395.436,395.436 395.436,346.534 
		417.372,346.534 	"/>
</g>
<g>
</g>
<g>
</g>
<g>
</g>
<g>
</g>
<g>
</g>
<g>
</g>
<g>
</g>
<g>
</g>
<g>
</g>
<g>
</g>
<g>
</g>
<g>
</g>
<g>
</g>
<g>
</g>
<g>
</g>
</svg>
