<svg id="Capa_1" enable-background="new 0 0 512 512" height="512" viewBox="0 0 512 512" width="512" xmlns="http://www.w3.org/2000/svg"><g><g><path d="m241 358.302h17.343v97.137h-17.343z" fill="#e7e3db"/></g><g><path d="m256 358.302h15v97.137h-15z" fill="#d9d1c2"/></g><path d="m32.653 77.899h225.69v304.883h-225.69z" fill="#e7ffff"/><g><path d="m256 77.899h223.492v304.883h-223.492z" fill="#daf2fe"/></g><g><path d="m241 0h15v50.353h-15z" fill="#e7e3db"/><path d="m256 0h15v50.353h-15z" fill="#d9d1c2"/></g><g><path d="m263.5 89.789h-263.5v-54.436h263.5z" fill="#fd8d34"/></g><path d="m256 35.353h256v54.436h-256z" fill="#f15f29"/><path d="m157.982 169.054h30v88.581h-30z" fill="#5cd4ab"/><g><path d="m158.938 288.266h104.562v30h-104.562z" fill="#daf2fe"/></g><g><path d="m256 288.266h100.211v30h-100.211z" fill="#b2dcfd"/></g><g><g><path d="m256 512c-23.826 0-43.209-19.384-43.209-43.21 0-23.825 19.384-43.209 43.209-43.209 23.826 0 23.826 86.419 0 86.419z" fill="#fde01d"/></g><g><path d="m299.209 468.79c0-23.825-19.383-43.209-43.209-43.209v86.419c23.826 0 43.209-19.384 43.209-43.21z" fill="#fcbe2c"/></g></g><path d="m212.762 138.339h30v119.296h-30z" fill="#5cd4ab"/><path d="m267.076 193.019h30v64.616h-30z" fill="#32bea6"/><path d="m322.319 222.323h30v35.312h-30z" fill="#32bea6"/><g><g><g><path d="m444.665 512h-79.63v-41.627c0-34.46 28.035-62.494 62.494-62.494h21.977c34.459-.001-4.841 104.121-4.841 104.121z" fill="#ad4583"/></g></g><path d="m512 470.373c0-34.46-28.035-62.494-62.494-62.494h-9.825v104.121h72.319z" fill="#823462"/><path d="m439.829 424.633c-23.077 0-42.141-18.775-42.141-41.852s19.064-41.852 42.141-41.852 23.077 83.704 0 83.704z" fill="#ffdfcf"/><path d="m439.829 340.93v83.703c23.077 0 41.852-18.775 41.852-41.852s-18.775-41.851-41.852-41.851z" fill="#ffcebf"/></g><g><g><g><path d="m79.63 512h-79.63v-41.627c0-34.46 28.035-62.494 62.494-62.494h21.977c34.459-.001-4.841 104.121-4.841 104.121z" fill="#ad4583"/></g></g><path d="m146.965 470.373c0-34.46-28.035-62.494-62.494-62.494h-9.825v104.121h72.319z" fill="#823462"/><path d="m74.794 424.633c-23.077 0-42.141-18.775-42.141-41.852s19.065-41.852 42.141-41.852 23.077 83.704 0 83.704z" fill="#ffdfcf"/><path d="m74.794 340.93v83.703c23.077 0 41.852-18.775 41.852-41.852s-18.775-41.851-41.852-41.851z" fill="#ffcebf"/></g></g></svg>