<svg id="_x33_0" enable-background="new 0 0 64 64" height="512" viewBox="0 0 64 64" width="512" xmlns="http://www.w3.org/2000/svg"><g><g><g><path d="m17 45h8c-.19.14-.37.29-.54.46-.9.91-1.46 2.16-1.46 3.54v13h-12v-5.79c0-2.25.56-4.43 1.59-6.35 1.03-1.93 2.53-3.61 4.41-4.86z" fill="#4fc1e9"/></g><g><path d="m33 49v13h-10v-13c0-1.38.56-2.63 1.46-3.54.17-.17.35-.32.54-.46.83-.63 1.87-1 3-1 .34 0 .68.03 1 .1 2.28.46 4 2.48 4 4.9z" fill="#4fc1e9"/></g><g><path d="m17 40h-6c-3.87 0-7-3.13-7-7v-3h-.22c-.98 0-1.78-.8-1.78-1.78 0-.15.02-.29.05-.43l3.36-12.38c.78.38 1.66.59 2.59.59h4c2.76 0 5 2.24 5 5v1h.63c1.86 0 3.37 1.51 3.37 3.37 0 .77-.26 1.5-.71 2.07-.45.58-1.09 1.01-1.84 1.2l-1.45.36c0 2.31.84 4.45 2.24 6.11 1.4 1.65 3.38 2.83 5.65 3.21l4.11.68v4.2.9c-.32-.07-.66-.1-1-.1-1.13 0-2.17.37-3 1h-8z" fill="#f0d0b4"/></g><g><path d="m29 32v7l-4.11-.68c-2.27-.38-4.25-1.56-5.65-3.21-1.4-1.66-2.24-3.8-2.24-6.11l1.45-.36c.75-.19 1.39-.62 1.84-1.2.45-.57.71-1.3.71-2.07 0-1.86-1.51-3.37-3.37-3.37h-.63v-1c0-2.76-2.24-5-5-5h-4c-.93 0-1.81-.21-2.59-.59-2.02-.97-3.41-3.03-3.41-5.41v-3c0-.55.45-1 1-1h18c-1.25 1.67-2 3.75-2 6 0 6 5 8 6 12v4c0 2.21 1.79 4 4 4z" fill="#b27946"/></g><g><path d="m25 28h8c0 2.21-1.79 4-4 4s-4-1.79-4-4z" fill="#aab2bd"/></g><g><path d="m31 24h2v4h-8v-4h2z" fill="#ccd1d9"/></g><g><path d="m38.3 8.34c-1.45-3.71-5.07-6.34-9.3-6.34-3.27 0-6.17 1.57-8 4-1.25 1.67-2 3.75-2 6 0 6 5 8 6 12h2 4 2c1-4 6-6 6-12 0-1.29-.25-2.53-.7-3.66z" fill="#ffeaa7"/></g><g><path d="m34.41 10.59c.37.36.59.86.59 1.41s-.22 1.05-.59 1.41c-.36.37-.86.59-1.41.59h-2v-2c0-1.1.9-2 2-2 .55 0 1.05.22 1.41.59z" fill="#fcd770"/></g><g><path d="m27 12v2h-2c-1.1 0-2-.9-2-2 0-.55.22-1.05.59-1.41.36-.37.86-.59 1.41-.59s1.05.22 1.41.59c.37.36.59.86.59 1.41z" fill="#fcd770"/></g><g><path d="m50 47c0-1.1-.9-2-2-2s-2 .9-2 2 .9 2 2 2 2-.9 2-2zm2.94-.01v.02c0 .35.18.67.49.85l1.57.91-1.98 3.46-1.55-.9c-.31-.18-.68-.18-.99 0 0 0 0 0-.01.01-.3.17-.49.5-.49.85v1.81h-3.96v-1.81c0-.35-.19-.68-.49-.85-.01-.01-.01-.01-.01-.01-.31-.18-.68-.18-.99 0l-1.55.9-1.98-3.46 1.33-.77.24-.14c.31-.18.49-.5.49-.85 0-.01 0-.01 0-.02 0-.35-.18-.67-.49-.85l-1.57-.91 1.98-3.46 1.55.9c.31.18.68.18.99 0 0 0 0 0 .01-.01.3-.17.49-.5.49-.85v-1.81h3.96v1.81c0 .35.19.68.49.85.01.01.01.01.01.01.31.18.68.18.99 0l1.55-.9 1.19 2.07.79 1.39-1.57.91c-.31.18-.49.5-.49.85z" fill="#fcd770"/></g><g><path d="m62 5v14c0 .55-.45 1-1 1h-.66-9.34c-.55 0-1-.45-1-1v-9.34-4.66c0-.55.45-1 1-1h10c.55 0 1 .45 1 1z" fill="#e6e9ed"/></g><g><circle cx="55" cy="28" fill="#ff826e" r="2"/></g><g><circle cx="47" cy="28" fill="#ff826e" r="2"/></g><g><circle cx="39" cy="28" fill="#ff826e" r="2"/></g></g><g><path d="m63 19v-14c0-1.103-.897-2-2-2h-10c-1.103 0-2 .897-2 2v3.22c-2.243-.795-4.586-1.22-7-1.22-1.036 0-2.071.098-3.094.248-1.778-3.689-5.544-6.248-9.906-6.248-3.408 0-6.459 1.559-8.479 4h-17.521c-1.103 0-2 .897-2 2v3c0 2.475 1.295 4.65 3.24 5.895l-3.158 11.651c-.055.22-.082.446-.082.673 0 1.263.846 2.331 2 2.67v2.111c0 4.411 3.589 8 8 8h5v3.477c-3.767 2.719-6 7.065-6 11.734v6.789h24v-14c0-.594-.09-1.168-.252-1.71 1.957.837 4.032 1.385 6.166 1.598l2.702 4.715 2.399-1.411v2.808h5.967l-.019-2.811 2.418 1.413 2.979-5.198-2.416-1.404 2.418-1.404-.867-1.513c4.778-4.006 7.505-9.815 7.505-16.083 0-2.465-.444-4.856-1.273-7.142.743-.292 1.273-1.012 1.273-1.858zm-12-14h10l.002 14h-10.002zm-22-2c4.963 0 9 4.037 9 9 0 3.211-1.62 5.183-3.187 7.09-.98 1.193-1.986 2.424-2.543 3.91h-.27v-8h1c1.654 0 3-1.346 3-3s-1.346-3-3-3-3 1.346-3 3v1h-2v-1c0-1.654-1.346-3-3-3s-3 1.346-3 3 1.346 3 3 3h1v8h-.27c-.557-1.487-1.563-2.717-2.543-3.91-1.567-1.907-3.187-3.879-3.187-7.09 0-4.963 4.037-9 9-9zm0 28c-1.302 0-2.402-.839-2.816-2h5.631c-.413 1.161-1.513 2-2.815 2zm-3-18h-1c-.552 0-1-.448-1-1s.448-1 1-1 1 .448 1 1zm4 10h-2v-8h2zm2 2v2h-6v-2zm0-12v-1c0-.552.448-1 1-1s1 .448 1 1-.448 1-1 1zm-29-3v-3h16.214c-.77 1.502-1.214 3.199-1.214 5 0 3.928 1.935 6.282 3.641 8.359 1.071 1.304 1.992 2.437 2.359 3.8v3.841c0 2.414 1.721 4.434 4 4.899v4.921l-2.944-.491c-3.832-.639-6.679-3.756-7.021-7.557l.656-.165c1.949-.486 3.309-2.229 3.309-4.238 0-2.285-1.763-4.166-4-4.354v-.015c0-3.309-2.691-6-6-6h-4c-2.757 0-5-2.243-5-5zm17 31v-2h-9c-3.309 0-6-2.691-6-6v-4h-1.219c-.43 0-.781-.351-.781-.781 0-.064.008-.129.018-.17l3.069-11.321c.608.173 1.249.272 1.913.272h4c2.206 0 4 1.794 4 4v2h1.631c1.307 0 2.369 1.063 2.369 2.369 0 1.089-.738 2.034-1.795 2.299l-2.205.552v.78c0 5.127 3.67 9.459 8.728 10.302l3.272.545v3.153c-1.223 0-2.36.369-3.31 1h-6.69v-3zm2 20h-10v-4.789c0-4.086 1.994-7.876 5.334-10.211h5.478c-.513.884-.812 1.907-.812 3zm10 0h-8v-12c0-2.206 1.794-4 4-4s4 1.794 4 4zm20.923-12.28.715.415-.987 1.724-.678-.396c-.614-.356-1.377-.355-2.003.011-.608.354-.986 1.014-.986 1.719v.807h-1.967v-.809c0-.705-.378-1.364-.995-1.725s-1.381-.363-1.996-.004l-.676.396-.987-1.724.715-.415c.607-.354.984-1.011.982-1.724.002-.705-.375-1.362-.983-1.717l-.714-.414.987-1.724.678.396c.583.339 1.298.354 1.896.048l.107-.059c.608-.354.986-1.014.986-1.719v-.806h1.967v.809c0 .705.378 1.364 1.013 1.734l.012.006c.018.01.035.02.053.029l.024.012c.595.304 1.309.287 1.89-.053l.676-.396.987 1.724-.715.415c-.607.354-.984 1.011-.982 1.724-.004.705.373 1.362.981 1.716zm1.562-6.399-1.103-1.924-2.393 1.409-.006-2.806h-5.967l.024 2.789.008.014-.014.008-2.418-1.413-2.979 5.198 2.435 1.395-.016.009h-.056c-4.381 0-8.619-1.527-12-4.287v-9.814c2.279-.465 4-2.484 4-4.899v-3.841c.367-1.363 1.288-2.496 2.359-3.8 1.706-2.077 3.641-4.431 3.641-8.359 0-.984-.142-1.934-.386-2.843 3.175-.397 6.419.014 9.386 1.188v8.655c0 1.103.897 2 2 2h8.646c.885 2.227 1.354 4.575 1.354 7 0 5.55-2.361 10.706-6.515 14.321z"/><path d="m53 7h6v2h-6z"/><path d="m53 11h6v2h-6z"/><path d="m53 15h6v2h-6z"/><path d="m48 44c-1.654 0-3 1.346-3 3s1.346 3 3 3 3-1.346 3-3-1.346-3-3-3zm0 4c-.552 0-1-.448-1-1s.448-1 1-1 1 .448 1 1-.448 1-1 1z"/><path d="m39 25c-1.654 0-3 1.346-3 3s1.346 3 3 3 3-1.346 3-3-1.346-3-3-3zm0 4c-.552 0-1-.448-1-1s.448-1 1-1 1 .448 1 1-.448 1-1 1z"/><path d="m47 25c-1.654 0-3 1.346-3 3s1.346 3 3 3 3-1.346 3-3-1.346-3-3-3zm0 4c-.552 0-1-.448-1-1s.448-1 1-1 1 .448 1 1-.448 1-1 1z"/><path d="m55 25c-1.654 0-3 1.346-3 3s1.346 3 3 3 3-1.346 3-3-1.346-3-3-3zm0 4c-.552 0-1-.448-1-1s.448-1 1-1 1 .448 1 1-.448 1-1 1z"/></g></g></svg>