<svg id="Layer_3" enable-background="new 0 0 64 64" height="512" viewBox="0 0 64 64" width="512" xmlns="http://www.w3.org/2000/svg"><g><g><path d="m20.17 47.214-8.167-15.104-8.083 15.1-1.763-.944 8.961-16.739c.174-.324.512-.527.879-.527.001-.001.001-.001.002-.001.367 0 .705.202.879.524l9.05 16.739z" fill="#e7e4dd"/></g><g><path d="m60.17 47.214-8.167-15.104-8.083 15.1-1.763-.944 8.961-16.739c.174-.324.512-.527.879-.527.001-.001.001-.001.002-.001.367 0 .705.202.879.524l9.05 16.739z" fill="#e7e4dd"/></g><path d="m34 53v.611c0 1.955 1.414 3.624 3.342 3.946l7.3 1.217c.784.13 1.358.808 1.358 1.602 0 .897-.727 1.624-1.624 1.624h-24.752c-.897 0-1.624-.727-1.624-1.624 0-.794.574-1.472 1.357-1.602l7.3-1.217c1.929-.321 3.343-1.99 3.343-3.946v-.611" fill="#d8923e"/><path d="m30 24h4v25h-4z" fill="#8f6128"/><path d="m5.578 24h52.845c1.975 0 3.577-1.602 3.577-3.578 0-1.463-.891-2.779-2.249-3.322l-2.751-1.1c.919 1.838-.417 4-2.472 4h-45.056c-2.055 0-3.391-2.162-2.472-4l-2.751 1.1c-1.358.544-2.249 1.859-2.249 3.322 0 1.976 1.602 3.578 3.578 3.578z" fill="#f2c351"/><path d="m30 16h4v4h-4z" fill="#8f6128"/><path d="m34 12-1.039-4.157h-1.922l-1.039 4.157z" fill="#8f6128"/><circle cx="32" cy="5" fill="#bc7f35" r="3"/><path d="m28 12h8v4h-8z" fill="#bc7f35"/><circle cx="32" cy="51" fill="#bc7f35" r="3"/><path d="m42 46c0 3.314 4.477 6 10 6s10-2.686 10-6z" fill="#c16b3f"/><circle cx="52" cy="27" fill="#f2c351" r="3"/><path d="m2 46c0 3.314 4.477 6 10 6s10-2.686 10-6z" fill="#c16b3f"/><circle cx="12" cy="27" fill="#f2c351" r="3"/><path d="m14.23 25.01c-.55-.615-1.34-1.01-2.23-1.01-1.657 0-3 1.343-3 3 0 .907.411 1.711 1.048 2.261 2.075-.517 3.699-2.163 4.182-4.251z" fill="#f7d881"/><path d="m54.23 25.01c-.55-.615-1.34-1.01-2.23-1.01-1.657 0-3 1.343-3 3 0 .907.411 1.711 1.048 2.261 2.075-.517 3.699-2.163 4.182-4.251z" fill="#f7d881"/><g fill="#d8923e"><path d="m33.547 2.442c-.453-.275-.978-.442-1.547-.442-1.657 0-3 1.343-3 3 0 .676.232 1.293.609 1.794 2.024-.563 3.575-2.252 3.938-4.352z"/><path d="m28 12v4h3.109c1.511-.778 2.588-2.247 2.82-4z"/><path d="m33.912 48.706c-.52-.434-1.181-.706-1.912-.706-1.657 0-3 1.343-3 3 0 .632.197 1.216.531 1.7 2.028-.544 3.659-2.045 4.381-3.994z"/></g><path d="m18.244 46h-16.244c0 3.261 4.339 5.909 9.741 5.992 2.806-1.176 5.105-3.311 6.503-5.992z" fill="#e39854"/><path d="m58.244 46h-16.244c0 3.261 4.339 5.909 9.741 5.992 2.806-1.176 5.105-3.311 6.503-5.992z" fill="#e39854"/></g></svg>