<svg width="91" height="91" viewBox="0 0 91 91" fill="none" xmlns="http://www.w3.org/2000/svg">
    <ellipse cx="45.3569" cy="45.6298" rx="45.0196" ry="45.0191" fill="#5585FF"/>
    <g clip-path="url(#clip0)">
        <path d="M24.1333 26.7646V19.6902H28.8497V26.7646H35.9242V31.4809H28.8497V38.5553H24.1333V31.4809H17.0588V26.7646H24.1333ZM31.2079 40.9135V33.839H38.2824V26.7646H54.7896L59.105 31.4809H66.5804C69.1744 31.4809 71.2967 33.6032 71.2967 36.1972V64.4949C71.2967 67.0888 69.1744 69.2112 66.5804 69.2112H28.8497C26.2557 69.2112 24.1333 67.0888 24.1333 64.4949V40.9135H31.2079ZM47.715 62.1367C54.2236 62.1367 59.5059 56.8545 59.5059 50.346C59.5059 43.8376 54.2236 38.5553 47.715 38.5553C41.2065 38.5553 35.9242 43.8376 35.9242 50.346C35.9242 56.8545 41.2065 62.1367 47.715 62.1367ZM40.1689 50.346C40.1689 54.5199 43.5411 57.8921 47.715 57.8921C51.889 57.8921 55.2612 54.5199 55.2612 50.346C55.2612 46.1721 51.889 42.8 47.715 42.8C43.5411 42.8 40.1689 46.1721 40.1689 50.346Z" fill="white"/>
    </g>
    <defs>
        <clipPath id="clip0">
            <rect x="17.0588" y="17.332" width="56.5961" height="56.5954" fill="white"/>
        </clipPath>
    </defs>
</svg>
