<svg width="42" height="42" viewBox="0 0 42 42" fill="none" xmlns="http://www.w3.org/2000/svg">
<circle cx="21" cy="21" r="21" fill="#5585FF"/>
<path d="M29.2105 15.3158V19.0926C29.2105 19.0926 26.6968 19.1053 26.6842 19.0926V15.3158H22.8947C22.8947 15.3158 22.9074 12.8021 22.8947 12.7895H26.6842V9H29.2105V12.7895H33V15.3158H29.2105ZM25.4211 20.3684V16.5789H21.6316V12.7895H11.5263C10.1368 12.7895 9 13.9263 9 15.3158V30.4737C9 31.8632 10.1368 33 11.5263 33H26.6842C28.0737 33 29.2105 31.8632 29.2105 30.4737V20.3684H25.4211ZM11.5263 30.4737L15.3158 25.4211L17.8421 29.2105L21.6316 24.1579L26.6842 30.4737H11.5263Z" fill="white"/>
</svg>
