<svg width="190" height="190" viewBox="0 0 190 190" fill="none" xmlns="http://www.w3.org/2000/svg">
    <g clip-path="url(#clip0)">
        <path opacity="0.3" d="M188.271 65.1549C188.262 65.1434 188.257 65.131 188.247 65.1191L167.61 39.4258C167.379 39.1376 167.117 38.8892 166.838 38.6671C165.95 37.6136 164.636 36.9297 163.15 36.9297H26.8497C25.3631 36.9297 24.0517 37.6127 23.163 38.6671C22.8842 38.8892 22.6219 39.1351 22.3879 39.4258L1.75346 65.1191C1.744 65.131 1.73948 65.1434 1.73002 65.1549C0.680576 66.0435 0 67.3533 0 68.8349V148.23C0 150.903 2.16715 153.071 4.84011 153.071H185.16C187.833 153.071 190 150.903 190 148.23V68.8349C190.001 67.3533 189.32 66.0435 188.271 65.1549ZM167.992 55.3571L174.93 63.9948H167.992V55.3571ZM158.311 46.6103V63.9944H122.068C121.034 63.9944 120.03 64.3254 119.198 64.9373L95.0027 82.7429L70.8025 64.9349C69.9706 64.3254 68.966 63.9944 67.933 63.9944H31.6894V46.6103H158.311ZM22.01 63.9948H15.0714L22.01 55.3571V63.9948V63.9948ZM180.321 143.39H9.68022V73.675H66.3453L92.1336 92.6522C93.8402 93.9048 96.1656 93.9073 97.8718 92.6502L123.655 73.6746H180.321V143.39V143.39Z" fill="#32325D"/>
    </g>
    <defs>
        <clipPath id="clip0">
            <rect width="190" height="190" fill="white"/>
        </clipPath>
    </defs>
</svg>
