<svg width="62" height="54" viewBox="0 0 62 54" fill="none" xmlns="http://www.w3.org/2000/svg">
<path d="M43.6667 14.6667H32.6667V25.6667H29V14.6667H18V11H29V0H32.6667V11H43.6667V14.6667Z" fill="white"/>
<path d="M9.96219 46.3906C9.82156 47.5938 9.37625 48.5234 8.62625 49.1797C7.88146 49.8307 6.88927 50.1562 5.64969 50.1562C4.30594 50.1562 3.22781 49.6745 2.41531 48.7109C1.60802 47.7474 1.20437 46.4583 1.20437 44.8438V43.75C1.20437 42.6927 1.39187 41.763 1.76687 40.9609C2.14708 40.1589 2.68354 39.5443 3.37625 39.1172C4.06896 38.6849 4.87104 38.4688 5.7825 38.4688C6.99083 38.4688 7.95958 38.8073 8.68875 39.4844C9.41792 40.1562 9.8424 41.0885 9.96219 42.2812H8.45437C8.32417 41.375 8.04031 40.7188 7.60281 40.3125C7.17052 39.9062 6.56375 39.7031 5.7825 39.7031C4.82417 39.7031 4.07156 40.0573 3.52469 40.7656C2.98302 41.474 2.71219 42.4818 2.71219 43.7891V44.8906C2.71219 46.125 2.97 47.1068 3.48562 47.8359C4.00125 48.5651 4.7226 48.9297 5.64969 48.9297C6.48302 48.9297 7.12104 48.7422 7.56375 48.3672C8.01167 47.987 8.30854 47.3281 8.45437 46.3906H9.96219ZM13.3156 42.5703C13.9562 41.7839 14.7896 41.3906 15.8156 41.3906C17.6021 41.3906 18.5031 42.3984 18.5187 44.4141V50H17.0734V44.4062C17.0682 43.7969 16.9276 43.3464 16.6516 43.0547C16.3807 42.763 15.9562 42.6172 15.3781 42.6172C14.9094 42.6172 14.4979 42.7422 14.1437 42.9922C13.7896 43.2422 13.5135 43.5703 13.3156 43.9766V50H11.8703V38H13.3156V42.5703ZM24.2706 50.1562C23.1248 50.1562 22.1925 49.7812 21.4737 49.0312C20.755 48.276 20.3956 47.2682 20.3956 46.0078V45.7422C20.3956 44.9036 20.5545 44.1562 20.8722 43.5C21.1951 42.8385 21.643 42.3229 22.2159 41.9531C22.7941 41.5781 23.4191 41.3906 24.0909 41.3906C25.1899 41.3906 26.0441 41.7526 26.6534 42.4766C27.2628 43.2005 27.5675 44.237 27.5675 45.5859V46.1875H21.8409C21.8618 47.0208 22.104 47.6953 22.5675 48.2109C23.0362 48.7214 23.63 48.9766 24.3487 48.9766C24.8592 48.9766 25.2915 48.8724 25.6456 48.6641C25.9998 48.4557 26.3097 48.1797 26.5753 47.8359L27.4581 48.5234C26.7498 49.612 25.6873 50.1562 24.2706 50.1562ZM24.0909 42.5781C23.5076 42.5781 23.018 42.7917 22.6222 43.2188C22.2264 43.6406 21.9816 44.2344 21.8878 45H26.1222V44.8906C26.0805 44.1562 25.8826 43.5885 25.5284 43.1875C25.1743 42.7812 24.6951 42.5781 24.0909 42.5781ZM32.7178 48.9766C33.2334 48.9766 33.684 48.8203 34.0694 48.5078C34.4548 48.1953 34.6683 47.8047 34.71 47.3359H36.0772C36.0511 47.8203 35.8845 48.2812 35.5772 48.7188C35.2699 49.1562 34.8584 49.5052 34.3428 49.7656C33.8324 50.026 33.2907 50.1562 32.7178 50.1562C31.5668 50.1562 30.6501 49.7734 29.9678 49.0078C29.2907 48.237 28.9522 47.1849 28.9522 45.8516V45.6094C28.9522 44.7865 29.1032 44.0547 29.4053 43.4141C29.7074 42.7734 30.1397 42.276 30.7022 41.9219C31.2699 41.5677 31.9392 41.3906 32.71 41.3906C33.6579 41.3906 34.4444 41.6745 35.0694 42.2422C35.6996 42.8099 36.0355 43.5469 36.0772 44.4531H34.71C34.6683 43.9062 34.46 43.4583 34.085 43.1094C33.7152 42.7552 33.2569 42.5781 32.71 42.5781C31.9756 42.5781 31.4053 42.8438 30.9991 43.375C30.598 43.901 30.3975 44.6641 30.3975 45.6641V45.9375C30.3975 46.9115 30.598 47.6615 30.9991 48.1875C31.4001 48.7135 31.973 48.9766 32.7178 48.9766ZM40.1416 46.0859L39.2353 47.0312V50H37.79V38H39.2353V45.2578L40.0088 44.3281L42.6416 41.5469H44.3994L41.1103 45.0781L44.7822 50H43.0869L40.1416 46.0859ZM51.5906 50H50.1453V41.5469H51.5906V50ZM50.0281 39.3047C50.0281 39.0703 50.0984 38.8724 50.2391 38.7109C50.3849 38.5495 50.5984 38.4688 50.8797 38.4688C51.1609 38.4688 51.3745 38.5495 51.5203 38.7109C51.6661 38.8724 51.7391 39.0703 51.7391 39.3047C51.7391 39.5391 51.6661 39.7344 51.5203 39.8906C51.3745 40.0469 51.1609 40.125 50.8797 40.125C50.5984 40.125 50.3849 40.0469 50.2391 39.8906C50.0984 39.7344 50.0281 39.5391 50.0281 39.3047ZM55.3581 41.5469L55.405 42.6094C56.0508 41.7969 56.8946 41.3906 57.9362 41.3906C59.7227 41.3906 60.6237 42.3984 60.6394 44.4141V50H59.1941V44.4062C59.1889 43.7969 59.0482 43.3464 58.7722 43.0547C58.5014 42.763 58.0769 42.6172 57.4987 42.6172C57.03 42.6172 56.6185 42.7422 56.2644 42.9922C55.9102 43.2422 55.6342 43.5703 55.4362 43.9766V50H53.9909V41.5469H55.3581Z" fill="white"/>
</svg>
