<svg width="64" height="64" viewBox="0 0 64 64" fill="none" xmlns="http://www.w3.org/2000/svg">
<path d="M60 1H16C14.346 1 13 2.346 13 4V21.082C10.613 22.468 9 25.047 9 28C9 31.452 10.48 34.688 13.054 36.969C13.389 40.079 15.316 42.712 18 44.051V46.209L11.022 47.851C5.122 49.238 1 54.442 1 60.504V63H43V60.504C43 55.567 40.266 51.201 36.065 49H49V58C49 60.757 51.243 63 54 63C56.757 63 59 60.757 59 58V49H60C61.654 49 63 47.654 63 46V4C63 2.346 61.654 1 60 1ZM16 3H60C60.551 3 61 3.449 61 4V9H15V4C15 3.449 15.449 3 16 3ZM11 28C11 24.691 13.691 22 17 22H20.544C22.354 22 24.128 21.377 25.542 20.247L27.734 18.493C28.31 19.523 29 20.998 29 22C29 23.491 27.283 25 24 25V27C27.912 27 30.091 25.285 30.768 23.349C32.15 24.475 33 26.177 33 28C33 30.189 32.284 32.275 31 33.987V31.515C31 29.577 29.423 28 27.484 28C27.035 28 26.596 28.084 26.178 28.251C23.485 29.329 20.516 29.33 17.82 28.251C17.404 28.084 16.965 28 16.516 28C14.577 28 13 29.577 13 31.516V33.988C11.716 32.275 11 30.189 11 28ZM15 36V31.516C15 30.68 15.68 30 16.516 30C16.71 30 16.899 30.037 17.079 30.108C20.254 31.379 23.749 31.378 26.922 30.108C27.101 30.037 27.291 30 27.484 30C28.32 30 29 30.68 29 31.516V36C29 39.86 25.86 43 22 43C18.14 43 15 39.86 15 36ZM25.482 48.141L25.858 48.229L25.236 53.822L23.259 51.845L25.482 48.141ZM22 45C22.688 45 23.356 44.915 24 44.768V46.723L22 50.056L20 46.723V44.768C20.644 44.915 21.312 45 22 45ZM18.518 48.141L20.741 51.846L18.764 53.823L18.142 48.23L18.518 48.141ZM41 60.504V61H35V57H33V61H11V57H9V61H3V60.504C3 55.374 6.487 50.971 11.48 49.796L16.181 48.69L17.235 58.178L22 53.414L26.764 58.178L27.818 48.69L32.519 49.796C37.513 50.972 41 55.375 41 60.504ZM57 37V53H55V37H57ZM51.868 35L54 31.803L56.132 35H51.868ZM51 37H53V53H51V37ZM54 61C52.346 61 51 59.654 51 58V55H57V58C57 59.654 55.654 61 54 61ZM60 47H59V35.697L54 28.197L49 35.697V47H29.366L26 46.208V44.05C28.683 42.711 30.611 40.078 30.946 36.968C33.52 34.688 35 31.452 35 28C35 25.106 33.398 22.44 30.895 21.035C30.491 18.985 29.023 16.733 28.832 16.446L28.227 15.538L24.293 18.686C23.233 19.533 21.902 20 20.544 20H17C16.308 20 15.641 20.097 15 20.263V11H61V46C61 46.551 60.551 47 60 47Z" fill="#32325D"/>
<path d="M21 57H23V59H21V57Z" fill="#32325D"/>
<path d="M25 5H27V7H25V5Z" fill="#32325D"/>
<path d="M17 5H19V7H17V5Z" fill="#32325D"/>
<path d="M21 5H23V7H21V5Z" fill="#32325D"/>
<path d="M25 13H27V15H25V13Z" fill="#32325D"/>
<path d="M21 13H23V15H21V13Z" fill="#32325D"/>
<path d="M17 13H19V15H17V13Z" fill="#32325D"/>
<path d="M37 27H59V13H37V27ZM39 15H57V25H39V15Z" fill="#32325D"/>
<path d="M41 17H55V19H41V17Z" fill="#32325D"/>
<path d="M41 21H55V23H41V21Z" fill="#32325D"/>
<path d="M37 29H47V31H37V29Z" fill="#32325D"/>
<path d="M37 33H47V35H37V33Z" fill="#32325D"/>
<path d="M33 37H47V39H33V37Z" fill="#32325D"/>
<path d="M33 41H43V43H33V41Z" fill="#32325D"/>
<path d="M45 41H47V43H45V41Z" fill="#32325D"/>
</svg>
