<svg width="64" height="64" viewBox="0 0 64 64" fill="none" xmlns="http://www.w3.org/2000/svg">
<path d="M34 54H7C6.20435 54 5.44129 53.6839 4.87868 53.1213C4.31607 52.5587 4 51.7957 4 51V12H54V35H56V7C55.9984 5.67441 55.4711 4.40356 54.5338 3.46622C53.5964 2.52888 52.3256 2.00159 51 2H7C5.67441 2.00159 4.40356 2.52888 3.46622 3.46622C2.52888 4.40356 2.00159 5.67441 2 7V51C2.00159 52.3256 2.52888 53.5964 3.46622 54.5338C4.40356 55.4711 5.67441 55.9984 7 56H34V54ZM7 4H51C51.7957 4 52.5587 4.31607 53.1213 4.87868C53.6839 5.44129 54 6.20435 54 7V10H4V7C4 6.20435 4.31607 5.44129 4.87868 4.87868C5.44129 4.31607 6.20435 4 7 4Z" fill="#32325D"/>
<path d="M8 6H10V8H8V6Z" fill="#32325D"/>
<path d="M12 6H14V8H12V6Z" fill="#32325D"/>
<path d="M16 6H18V8H16V6Z" fill="#32325D"/>
<path d="M20.66 25.57L17.89 23.73C18.5988 22.9976 18.9966 22.0192 19 21V18C19 16.9391 18.5786 15.9217 17.8284 15.1716C17.0783 14.4214 16.0609 14 15 14C13.9391 14 12.9217 14.4214 12.1716 15.1716C11.4214 15.9217 11 16.9391 11 18V21C10.9988 22.0212 11.393 23.0031 12.1 23.74L9.34 25.57C8.92814 25.8442 8.59034 26.2159 8.35659 26.652C8.12283 27.0881 8.00034 27.5752 8 28.07V31C8 31.2652 8.10536 31.5196 8.29289 31.7071C8.48043 31.8946 8.73478 32 9 32H21C21.2652 32 21.5196 31.8946 21.7071 31.7071C21.8946 31.5196 22 31.2652 22 31V28.07C21.9997 27.5752 21.8772 27.0881 21.6434 26.652C21.4097 26.2159 21.0719 25.8442 20.66 25.57ZM13 18C13.0015 17.5125 13.181 17.0424 13.5048 16.6779C13.8285 16.3135 14.2742 16.0798 14.7581 16.0209C15.242 15.9619 15.7308 16.0817 16.1326 16.3578C16.5344 16.6338 16.8215 17.0471 16.94 17.52L16.71 17.29C16.5212 17.1026 16.266 16.9975 16 16.9975C15.734 16.9975 15.4788 17.1026 15.29 17.29L13.88 18.7C13.7874 18.7945 13.6769 18.8697 13.5551 18.9212C13.4332 18.9727 13.3023 18.9995 13.17 19H13V18ZM13.17 21C13.5655 21.001 13.9573 20.9237 14.3229 20.7727C14.6884 20.6217 15.0205 20.3999 15.3 20.12L16 19.41L17 20.41V21C17.0007 21.2817 16.9413 21.5603 16.8257 21.8173C16.7102 22.0742 16.5412 22.3036 16.33 22.49C15.9605 22.8094 15.4884 22.9851 15 22.9851C14.5116 22.9851 14.0395 22.8094 13.67 22.49L13.59 22.41C13.4033 22.2257 13.255 22.0062 13.1537 21.7641C13.0524 21.5221 13.0002 21.2624 13 21H13.17ZM16.2 25L15 25.8L13.8 25L14.02 24.86C14.66 25.0467 15.34 25.0467 15.98 24.86L16.2 25ZM20 30H10V28.07C10.0009 27.9053 10.0424 27.7433 10.1209 27.5985C10.1994 27.4538 10.3124 27.3306 10.45 27.24L12 26.2L14.45 27.83C14.6121 27.9407 14.8037 27.9999 15 27.9999C15.1963 27.9999 15.3879 27.9407 15.55 27.83L18 26.2L19.55 27.24C19.6876 27.3306 19.8006 27.4538 19.8791 27.5985C19.9576 27.7433 19.9991 27.9053 20 28.07V30Z" fill="#32325D"/>
<path d="M20.66 45.57L17.89 43.73C18.5988 42.9976 18.9966 42.0192 19 41V38C19 36.9391 18.5786 35.9217 17.8284 35.1716C17.0783 34.4214 16.0609 34 15 34C13.9391 34 12.9217 34.4214 12.1716 35.1716C11.4214 35.9217 11 36.9391 11 38V41C10.9988 42.0212 11.393 43.0031 12.1 43.74L9.34 45.57C8.92814 45.8442 8.59034 46.2159 8.35659 46.652C8.12283 47.0881 8.00034 47.5752 8 48.07V51C8 51.2652 8.10536 51.5196 8.29289 51.7071C8.48043 51.8946 8.73478 52 9 52H21C21.2652 52 21.5196 51.8946 21.7071 51.7071C21.8946 51.5196 22 51.2652 22 51V48.07C21.9997 47.5752 21.8772 47.0881 21.6434 46.652C21.4097 46.2159 21.0719 45.8442 20.66 45.57ZM13 38C13.0015 37.5125 13.181 37.0424 13.5048 36.6779C13.8285 36.3135 14.2742 36.0798 14.7581 36.0209C15.242 35.9619 15.7308 36.0817 16.1326 36.3578C16.5344 36.6338 16.8215 37.0471 16.94 37.52L16.71 37.29C16.5212 37.1026 16.266 36.9975 16 36.9975C15.734 36.9975 15.4788 37.1026 15.29 37.29L13.88 38.7C13.7874 38.7945 13.6769 38.8697 13.5551 38.9212C13.4332 38.9727 13.3023 38.9995 13.17 39H13V38ZM13.17 41C13.5655 41.001 13.9573 40.9237 14.3229 40.7727C14.6884 40.6217 15.0205 40.3998 15.3 40.12L16 39.41L17 40.41V41C17.0007 41.2817 16.9413 41.5603 16.8257 41.8173C16.7102 42.0742 16.5412 42.3036 16.33 42.49C15.9605 42.8094 15.4884 42.9851 15 42.9851C14.5116 42.9851 14.0395 42.8094 13.67 42.49L13.59 42.41C13.4033 42.2257 13.255 42.0062 13.1537 41.7641C13.0524 41.5221 13.0002 41.2624 13 41H13.17ZM16.2 45L15 45.8L13.8 45L14.02 44.86C14.66 45.0467 15.34 45.0467 15.98 44.86L16.2 45ZM20 50H10V48.07C10.0009 47.9053 10.0424 47.7433 10.1209 47.5985C10.1994 47.4538 10.3124 47.3306 10.45 47.24L12 46.2L14.45 47.83C14.6121 47.9407 14.8037 47.9999 15 47.9999C15.1963 47.9999 15.3879 47.9407 15.55 47.83L18 46.2L19.55 47.24C19.6876 47.3306 19.8006 47.4538 19.8791 47.5985C19.9576 47.7433 19.9991 47.9053 20 48.07V50Z" fill="#32325D"/>
<path d="M27 60H37V62H27V60Z" fill="#32325D"/>
<path d="M23 60H25V62H23V60Z" fill="#32325D"/>
<path d="M60 34H62V36H60V34Z" fill="#32325D"/>
<path d="M60 22H62V32H60V22Z" fill="#32325D"/>
<path d="M27 28H41V30H27V28Z" fill="#32325D"/>
<path d="M27 24H41V26H27V24Z" fill="#32325D"/>
<path d="M31 20H41V22H31V20Z" fill="#32325D"/>
<path d="M27 20H29V22H27V20Z" fill="#32325D"/>
<path d="M27 48H32V50H27V48Z" fill="#32325D"/>
<path d="M27 44H32V46H27V44Z" fill="#32325D"/>
<path d="M31 40H35V42H31V40Z" fill="#32325D"/>
<path d="M27 40H29V42H27V40Z" fill="#32325D"/>
<path d="M61.142 45.01L58.46 44.627C58.2787 44.0631 58.0517 43.5149 57.781 42.988L59.406 40.822C59.5504 40.6294 59.6205 40.3912 59.6034 40.1511C59.5863 39.9111 59.4832 39.6852 59.313 39.515L56.485 36.687C56.3149 36.5171 56.0892 36.4141 55.8493 36.397C55.6095 36.38 55.3715 36.4499 55.179 36.594L53.012 38.218C52.485 37.9478 51.9368 37.7211 51.373 37.54L50.99 34.858C50.9558 34.6198 50.8369 34.4019 50.6551 34.2443C50.4732 34.0867 50.2406 34 50 34H46C45.7594 34 45.5268 34.0867 45.3449 34.2443C45.1631 34.4019 45.0442 34.6198 45.01 34.858L44.627 37.54C44.0631 37.7209 43.5149 37.9477 42.988 38.218L40.821 36.594C40.6285 36.4499 40.3905 36.38 40.1507 36.397C39.9108 36.4141 39.6851 36.5171 39.515 36.687L36.687 39.515C36.5168 39.6852 36.4137 39.9111 36.3966 40.1511C36.3795 40.3912 36.4496 40.6294 36.594 40.822L38.219 42.988C37.9483 43.5149 37.7213 44.0631 37.54 44.627L34.858 45.01C34.6198 45.0442 34.4019 45.1631 34.2443 45.3449C34.0867 45.5268 34 45.7594 34 46V50C34 50.2406 34.0867 50.4732 34.2443 50.6551C34.4019 50.8369 34.6198 50.9558 34.858 50.99L37.54 51.373C37.7213 51.9369 37.9483 52.4851 38.219 53.012L36.594 55.178C36.4496 55.3706 36.3795 55.6088 36.3966 55.8489C36.4137 56.0889 36.5168 56.3148 36.687 56.485L39.515 59.313C39.6851 59.4829 39.9108 59.5859 40.1507 59.603C40.3905 59.62 40.6285 59.5501 40.821 59.406L42.988 57.782C43.5149 58.0523 44.0631 58.2791 44.627 58.46L45.01 61.142C45.0442 61.3802 45.1631 61.5981 45.3449 61.7557C45.5268 61.9133 45.7594 62 46 62H50C50.2406 62 50.4732 61.9133 50.6551 61.7557C50.8369 61.5981 50.9558 61.3802 50.99 61.142L51.373 58.46C51.9368 58.2789 52.485 58.0522 53.012 57.782L55.179 59.406C55.3715 59.5501 55.6095 59.62 55.8493 59.603C56.0892 59.5859 56.3149 59.4829 56.485 59.313L59.313 56.485C59.4832 56.3148 59.5863 56.0889 59.6034 55.8489C59.6205 55.6088 59.5504 55.3706 59.406 55.178L57.781 53.012C58.0517 52.4851 58.2787 51.9369 58.46 51.373L61.142 50.99C61.3802 50.9558 61.5981 50.8369 61.7557 50.6551C61.9133 50.4732 62 50.2406 62 50V46C62 45.7594 61.9133 45.5268 61.7557 45.3449C61.5981 45.1631 61.3802 45.0442 61.142 45.01ZM60 49.133L57.537 49.485C57.3412 49.513 57.1582 49.5985 57.011 49.7306C56.8638 49.8626 56.759 50.0354 56.71 50.227C56.4989 51.0554 56.1699 51.8492 55.733 52.584C55.632 52.7544 55.5839 52.951 55.5947 53.1488C55.6056 53.3466 55.6749 53.5367 55.794 53.695L57.286 55.685L55.686 57.285L53.695 55.793C53.5367 55.6743 53.3467 55.6052 53.1491 55.5946C52.9515 55.5839 52.7552 55.6321 52.585 55.733C51.8508 56.1699 51.0572 56.4983 50.229 56.708C50.0369 56.7568 49.8636 56.8615 49.7311 57.0089C49.5987 57.1563 49.513 57.3398 49.485 57.536L49.133 60H46.867L46.516 57.537C46.488 57.3408 46.4023 57.1573 46.2699 57.0099C46.1374 56.8625 45.9641 56.7577 45.772 56.709C44.9438 56.4993 44.1502 56.1709 43.416 55.734C43.2458 55.6331 43.0495 55.5849 42.8519 55.5956C42.6543 55.6062 42.4643 55.6753 42.306 55.794L40.315 57.286L38.715 55.686L40.207 53.696C40.3261 53.5377 40.3954 53.3476 40.4063 53.1498C40.4171 52.952 40.369 52.7554 40.268 52.585C39.8311 51.8502 39.5021 51.0564 39.291 50.228C39.242 50.0364 39.1372 49.8636 38.99 49.7316C38.8428 49.5995 38.6598 49.514 38.464 49.486L36 49.133V46.867L38.463 46.515C38.6588 46.487 38.8418 46.4015 38.989 46.2694C39.1362 46.1374 39.241 45.9646 39.29 45.773C39.5011 44.9446 39.8301 44.1508 40.267 43.416C40.368 43.2456 40.4161 43.049 40.4053 42.8512C40.3944 42.6534 40.3251 42.4633 40.206 42.305L38.714 40.315L40.314 38.715L42.305 40.207C42.4633 40.3257 42.6533 40.3948 42.8509 40.4054C43.0485 40.4161 43.2448 40.3679 43.415 40.267C44.1492 39.8301 44.9428 39.5017 45.771 39.292C45.9631 39.2432 46.1364 39.1385 46.2689 38.9911C46.4013 38.8437 46.487 38.6602 46.515 38.464L46.867 36H49.133L49.484 38.463C49.512 38.6592 49.5977 38.8427 49.7301 38.9901C49.8626 39.1375 50.0359 39.2423 50.228 39.291C51.0562 39.5007 51.8498 39.8291 52.584 40.266C52.7542 40.3669 52.9505 40.4151 53.1481 40.4044C53.3457 40.3938 53.5357 40.3247 53.694 40.206L55.685 38.714L57.285 40.314L55.793 42.304C55.6739 42.4623 55.6046 42.6524 55.5937 42.8502C55.5829 43.048 55.631 43.2446 55.732 43.415C56.1689 44.1498 56.4979 44.9436 56.709 45.772C56.758 45.9636 56.8628 46.1364 57.01 46.2684C57.1572 46.4005 57.3402 46.486 57.536 46.514L60 46.867V49.133Z" fill="#32325D"/>
<path d="M48 42C46.8133 42 45.6533 42.3519 44.6666 43.0112C43.6799 43.6705 42.9109 44.6075 42.4567 45.7039C42.0026 46.8003 41.8838 48.0067 42.1153 49.1705C42.3468 50.3344 42.9182 51.4035 43.7574 52.2426C44.5965 53.0818 45.6656 53.6532 46.8295 53.8847C47.9933 54.1162 49.1997 53.9974 50.2961 53.5433C51.3925 53.0891 52.3295 52.3201 52.9888 51.3334C53.6481 50.3467 54 49.1867 54 48C53.9984 46.4092 53.3658 44.884 52.2409 43.7591C51.116 42.6342 49.5908 42.0016 48 42ZM48 52C47.2089 52 46.4355 51.7654 45.7777 51.3259C45.1199 50.8864 44.6072 50.2616 44.3045 49.5307C44.0017 48.7998 43.9225 47.9956 44.0769 47.2196C44.2312 46.4437 44.6122 45.731 45.1716 45.1716C45.731 44.6122 46.4437 44.2312 47.2196 44.0769C47.9956 43.9225 48.7998 44.0017 49.5307 44.3045C50.2616 44.6072 50.8864 45.1199 51.3259 45.7777C51.7654 46.4355 52 47.2089 52 48C52 49.0609 51.5786 50.0783 50.8284 50.8284C50.0783 51.5786 49.0609 52 48 52Z" fill="#32325D"/>
<path d="M47 38H49V40H47V38Z" fill="#32325D"/>
<path d="M40.2133 41.626L41.6273 40.212L43.0413 41.626L41.6273 43.04L40.2133 41.626Z" fill="#32325D"/>
<path d="M38 47H40V49H38V47Z" fill="#32325D"/>
<path d="M40.2119 54.3628L41.6259 52.9488L43.0399 54.3628L41.6259 55.7768L40.2119 54.3628Z" fill="#32325D"/>
<path d="M47 56H49V58H47V56Z" fill="#32325D"/>
<path d="M52.9387 54.3511L54.3527 52.9371L55.7667 54.3511L54.3527 55.7651L52.9387 54.3511Z" fill="#32325D"/>
<path d="M56 47H58V49H56V47Z" fill="#32325D"/>
<path d="M52.941 41.6494L54.355 40.2354L55.769 41.6494L54.355 43.0634L52.941 41.6494Z" fill="#32325D"/>
</svg>
