<svg width="24" height="24" viewBox="0 0 24 24" fill="none" xmlns="http://www.w3.org/2000/svg">
<path d="M7 19H15V17.6667H7V19ZM14 11V12.3333H19V11H14ZM7 15.6667H19V14.3333H7V15.6667Z" fill="#A4A5AB"/>
<path d="M15.6667 4H6.33333C5.6 4 5 4.6 5 5.33333V14.6667C5 15.4 5.6 16 6.33333 16H15.6667C16.4 16 17 15.4 17 14.6667V5.33333C17 4.6 16.4 4 15.6667 4ZM13 9.33333C13 10.0733 12.4 10.6667 11.6667 10.6667H10.3333V12H13V13.3333H9V10.6667C9 9.92667 9.6 9.33333 10.3333 9.33333H11.6667V8H9V6.66667H11.6667C12.4 6.66667 13 7.26 13 8V9.33333Z" fill="black"/>
</svg>
