<svg width="24" height="24" viewBox="0 0 24 24" fill="none" xmlns="http://www.w3.org/2000/svg">
<path d="M7 19H15V17.6667H7V19ZM7 11V12.3333H19V11H7ZM7 15.6667H19V14.3333H7V15.6667Z" fill="black"/>
<path d="M12.5 3.5H5.5C4.95 3.5 4.5 3.95 4.5 4.5V11.5C4.5 12.05 4.95 12.5 5.5 12.5H12.5C13.05 12.5 13.5 12.05 13.5 11.5V4.5C13.5 3.95 13.05 3.5 12.5 3.5ZM10.5 7.5C10.5 8.055 10.05 8.5 9.5 8.5H8.5V9.5H10.5V10.5H7.5V8.5C7.5 7.945 7.95 7.5 8.5 7.5H9.5V6.5H7.5V5.5H9.5C10.05 5.5 10.5 5.945 10.5 6.5V7.5Z" fill="black"/>
</svg>
