<svg width="42" height="42" viewBox="0 0 42 42" fill="none" xmlns="http://www.w3.org/2000/svg">
    <path d="M41.851 21.2214C41.851 32.5875 32.6368 41.8015 21.2706 41.8015C9.90434 41.8015 0.690186 32.5875 0.690186 21.2214C0.690186 9.85525 9.90434 0.641204 21.2706 0.641204C32.6368 0.641204 41.851 9.85525 41.851 21.2214Z" fill="#32325D"/>
    <path d="M10.9805 27.2245V31.5114H15.2675L27.9112 18.8678L23.6242 14.5809L10.9805 27.2245ZM31.2265 15.5526C31.6723 15.1068 31.6723 14.3865 31.2265 13.9407L28.5514 11.2657C28.1055 10.8198 27.3853 10.8198 26.9395 11.2657L24.8474 13.3577L29.1344 17.6446L31.2265 15.5526Z" fill="white"/>
</svg>
