<svg width="24" height="24" viewBox="0 0 24 24" fill="none" xmlns="http://www.w3.org/2000/svg">
<path d="M7 19H15V17.6667H7V19ZM14 11V12.3333H19V11H14ZM7 15.6667H19V14.3333H7V15.6667Z" fill="#A4A5AB"/>
<g clip-path="url(#clip0)">
<path d="M15.6733 4H6.33993C5.60659 4 5.00659 4.6 5.00659 5.33333V14.6667C5.00659 15.4 5.60659 16 6.33993 16H15.6733C16.4066 16 17.0066 15.4 17.0066 14.6667V5.33333C17.0066 4.6 16.4066 4 15.6733 4ZM13.0066 9C13.0066 9.55333 12.5599 10 12.0066 10C12.5599 10 13.0066 10.4467 13.0066 11V12C13.0066 12.74 12.4066 13.3333 11.6733 13.3333H9.00659V12H11.6733V10.6667H10.3399V9.33333H11.6733V8H9.00659V6.66667H11.6733C12.4066 6.66667 13.0066 7.26 13.0066 8V9Z" fill="black"/>
</g>
<defs>
<clipPath id="clip0">
<rect x="3" y="2" width="16" height="16" fill="white"/>
</clipPath>
</defs>
</svg>
