<svg width="24" height="24" viewBox="0 0 24 24" fill="none" xmlns="http://www.w3.org/2000/svg">
<path d="M7 19H15V17.6667H7V19ZM7 11V12.3333H19V11H7ZM7 15.6667H19V14.3333H7V15.6667Z" fill="black"/>
<g clip-path="url(#clip0)">
<path d="M12.5049 3.5H5.50488C4.95488 3.5 4.50488 3.95 4.50488 4.5V11.5C4.50488 12.05 4.95488 12.5 5.50488 12.5H12.5049C13.0549 12.5 13.5049 12.05 13.5049 11.5V4.5C13.5049 3.95 13.0549 3.5 12.5049 3.5ZM10.5049 7.25C10.5049 7.665 10.1699 8 9.75488 8C10.1699 8 10.5049 8.335 10.5049 8.75V9.5C10.5049 10.055 10.0549 10.5 9.50488 10.5H7.50488V9.5H9.50488V8.5H8.50488V7.5H9.50488V6.5H7.50488V5.5H9.50488C10.0549 5.5 10.5049 5.945 10.5049 6.5V7.25Z" fill="black"/>
</g>
<defs>
<clipPath id="clip0">
<rect x="3" y="2" width="12" height="12" fill="white"/>
</clipPath>
</defs>
</svg>
