<svg width="64" height="64" viewBox="0 0 64 64" fill="none" xmlns="http://www.w3.org/2000/svg">
<g clip-path="url(#clip0)">
<path d="M31.9842 0C21.8448 0 13.5959 8.249 13.5959 18.3883C13.5959 22.603 15.0546 26.7121 17.7063 29.9765C17.7261 30.0071 17.7473 30.037 17.7701 30.066L30.9988 47.014C31.2357 47.3175 31.5992 47.4949 31.9842 47.4949C32.3692 47.4949 32.7326 47.3174 32.9694 47.0137L46.2617 29.9766C46.2663 29.9706 46.2708 29.9648 46.2753 29.9587C48.9174 26.6985 50.3722 22.5914 50.3722 18.3883C50.3724 8.249 42.1236 0 31.9842 0ZM44.3064 28.418C44.2906 28.4375 44.2756 28.4571 44.2611 28.4772L31.9839 44.2134L19.8307 28.6434C19.8004 28.594 19.7664 28.5464 19.7289 28.5009C17.3859 25.665 16.0957 22.0736 16.0957 18.3883C16.0957 9.62738 23.2233 2.49975 31.9842 2.49975C40.7451 2.49975 47.8727 9.62738 47.8728 18.3883C47.8728 22.0343 46.6062 25.5962 44.3064 28.418Z" fill="#32325D"/>
<path d="M42.7724 15.4701C42.577 14.8079 41.8819 14.4297 41.2199 14.6249C40.5577 14.8203 40.1794 15.5153 40.3747 16.1774C41.2834 19.2576 40.4387 22.5802 38.1704 24.8486C36.518 26.5011 34.3209 27.4111 31.984 27.4111C29.6471 27.4111 27.45 26.5011 25.7975 24.8484C24.145 23.1959 23.235 20.9989 23.235 18.6619C23.235 16.3249 24.145 14.1278 25.7976 12.4754C28.0682 10.2047 31.3936 9.36082 34.4761 10.2733C35.1382 10.4694 35.8335 10.0916 36.0294 9.4297C36.2254 8.76782 35.8475 8.07232 35.1857 7.87645C31.2237 6.7037 26.9492 7.7887 24.0301 10.7078C21.9056 12.8324 20.7355 15.6573 20.7355 18.6619C20.7355 21.6666 21.9055 24.4913 24.0301 26.6159C26.1547 28.7406 28.9796 29.9107 31.9842 29.9107C34.9889 29.9107 37.8136 28.7406 39.9382 26.6162C42.8544 23.7001 43.9404 19.4291 42.7724 15.4701Z" fill="#32325D"/>
<path d="M39.9604 10.7297L39.9383 10.7074C39.45 10.2193 38.6587 10.2193 38.1707 10.7074C37.6825 11.1957 37.6825 11.987 38.1707 12.475L38.1928 12.4973C38.4368 12.7414 38.7567 12.8634 39.0765 12.8634C39.3964 12.8634 39.7163 12.7414 39.9604 12.4973C40.4484 12.0092 40.4484 11.2178 39.9604 10.7297Z" fill="#32325D"/>
<path d="M51.201 38.1633C50.5454 37.9479 49.8388 38.304 49.623 38.9598C49.4073 39.6154 49.7639 40.3219 50.4195 40.5378C57.3558 42.8203 61.4967 46.2401 61.4967 49.6858C61.4967 52.5993 58.4918 55.5473 53.2523 57.7735C47.596 60.1769 40.0485 61.5005 31.9999 61.5005C23.9513 61.5005 16.4038 60.1769 10.7475 57.7735C5.50817 55.5473 2.50317 52.5994 2.50317 49.6858C2.50317 47.2458 4.60767 44.7673 8.42917 42.7065C12.4668 40.5291 18.1849 38.9523 24.53 38.2664C25.2163 38.1921 25.7125 37.5758 25.6383 36.8894C25.564 36.2031 24.9474 35.7064 24.2613 35.7811C17.6022 36.501 11.5582 38.1791 7.24254 40.5064C2.50667 43.0603 0.00341797 46.2344 0.00341797 49.6858C0.00341797 53.7086 3.47192 57.398 9.76992 60.0741C15.7285 62.6058 23.6232 64.0001 32 64.0001C40.3769 64.0001 48.2715 62.6058 54.2299 60.0741C60.5279 57.398 63.9964 53.7088 63.9964 49.6858C63.9964 45.039 59.3328 40.8393 51.201 38.1633Z" fill="#32325D"/>
<path d="M45.4822 36.6647L45.4387 36.656C44.762 36.5196 44.1028 36.9575 43.9663 37.6341C43.8299 38.3107 44.2678 38.97 44.9444 39.1065L44.9879 39.1152C45.0714 39.132 45.1544 39.1401 45.2364 39.1401C45.819 39.1401 46.3405 38.7302 46.4603 38.1371C46.5967 37.4605 46.1588 36.8012 45.4822 36.6647Z" fill="#32325D"/>
<path d="M22.5498 42.1277C22.4144 41.451 21.756 41.0121 21.079 41.1472C21.0509 41.1529 21.021 41.1599 20.9933 41.1675C20.3274 41.3491 19.9348 42.0361 20.1164 42.7021C20.268 43.2581 20.7718 43.6235 21.3215 43.6235C21.4199 43.6235 21.5195 43.6119 21.619 43.5875C22.2676 43.4306 22.6819 42.788 22.5498 42.1277Z" fill="#32325D"/>
<path d="M36.1704 40.0934C35.4816 40.0403 34.8807 40.5538 34.8268 41.2419C34.7729 41.93 35.2872 42.5316 35.9753 42.5855C44.1359 43.2243 48.4823 45.6111 48.4823 47.0885C48.4823 47.8013 47.3461 49.012 44.1437 50.0785C40.9184 51.1526 36.6058 51.7443 32.0001 51.7443C27.3943 51.7443 23.0816 51.1528 19.8564 50.0785C16.6541 49.012 15.5178 47.8013 15.5178 47.0885C15.5178 46.4371 16.4012 45.6159 17.8808 44.892C18.5008 44.5886 18.7574 43.8401 18.4541 43.2201C18.1507 42.6001 17.4022 42.3434 16.7821 42.6469C13.6711 44.1691 13.0179 45.9025 13.0179 47.0888C13.0179 51.7864 22.5671 54.2443 31.9999 54.2443C41.4328 54.2443 50.9819 51.7864 50.9821 47.0886C50.9822 42.7811 43.0032 40.6283 36.1704 40.0934Z" fill="#32325D"/>
</g>
<defs>
<clipPath id="clip0">
<rect width="64" height="64" fill="white"/>
</clipPath>
</defs>
</svg>
