<svg width="12" height="15" viewBox="0 0 12 15" fill="none" xmlns="http://www.w3.org/2000/svg">
<path d="M10 5.33329H9.33334V3.99996C9.33334 2.15996 7.84 0.666626 6 0.666626C4.16 0.666626 2.66667 2.15996 2.66667 3.99996V5.33329H2.00001C1.26667 5.33329 0.666672 5.93329 0.666672 6.66663V13.3333C0.666672 14.0666 1.26667 14.6666 2.00001 14.6666H10C10.7333 14.6666 11.3333 14.0666 11.3333 13.3333V6.66663C11.3333 5.93329 10.7333 5.33329 10 5.33329ZM6 11.3333C5.26667 11.3333 4.66667 10.7333 4.66667 9.99996C4.66667 9.26663 5.26667 8.66663 6 8.66663C6.73334 8.66663 7.33334 9.26663 7.33334 9.99996C7.33334 10.7333 6.73334 11.3333 6 11.3333ZM8.06667 5.33329H3.93334V3.99996C3.93334 2.85996 4.86 1.93329 6 1.93329C7.14 1.93329 8.06667 2.85996 8.06667 3.99996V5.33329Z" fill="#A4A5AB"/>
</svg>
