<svg width="170" height="73" viewBox="0 0 170 73" fill="none" xmlns="http://www.w3.org/2000/svg">
<g clip-path="url(#clip0)">
<path d="M56.5792 38.9453L48.6852 28.8964C51.4883 26.0227 53.181 22.2476 53.4622 18.2431H65.6856V19.5808C62.8561 20.1623 60.8242 22.6512 60.821 25.5399C60.8218 28.8981 63.5447 31.6199 66.9029 31.6193C70.2611 31.6187 72.983 28.8956 72.9824 25.5374C72.9818 22.6484 70.9485 20.1586 68.1178 19.5808V17.0269C68.1178 16.3553 67.5733 15.8108 66.9017 15.8108H53.4622C53.2245 12.4413 51.9834 9.2201 49.8989 6.56209L51.5954 4.86558H65.9093C66.581 6.76534 68.6656 7.76089 70.5652 7.08913C72.4649 6.41752 73.4605 4.33291 72.7887 2.43331C72.117 0.53371 70.0326 -0.462 68.133 0.209611C67.094 0.576883 66.2768 1.39428 65.9095 2.43316H51.0921C50.7695 2.43316 50.4603 2.56146 50.2323 2.78949L48.2682 4.75355C41.5099 -1.75521 30.7547 -1.55287 24.2458 5.20549C21.4794 8.078 19.8116 11.8322 19.5346 15.8106H9.31911L5.34341 6.86856C7.12064 5.9332 7.8032 3.73442 6.86799 1.9572C5.93278 0.179967 3.73386 -0.502436 1.95663 0.432771C0.179553 1.36798 -0.503003 3.56675 0.432204 5.34398C0.923675 6.27797 1.79686 6.95247 2.8248 7.1919L7.4157 17.5217C7.6112 17.9606 8.04688 18.2432 8.52725 18.2429H19.5345C19.8145 22.2014 21.4745 25.9362 24.2251 28.7965L13.9585 39.0631C7.32009 38.0685 1.13224 42.6436 0.137596 49.282C-0.85705 55.9204 3.71805 62.1083 10.3565 63.1029C10.5568 63.133 10.7579 63.158 10.9595 63.1779V69.3206C10.9595 69.9922 11.504 70.5367 12.1757 70.5367H23.3446C24.0162 72.4365 26.1009 73.432 28.0005 72.7602C29.9001 72.0885 30.8958 70.004 30.224 68.1044C29.5522 66.2048 27.4678 65.2091 25.5682 65.8809C24.5292 66.2482 23.7119 67.0655 23.3446 68.1044H13.3918V63.1779C20.0711 62.512 24.9461 56.5575 24.2803 49.8781C23.8297 45.3583 20.8964 41.4668 16.6754 39.7892L26.0396 30.4249C32.1379 35.2265 40.7217 35.261 46.8586 30.5088L53.6057 39.0972C44.2894 40.3968 37.7905 49.0026 39.0901 58.3188C40.3897 67.6352 48.9955 74.134 58.3117 72.8344C67.6281 71.5348 74.1269 62.929 72.8273 53.6128C71.686 45.4298 64.836 39.2462 56.5792 38.9453ZM70.5501 25.5399C70.5501 27.5549 68.9167 29.1883 66.9017 29.1883C64.8867 29.1883 63.2533 27.5549 63.2533 25.5399C63.2533 23.5249 64.8867 21.8915 66.9017 21.8915C68.9167 21.8915 70.5501 23.5249 70.5501 25.5399ZM69.334 2.43331C70.0056 2.43331 70.5501 2.97784 70.5501 3.64945C70.5501 4.32106 70.0056 4.86558 69.334 4.86558C68.6624 4.86558 68.1178 4.32106 68.1178 3.64945C68.1178 2.97784 68.6624 2.43331 69.334 2.43331ZM3.66271 4.86558C2.9911 4.86558 2.44658 4.32106 2.44658 3.64945C2.44658 2.97784 2.9911 2.43331 3.66271 2.43331C4.33432 2.43331 4.87885 2.97784 4.87885 3.64945C4.87885 4.32106 4.33432 4.86558 3.66271 4.86558ZM26.7693 68.1046C27.4409 68.1046 27.9854 68.6491 27.9854 69.3207C27.9854 69.9923 27.4409 70.5368 26.7693 70.5368C26.0977 70.5368 25.5531 69.9923 25.5531 69.3207C25.5531 68.6491 26.0977 68.1046 26.7693 68.1046ZM17.0402 59.4919C14.0347 61.2471 10.3166 61.2471 7.31112 59.4919V57.1594C7.31112 54.4728 9.48906 52.2948 12.1757 52.2948C14.8622 52.2948 17.0402 54.4728 17.0402 57.1594V59.4919ZM9.74339 47.4303C9.74339 46.0869 10.8323 44.998 12.1757 44.998C13.519 44.998 14.6079 46.0869 14.6079 47.4303C14.6079 48.7737 13.519 49.8626 12.1757 49.8626C10.8323 49.8626 9.74339 48.7735 9.74339 47.4303ZM19.4725 44.6222C21.0446 46.4049 21.9099 48.7016 21.9047 51.0787C21.9043 53.4419 21.0391 55.7233 19.4725 57.4926V57.1594C19.4709 54.5006 18.0233 52.053 15.6939 50.771C17.549 48.8276 17.4772 45.7484 15.5339 43.8933C13.5905 42.0384 10.5112 42.11 8.65616 44.0534C6.86191 45.9331 6.86191 48.8912 8.65616 50.7709C6.32726 52.0531 4.88022 54.5006 4.87885 57.1592V57.4924C1.32485 53.4625 1.71067 47.3145 5.74048 43.7605C9.77045 40.2065 15.9185 40.5923 19.4725 44.6222ZM45.0113 28.8526C39.9344 32.5384 33.0623 32.5384 27.9854 28.8526V25.9047C27.9854 23.6883 29.7822 21.8915 31.9986 21.8915H34.6985L32.9339 26.3036C32.7531 26.7555 32.8594 27.2719 33.2038 27.6158L35.6361 30.0481C36.111 30.5228 36.8808 30.5228 37.3557 30.0481L39.788 27.6158C40.1325 27.2718 40.2387 26.7555 40.058 26.3036L38.2946 21.8915H40.998C43.2145 21.8915 45.0113 23.6883 45.0113 25.9047V28.8526ZM36.6724 9.10381C36.6268 9.17982 36.5897 9.26039 36.5617 9.34445C35.9464 11.1893 32.624 11.8886 30.4849 12.0917C30.8111 8.01613 32.7289 6.08156 36.4985 6.08156C39.9499 6.08156 41.8495 7.71362 42.3931 11.1188L38.3409 8.68652C37.7648 8.34114 37.0178 8.52797 36.6724 9.10381ZM38.1754 11.4254L42.5219 14.034C42.0342 17.0111 38.3651 19.4592 36.4983 19.4592C33.7859 18.9972 31.5295 17.1163 30.5867 14.5314C32.6687 14.3599 36.4278 13.7288 38.1754 11.4254ZM37.5029 26.4629L36.4983 27.4687L35.4938 26.4629L36.4983 23.9492L37.5029 26.4629ZM41.8043 19.5151C43.7015 18.0222 44.8688 15.7884 45.0113 13.3785C45.0113 5.33744 40.3815 3.64945 36.4983 3.64945C32.6152 3.64945 27.9854 5.33744 27.9854 13.3785C28.1268 15.7898 29.2943 18.0251 31.1924 19.5188C27.9687 19.916 25.5484 22.6566 25.5531 25.9047V26.6441C20.2221 20.5993 20.8006 11.3772 26.8456 6.04614C32.8905 0.715066 42.1125 1.29364 47.4436 7.33844C52.3081 12.8544 52.3081 21.128 47.4436 26.644V25.9046C47.4501 22.6552 45.0294 19.9124 41.8043 19.5151ZM64.4694 67.7689C59.3925 71.4547 52.5205 71.4547 47.4436 67.7689V64.821C47.4436 62.6046 49.2404 60.8078 51.4568 60.8078H54.1566L52.392 65.2199C52.2113 65.6719 52.3175 66.1881 52.662 66.5321L55.0943 68.9644C55.5692 69.4391 56.339 69.4391 56.8139 68.9644L59.2461 66.5321C59.5906 66.1881 59.6969 65.6719 59.5161 65.2199L57.7527 60.8078H60.4562C62.6726 60.8078 64.4694 62.6046 64.4694 64.821V67.7689ZM57.6335 50.3417V50.3405L61.98 52.9491C61.4923 55.9274 57.8233 58.3755 55.9565 58.3755C53.2441 57.9135 50.9877 56.0326 50.0449 53.4477C52.1269 53.2763 55.886 52.6449 57.6335 50.3417ZM49.9427 51.0082C50.2686 46.9329 52.1865 44.998 55.9565 44.998C59.4079 44.998 61.3075 46.6301 61.8511 50.0353L57.7989 47.603C57.223 47.2575 56.4759 47.4443 56.1304 48.0203C56.0848 48.0963 56.0477 48.1768 56.0197 48.2609C55.4044 50.1058 52.0819 50.8051 49.9427 51.0082ZM56.961 65.3792L55.9565 66.385L54.952 65.3792L55.9565 62.8655L56.961 65.3792ZM66.9017 65.5639V64.8209C66.9082 61.5714 64.4875 58.8287 61.2625 58.4313C63.1597 56.9383 64.327 54.7046 64.4694 52.2947C64.4694 44.2536 59.8396 42.5656 55.9565 42.5656C52.0734 42.5656 47.4436 44.2536 47.4436 52.2947C47.5849 54.706 48.7524 56.9412 50.6505 58.4349C47.4268 58.8322 45.0066 61.5727 45.0113 64.8209V65.5603C39.6927 59.5108 40.2852 50.2949 46.3348 44.9763C52.3843 39.6577 61.6001 40.2502 66.9187 46.2997C69.2622 48.9652 70.5533 52.3938 70.5501 55.9429C70.5494 59.488 69.2517 62.91 66.9017 65.5639Z" fill="#5585FF"/>
</g>
<path d="M91.664 19.408C91.664 18.208 91.496 17.304 91.16 16.696C90.84 16.072 90.248 15.76 89.384 15.76C88.712 15.76 88.168 15.784 87.752 15.832C87.512 15.864 87.304 15.888 87.128 15.904V22.912H89.384C89.72 22.912 90.024 22.856 90.296 22.744C90.584 22.616 90.824 22.416 91.016 22.144C91.224 21.872 91.384 21.512 91.496 21.064C91.608 20.616 91.664 20.064 91.664 19.408ZM93.8 19.24C93.8 20.152 93.712 20.952 93.536 21.64C93.376 22.312 93.112 22.872 92.744 23.32C92.376 23.768 91.896 24.104 91.304 24.328C90.712 24.552 89.992 24.664 89.144 24.664H87.128V31H85.04V14.2C85.44 14.168 85.864 14.136 86.312 14.104C86.696 14.072 87.128 14.056 87.608 14.056C88.104 14.04 88.6 14.032 89.096 14.032C90.008 14.032 90.768 14.168 91.376 14.44C91.984 14.696 92.464 15.064 92.816 15.544C93.184 16.008 93.44 16.56 93.584 17.2C93.728 17.824 93.8 18.504 93.8 19.24ZM97.34 31V14.2H105.212V15.952H99.428V21.448H104.612V23.2H99.428V29.248H105.212V31H97.34ZM117.696 18.928C117.696 20.176 117.512 21.2 117.144 22C116.776 22.8 116.16 23.368 115.296 23.704L118.584 31H116.28L113.208 24.04H111.072V31H108.984V14.2C109.384 14.168 109.808 14.136 110.256 14.104C110.64 14.072 111.072 14.056 111.552 14.056C112.048 14.04 112.544 14.032 113.04 14.032C113.952 14.032 114.704 14.152 115.296 14.392C115.904 14.616 116.384 14.944 116.736 15.376C117.088 15.808 117.336 16.328 117.48 16.936C117.624 17.528 117.696 18.192 117.696 18.928ZM115.56 19.096C115.56 17.928 115.4 17.08 115.08 16.552C114.76 16.024 114.176 15.76 113.328 15.76C112.656 15.76 112.112 15.784 111.696 15.832C111.456 15.864 111.248 15.888 111.072 15.904V22.288H113.328C113.664 22.288 113.968 22.248 114.24 22.168C114.512 22.072 114.744 21.912 114.936 21.688C115.144 21.448 115.296 21.12 115.392 20.704C115.504 20.288 115.56 19.752 115.56 19.096ZM128.739 26.224C128.739 27.216 128.627 28.032 128.403 28.672C128.179 29.312 127.859 29.816 127.443 30.184C127.027 30.552 126.523 30.808 125.931 30.952C125.355 31.096 124.707 31.168 123.987 31.168C123.603 31.168 123.147 31.136 122.619 31.072C122.091 31.008 121.619 30.92 121.203 30.808V29.056C121.571 29.152 122.003 29.24 122.499 29.32C122.995 29.384 123.571 29.416 124.227 29.416C125.059 29.416 125.659 29.176 126.027 28.696C126.411 28.216 126.603 27.472 126.603 26.464C126.603 25.888 126.563 25.408 126.483 25.024C126.403 24.624 126.283 24.304 126.123 24.064C125.963 23.808 125.755 23.616 125.499 23.488C125.259 23.36 124.979 23.264 124.659 23.2C123.987 23.056 123.419 22.872 122.955 22.648C122.491 22.424 122.115 22.136 121.827 21.784C121.539 21.432 121.323 21 121.179 20.488C121.051 19.976 120.987 19.368 120.987 18.664C120.987 17.8 121.099 17.08 121.323 16.504C121.563 15.912 121.891 15.432 122.307 15.064C122.739 14.696 123.243 14.432 123.819 14.272C124.395 14.112 125.027 14.032 125.715 14.032C126.115 14.032 126.547 14.072 127.011 14.152C127.491 14.216 127.907 14.296 128.259 14.392V16.144C127.843 16.048 127.379 15.968 126.867 15.904C126.355 15.824 125.891 15.784 125.475 15.784C125.171 15.784 124.875 15.832 124.587 15.928C124.315 16.024 124.067 16.176 123.843 16.384C123.635 16.592 123.459 16.864 123.315 17.2C123.187 17.52 123.123 17.92 123.123 18.4C123.123 18.88 123.147 19.288 123.195 19.624C123.243 19.944 123.331 20.208 123.459 20.416C123.603 20.624 123.795 20.792 124.035 20.92C124.275 21.032 124.587 21.128 124.971 21.208C125.547 21.32 126.067 21.48 126.531 21.688C126.995 21.896 127.387 22.192 127.707 22.576C128.043 22.944 128.299 23.424 128.475 24.016C128.651 24.608 128.739 25.344 128.739 26.224ZM139.758 22.528C139.758 21.2 139.71 20.104 139.614 19.24C139.518 18.376 139.358 17.688 139.134 17.176C138.91 16.664 138.614 16.304 138.246 16.096C137.878 15.888 137.422 15.784 136.878 15.784C136.334 15.784 135.878 15.888 135.51 16.096C135.142 16.304 134.846 16.664 134.622 17.176C134.398 17.688 134.238 18.376 134.142 19.24C134.046 20.104 133.998 21.2 133.998 22.528C133.998 23.824 134.046 24.912 134.142 25.792C134.238 26.656 134.398 27.36 134.622 27.904C134.846 28.448 135.142 28.84 135.51 29.08C135.878 29.304 136.334 29.416 136.878 29.416C137.422 29.416 137.878 29.304 138.246 29.08C138.614 28.84 138.91 28.448 139.134 27.904C139.358 27.36 139.518 26.656 139.614 25.792C139.71 24.912 139.758 23.824 139.758 22.528ZM141.894 22.408C141.894 23.88 141.814 25.168 141.654 26.272C141.51 27.36 141.246 28.272 140.862 29.008C140.494 29.728 139.982 30.272 139.326 30.64C138.686 30.992 137.87 31.168 136.878 31.168C135.886 31.168 135.062 30.992 134.406 30.64C133.766 30.272 133.254 29.728 132.87 29.008C132.502 28.272 132.238 27.36 132.078 26.272C131.934 25.168 131.862 23.88 131.862 22.408C131.862 21 131.934 19.776 132.078 18.736C132.238 17.68 132.502 16.808 132.87 16.12C133.254 15.416 133.766 14.896 134.406 14.56C135.062 14.208 135.886 14.032 136.878 14.032C137.87 14.032 138.686 14.208 139.326 14.56C139.982 14.896 140.494 15.416 140.862 16.12C141.246 16.808 141.51 17.68 141.654 18.736C141.814 19.776 141.894 21 141.894 22.408ZM151.406 31L147.734 15.976V31H145.79V14.2H149.198L152.894 29.224V14.2H154.838V31H151.406ZM163.175 15.784L161.231 24.952H165.143L163.175 15.784ZM166.439 31L165.527 26.752H160.847L159.911 31H157.775L161.831 14.2H164.591L168.575 31H166.439Z" fill="black"/>
<path d="M92.144 53.224C92.144 54.216 92.032 55.032 91.808 55.672C91.584 56.312 91.264 56.816 90.848 57.184C90.432 57.552 89.928 57.808 89.336 57.952C88.76 58.096 88.112 58.168 87.392 58.168C87.008 58.168 86.552 58.136 86.024 58.072C85.496 58.008 85.024 57.92 84.608 57.808V56.056C84.976 56.152 85.408 56.24 85.904 56.32C86.4 56.384 86.976 56.416 87.632 56.416C88.464 56.416 89.064 56.176 89.432 55.696C89.816 55.216 90.008 54.472 90.008 53.464C90.008 52.888 89.968 52.408 89.888 52.024C89.808 51.624 89.688 51.304 89.528 51.064C89.368 50.808 89.16 50.616 88.904 50.488C88.664 50.36 88.384 50.264 88.064 50.2C87.392 50.056 86.824 49.872 86.36 49.648C85.896 49.424 85.52 49.136 85.232 48.784C84.944 48.432 84.728 48 84.584 47.488C84.456 46.976 84.392 46.368 84.392 45.664C84.392 44.8 84.504 44.08 84.728 43.504C84.968 42.912 85.296 42.432 85.712 42.064C86.144 41.696 86.648 41.432 87.224 41.272C87.8 41.112 88.432 41.032 89.12 41.032C89.52 41.032 89.952 41.072 90.416 41.152C90.896 41.216 91.312 41.296 91.664 41.392V43.144C91.248 43.048 90.784 42.968 90.272 42.904C89.76 42.824 89.296 42.784 88.88 42.784C88.576 42.784 88.28 42.832 87.992 42.928C87.72 43.024 87.472 43.176 87.248 43.384C87.04 43.592 86.864 43.864 86.72 44.2C86.592 44.52 86.528 44.92 86.528 45.4C86.528 45.88 86.552 46.288 86.6 46.624C86.648 46.944 86.736 47.208 86.864 47.416C87.008 47.624 87.2 47.792 87.44 47.92C87.68 48.032 87.992 48.128 88.376 48.208C88.952 48.32 89.472 48.48 89.936 48.688C90.4 48.896 90.792 49.192 91.112 49.576C91.448 49.944 91.704 50.424 91.88 51.016C92.056 51.608 92.144 52.344 92.144 53.224ZM102.778 58V50.272H97.8343V58H95.7463V41.2H97.8343V48.496H102.778V41.2H104.866V58H102.778ZM113.202 42.784L111.258 51.952H115.17L113.202 42.784ZM116.466 58L115.554 53.752H110.874L109.938 58H107.802L111.858 41.2H114.618L118.602 58H116.466ZM130.254 45.928C130.254 47.176 130.07 48.2 129.702 49C129.334 49.8 128.718 50.368 127.854 50.704L131.142 58H128.838L125.766 51.04H123.63V58H121.542V41.2C121.942 41.168 122.366 41.136 122.814 41.104C123.198 41.072 123.63 41.056 124.11 41.056C124.606 41.04 125.102 41.032 125.598 41.032C126.51 41.032 127.262 41.152 127.854 41.392C128.462 41.616 128.942 41.944 129.294 42.376C129.646 42.808 129.894 43.328 130.038 43.936C130.182 44.528 130.254 45.192 130.254 45.928ZM128.118 46.096C128.118 44.928 127.958 44.08 127.638 43.552C127.318 43.024 126.734 42.76 125.886 42.76C125.214 42.76 124.67 42.784 124.254 42.832C124.014 42.864 123.806 42.888 123.63 42.904V49.288H125.886C126.222 49.288 126.526 49.248 126.798 49.168C127.07 49.072 127.302 48.912 127.494 48.688C127.702 48.448 127.854 48.12 127.95 47.704C128.062 47.288 128.118 46.752 128.118 46.096ZM134.193 58V41.2H142.065V42.952H136.281V48.448H141.465V50.2H136.281V56.248H142.065V58H134.193Z" fill="#5585FF"/>
<defs>
<clipPath id="clip0">
<rect width="73" height="73" fill="white"/>
</clipPath>
</defs>
</svg>
