<svg width="24" height="24" viewBox="0 0 24 24" fill="none" xmlns="http://www.w3.org/2000/svg">
<g clip-path="url(#clip0)">
<path fill-rule="evenodd" clip-rule="evenodd" d="M5.33398 4H18.6674V20.0001H5.33398V4ZM12.0007 6.66654C13.3233 6.66654 14.4007 7.7176 14.4007 9.00801C14.4007 10.2984 13.3233 11.3495 12.0007 11.3495C10.678 11.3495 9.60066 10.2984 9.60066 9.00801C9.60066 7.7176 10.678 6.66654 12.0007 6.66654ZM17.334 15.7723V17.3333H6.66731V15.7723C6.66731 14.0344 10.2193 13.1706 12.0007 13.1706C13.782 13.1706 17.334 14.0344 17.334 15.7723Z" fill="black"/>
<path d="M2.66668 5.3335H0V18.6669H2.66668V5.3335Z" fill="black"/>
<path d="M23.9997 5.3335H21.333V18.6669H23.9997V5.3335Z" fill="black"/>
</g>
<defs>
<clipPath id="clip0">
<rect width="24" height="24" fill="white"/>
</clipPath>
</defs>
</svg>
