<svg width="24" height="24" viewBox="0 0 24 24" fill="none" xmlns="http://www.w3.org/2000/svg">
<path fill-rule="evenodd" clip-rule="evenodd" d="M2 1H11V11H2V1ZM6.49941 2.66649C7.39221 2.66649 8.11941 3.3234 8.11941 4.12991C8.11941 4.93641 7.39221 5.59332 6.49941 5.59332C5.60661 5.59332 4.87941 4.93641 4.87941 4.12991C4.87941 3.3234 5.60661 2.66649 6.49941 2.66649ZM10.0994 8.35755V9.33316H2.89941V8.35755C2.89941 7.27137 5.29701 6.73153 6.49941 6.73153C7.70181 6.73153 10.0994 7.27137 10.0994 8.35755Z" fill="black"/>
<path fill-rule="evenodd" clip-rule="evenodd" d="M2 13H11V23H2V13ZM6.49941 14.6665C7.39221 14.6665 8.11941 15.3234 8.11941 16.1299C8.11941 16.9364 7.39221 17.5933 6.49941 17.5933C5.60661 17.5933 4.87941 16.9364 4.87941 16.1299C4.87941 15.3234 5.60661 14.6665 6.49941 14.6665ZM10.0994 20.3575V21.3332H2.89941V20.3575C2.89941 19.2714 5.29701 18.7315 6.49941 18.7315C7.70181 18.7315 10.0994 19.2714 10.0994 20.3575Z" fill="black"/>
<path fill-rule="evenodd" clip-rule="evenodd" d="M13 13H22V23H13V13ZM17.4994 14.6665C18.3922 14.6665 19.1194 15.3234 19.1194 16.1299C19.1194 16.9364 18.3922 17.5933 17.4994 17.5933C16.6066 17.5933 15.8794 16.9364 15.8794 16.1299C15.8794 15.3234 16.6066 14.6665 17.4994 14.6665ZM21.0994 20.3575V21.3332H13.8994V20.3575C13.8994 19.2714 16.297 18.7315 17.4994 18.7315C18.7018 18.7315 21.0994 19.2714 21.0994 20.3575Z" fill="black"/>
<path fill-rule="evenodd" clip-rule="evenodd" d="M13 1H22V11H13V1ZM17.4994 2.66649C18.3922 2.66649 19.1194 3.3234 19.1194 4.12991C19.1194 4.93641 18.3922 5.59332 17.4994 5.59332C16.6066 5.59332 15.8794 4.93641 15.8794 4.12991C15.8794 3.3234 16.6066 2.66649 17.4994 2.66649ZM21.0994 8.35755V9.33316H13.8994V8.35755C13.8994 7.27137 16.297 6.73153 17.4994 6.73153C18.7018 6.73153 21.0994 7.27137 21.0994 8.35755Z" fill="black"/>
</svg>
