<svg width="90" height="90" viewBox="0 0 90 90" fill="none" xmlns="http://www.w3.org/2000/svg">
<circle cx="45" cy="45" r="45" fill="white"/>
<path d="M45 10C25.68 10 10 25.68 10 45C10 64.32 25.68 80 45 80C64.32 80 80 64.32 80 45C80 25.68 64.32 10 45 10ZM45 20.5C50.81 20.5 55.5 25.19 55.5 31C55.5 36.81 50.81 41.5 45 41.5C39.19 41.5 34.5 36.81 34.5 31C34.5 25.19 39.19 20.5 45 20.5ZM45 70.2C36.25 70.2 28.515 65.72 24 58.93C24.105 51.965 38 48.15 45 48.15C51.965 48.15 65.895 51.965 66 58.93C61.485 65.72 53.75 70.2 45 70.2Z" fill="#5585FF"/>
</svg>
