<svg width="24" height="24" viewBox="0 0 24 24" fill="none" xmlns="http://www.w3.org/2000/svg">
<path d="M5.71501 12.5724H6.85898V13.7163H8.00214V14.8595H2.28713V13.7163H3.43029V11.4292H5.71742V12.5724H5.71501ZM20.5737 22.8576H21.7153V21.7145H20.5737V22.8576ZM6.85817 12.5724H8.00134V11.4292H6.85817V12.5724ZM22.8568 22.8576H24.0008V21.7145H22.8568V22.8576ZM9.1453 24H11.43V22.8568H9.1453V24ZM19.4298 24V22.8568H18.2858V24H19.4298ZM14.8587 24H16.0019V21.7137H14.8587V24ZM5.71501 9.1437V10.2869H9.1437V9.1437H5.71501ZM4.57345 10.2861V9.1429H2.28633V11.4292H3.42949V10.2861H4.57345ZM8.00134 7.99973H0.00160331V0.000801657H8.00134V7.99973ZM6.85817 1.14396H1.14316V6.85737H6.85817V1.14396ZM2.28633 21.7145H5.71421V18.2858H2.28633V21.7145ZM13.7147 20.5705V21.7145H14.8595V20.5705H13.7147ZM5.71501 2.28713H2.28713V5.71421H5.71501V2.28713ZM24 0.000801657V8.00053H16.0003V0.000801657H24ZM22.8568 1.14396H17.1434V6.85737H22.8568V1.14396ZM0 15.9987H8.00053V23.9984H0V15.9987ZM1.14396 22.8576H6.85898V17.1426H1.14396V22.8576ZM1.14396 9.1437H0V14.8587H1.14396V9.1437ZM16.0003 14.8571V15.9987H17.1434V14.8571H16.0003ZM12.5716 19.429V18.2858H11.4292V19.4298H9.1445V21.7169H11.4292V22.86H12.5716V20.5729H13.7155V19.4298H12.5716V19.429ZM9.1453 4.57265H11.43V3.42788H9.1453V4.57265ZM18.2866 13.7155H20.5745V14.8587H21.7169V11.4308H20.5745V9.1437H19.4298V12.5724H16.0035V13.7163H17.1466V14.8595H18.2898V13.7163H18.2866V13.7155ZM19.4298 17.1426H18.2858V15.9987H17.1426V18.2858H13.7147V19.4298H16.0027V21.7169H17.1458V22.86H18.289V20.5729H22.8592V19.4298H19.4314V17.1426H19.4298ZM19.4298 17.1426H20.5745V14.8571H19.4298V17.1426ZM10.2869 17.1426V15.9987H11.4284V14.8571H12.5708V13.7139H13.7147V11.4268H17.1426V9.13969H15.9995V10.2829H14.8563V5.7118H13.7131V3.42468H14.8563V0H13.7131V2.28633H12.57V0H9.14209V2.28633H10.2853V1.14316H11.4268V3.42788H12.57V6.85657H13.7131V7.99973H12.57V10.2861H11.4268V7.99973H10.2853V6.85737H9.14209V9.1437H10.2853V10.2869H9.14209V13.7163H10.2853V11.4292H11.4268V13.7163H10.2853V14.8595H9.14209V18.2858H11.4268V17.1426H10.2869ZM22.8568 18.2858V17.1426H20.5721V18.2858H22.8568ZM21.7137 2.28713H18.2866V5.71421H21.7137V2.28713ZM12.5716 17.1426H14.8595V15.9987H13.7147V14.8571H12.5708V17.1426H12.5716ZM14.8587 14.8571V13.7139H13.7139V14.8571H14.8587ZM21.7137 10.2861H24.0008V9.1429H21.7137V10.2861ZM22.8568 19.429H24.0008V18.2858H22.8568V19.429ZM22.8568 12.5724H24.0008V11.4292H22.8568V12.5724ZM12.5716 6.85737H11.4292V8.00053H12.5716V6.85737Z" fill="#5585FF"/>
</svg>
