<svg width="64" height="64" viewBox="0 0 64 64" fill="none" xmlns="http://www.w3.org/2000/svg">
<path d="M20 0H0V20H20V0ZM16 16H4V4H16V16Z" fill="#32325D"/>
<path d="M12 8H8V12H12V8Z" fill="#32325D"/>
<path d="M44 0V20H64V0H44ZM60 16H48V4H60V16Z" fill="#32325D"/>
<path d="M56.0001 8H52.0001V12H56.0001V8Z" fill="#32325D"/>
<path d="M0 64H20V44H0V64ZM4 48H16V60H4V48Z" fill="#32325D"/>
<path d="M12 52H8V56H12V52Z" fill="#32325D"/>
<path d="M39.9999 0H31.9999V4H39.9999V0Z" fill="#32325D"/>
<path d="M32.0001 16H36.0001V12H40.0001V8H28.0001V4H24.0001V8V10V12H32.0001V16Z" fill="#32325D"/>
<path d="M28.0001 16H24.0001V20H28.0001V16Z" fill="#32325D"/>
<path d="M40.0001 20H36.0001V24H24.0001V28H40.0001V20Z" fill="#32325D"/>
<path d="M3.99999 36H7.99999V32H3.99999V24H0V40H3.99999V36Z" fill="#32325D"/>
<path d="M12 24H8V28H12V24Z" fill="#32325D"/>
<path d="M23.9999 40H31.9999V36H27.9999V32H19.9999V24H15.9999V32H11.9999V40H15.9999V36H17.9999H19.9999H23.9999V40Z" fill="#32325D"/>
<path d="M40 32H36V40H40V32Z" fill="#32325D"/>
<path d="M36.0001 44H24.0001V48H32.0001V60H24.0001V64H36.0001V60H44.0001V56H36.0001V44Z" fill="#32325D"/>
<path d="M28.0001 52H24.0001V56H28.0001V52Z" fill="#32325D"/>
<path d="M43.9998 44H39.9999V52H43.9998V44Z" fill="#32325D"/>
<path d="M60 52H48V64H52V56H60V52Z" fill="#32325D"/>
<path d="M64 60H56V64H64V60Z" fill="#32325D"/>
<path d="M64.0001 44H60.0001V48H64.0001V44Z" fill="#32325D"/>
<path d="M48 48H52V36H44V40H48V48Z" fill="#32325D"/>
<path d="M56 28H52V24H48V28H44V32H60V28H64V24H56V28Z" fill="#32325D"/>
<path d="M64 36H56V40H64V36Z" fill="#32325D"/>
</svg>
