<svg width="59" height="57" viewBox="0 0 59 57" fill="none" xmlns="http://www.w3.org/2000/svg">
<path d="M5.53174 48.1008L13.8298 35.6301L44.2563 33.8486L53.4764 48.9915L46.1003 47.21L43.3342 54.3361L35.0361 40.0839H24.894L15.6739 54.3361L12.9078 47.21L5.53174 48.1008Z" fill="white" stroke="white"/>
<path d="M55.1669 48.8291L47.0111 35.7087C48.4673 34.7602 49.3604 33.2059 49.3606 31.5034C49.3607 30.6981 49.6984 29.941 50.3115 29.3714C51.8998 27.8959 52.3708 25.6969 51.5113 23.769C51.1795 23.025 51.1795 22.2054 51.5113 21.4615C52.3708 19.5337 51.8999 17.3347 50.3115 15.859C49.6984 15.2896 49.3607 14.5324 49.3606 13.727C49.3604 11.6405 48.0193 9.77622 45.9439 8.97749C45.1429 8.66927 44.519 8.08971 44.1871 7.34583C43.3272 5.41816 41.3201 4.17263 39.0736 4.17231C38.2065 4.1722 37.3913 3.85866 36.778 3.28909C35.1893 1.81419 32.8216 1.37662 30.7461 2.17503C29.945 2.48304 29.0625 2.48304 28.2616 2.17503C26.1861 1.37694 23.8185 1.81409 22.2296 3.28941C21.6165 3.85877 20.8013 4.17241 19.9341 4.17252C17.6877 4.17284 15.6805 5.41848 14.8206 7.34593C14.4887 8.08992 13.8648 8.66938 13.0636 8.97771C10.9883 9.77643 9.64717 11.6407 9.64694 13.7272C9.64682 14.5325 9.30913 15.2897 8.69612 15.8593C7.10781 17.3349 6.63681 19.5339 7.4963 21.4617C7.82804 22.2057 7.82804 23.0252 7.4963 23.7692C6.63681 25.6971 7.10781 27.8961 8.69612 29.3716C9.30913 29.9411 9.64682 30.6982 9.64694 31.5037C9.64717 33.2061 10.5403 34.7604 11.9965 35.7089L3.84078 48.8291C3.6094 49.2014 3.64224 49.6665 3.92397 50.0075C4.2057 50.3484 4.68048 50.4982 5.12802 50.3871L12.5164 48.5483L14.4962 55.4106C14.616 55.8258 14.9933 56.1332 15.4522 56.1892C15.5023 56.1954 15.5523 56.1983 15.6019 56.1983C16.0067 56.1983 16.3864 55.9985 16.5925 55.6669L24.3583 43.1738C24.9306 43.3552 25.5316 43.4493 26.1379 43.4492C26.8518 43.4492 27.5728 43.3204 28.2615 43.0555C29.0626 42.7475 29.9451 42.7475 30.746 43.0555C32.0197 43.5454 33.4032 43.5692 34.6494 43.174L42.4152 55.667C42.6213 55.9986 43.001 56.1984 43.4058 56.1984C43.4555 56.1984 43.5055 56.1955 43.5555 56.1893C44.0144 56.1333 44.3917 55.8259 44.5115 55.4107L46.4913 48.5484L53.8797 50.3872C54.3269 50.4981 54.802 50.3486 55.0837 50.0076C55.3654 49.6665 55.3983 49.2014 55.1669 48.8291ZM15.9918 52.382L14.431 46.9716C14.2674 46.4047 13.6404 46.0678 13.0294 46.2201L7.20416 47.6699L13.9734 36.78C14.3385 37.0796 14.6287 37.4545 14.8207 37.8848C15.6807 39.8125 17.6878 41.058 19.9342 41.0581C20.8013 41.0582 21.6165 41.3718 22.2298 41.9412C22.283 41.9907 22.3377 42.0381 22.3926 42.0851L15.9918 52.382ZM31.6217 41.0916C30.2561 40.5665 28.7518 40.5665 27.3859 41.0916C26.1686 41.5599 24.7798 41.3033 23.8479 40.4381C22.8026 39.4673 21.4128 38.9326 19.9345 38.9325C18.6168 38.9324 17.4395 38.2018 16.9351 37.0709C16.3692 35.8025 15.3055 34.8146 13.94 34.2891C12.7226 33.8206 11.9359 32.7271 11.9358 31.5032C11.9356 30.1302 11.3599 28.8393 10.3148 27.8685C9.38306 27.003 9.10682 25.7131 9.61101 24.5824C10.1765 23.3138 10.1765 21.9168 9.61101 20.6482C9.10682 19.5174 9.38306 18.2276 10.3148 17.362C11.3599 16.3912 11.9356 15.1004 11.9358 13.7273C11.9359 12.5035 12.7226 11.4099 13.94 10.9414C15.3056 10.416 16.3692 9.42803 16.9351 8.15954C17.4395 7.02889 18.6168 6.29819 19.9345 6.29809C21.4127 6.29798 22.8025 5.76327 23.8478 4.79258C24.4706 4.2144 25.2971 3.90798 26.1403 3.90798C26.5591 3.90798 26.982 3.98355 27.3859 4.13893C28.7517 4.66408 30.256 4.66408 31.6217 4.13893C32.8392 3.67076 34.2279 3.92732 35.1598 4.79247C36.2051 5.76327 37.5949 6.29798 39.0731 6.29809C40.3909 6.29819 41.5682 7.02889 42.0726 8.15964C42.6384 9.42803 43.7022 10.4159 45.0677 10.9414C46.285 11.4099 47.0718 12.5035 47.0719 13.7273C47.0721 15.1004 47.6478 16.3912 48.6929 17.362C49.6246 18.2276 49.9009 19.5174 49.3967 20.6482C48.8312 21.9168 48.8312 23.3138 49.3967 24.5824C49.9009 25.7131 49.6246 27.003 48.6929 27.8685C47.6478 28.8393 47.0721 30.1302 47.0719 31.5032C47.0718 32.7271 46.285 33.8206 45.0677 34.2891C43.7021 34.8146 42.6384 35.8025 42.0726 37.071C41.5682 38.2018 40.3909 38.9324 39.0732 38.9325C37.595 38.9326 36.2052 39.4673 35.1599 40.4381C34.228 41.3035 32.8394 41.5601 31.6217 41.0916ZM45.9783 46.22C45.3678 46.068 44.7402 46.4045 44.5767 46.9715L43.0158 52.3819L36.6156 42.0857C36.6705 42.0386 36.7247 41.9905 36.778 41.941C37.3912 41.3717 38.2064 41.058 39.0734 41.0579C41.32 41.0578 43.3271 39.8121 44.1871 37.8845C44.3791 37.4542 44.6693 37.0794 45.0344 36.7798L51.8036 47.6697L45.9783 46.22Z" fill="white"/>
<path d="M35.9024 17.0862C35.6892 16.7963 35.3356 16.623 34.9576 16.623H24.0503C23.6723 16.623 23.3187 16.7964 23.1056 17.0862L20.3788 20.7926C20.0682 21.2146 20.1252 21.7823 20.5144 22.1437L28.6949 29.7417C28.9094 29.941 29.2005 30.053 29.504 30.053C29.8075 30.053 30.0986 29.941 30.3132 29.7417L38.4937 22.1437C38.8829 21.7823 38.9398 21.2146 38.6293 20.7926L35.9024 17.0862ZM29.5039 27.4871L22.8037 21.264L24.6542 18.7487H34.3535L36.204 21.264L29.5039 27.4871Z" fill="white"/>
<path d="M44.7241 25.0916C45.2594 22.2406 44.8683 19.3443 43.5932 16.716C43.3335 16.1807 42.6561 15.9423 42.0797 16.1836C41.5035 16.4247 41.2469 17.054 41.5065 17.5893C43.7403 22.1936 42.657 27.6873 38.8108 31.2595C33.6788 36.0261 25.3285 36.0261 20.1966 31.2595C15.0645 26.4929 15.0645 18.7371 20.1966 13.9705C24.0427 10.3983 29.9572 9.39195 34.9149 11.4667C35.4912 11.7078 36.1686 11.4694 36.4283 10.9343C36.6879 10.3991 36.4312 9.76979 35.8551 9.52863C33.0253 8.3441 29.9069 7.98093 26.8373 8.47823C23.6962 8.98701 20.8403 10.3664 18.5783 12.4673C12.554 18.0627 12.554 27.167 18.5783 32.7624C21.5904 35.56 25.547 36.9588 29.5038 36.9588C33.4605 36.9588 37.4171 35.56 40.4293 32.7624C42.6913 30.6616 44.1764 28.0091 44.7241 25.0916Z" fill="white"/>
<path d="M39.6206 14.2829C39.9215 14.2829 40.2156 14.1693 40.4296 13.9715C40.6424 13.7738 40.7637 13.4997 40.7637 13.2201C40.7637 12.9395 40.6424 12.6663 40.4296 12.4687C40.2156 12.27 39.9215 12.1572 39.6206 12.1572C39.3185 12.1572 39.0244 12.27 38.8104 12.4687C38.5975 12.6663 38.4751 12.9396 38.4751 13.2201C38.4751 13.4997 38.5975 13.7738 38.8104 13.9715C39.0244 14.1693 39.3185 14.2829 39.6206 14.2829Z" fill="white"/>
<ellipse cx="29.5038" cy="23.1592" rx="22.1283" ry="19.5967" fill="white"/>
<ellipse cx="29.6819" cy="23.4386" rx="16.7361" ry="15.3087" fill="#FFF066"/>
<path d="M48.5547 43.3917L42.1451 33.2432L40.5427 35.4793L37.1599 36.6833L33.9551 38.0594L40.5427 47.8639L42.5012 42.5316L48.5547 43.3917Z" fill="#FF6767"/>
<path d="M23.9722 22.269L25.8162 19.5967H33.1923L35.0363 22.269L29.5042 28.5043L23.9722 22.269Z" fill="#5585FF"/>
<path d="M10.6313 43.7354L17.0409 33.5869L18.6433 35.823L22.0261 37.0271L25.2309 38.4032L18.6433 48.2076L16.6848 42.8754L10.6313 43.7354Z" fill="#FF6767"/>
<path d="M49.6678 44.0921L43.2597 33.7832C44.4038 33.038 45.1056 31.8168 45.1058 30.4791C45.1058 29.8464 45.3712 29.2515 45.8528 28.804C47.1008 27.6446 47.4709 25.9168 46.7955 24.4021C46.5349 23.8175 46.5349 23.1736 46.7955 22.589C47.4709 21.0743 47.1009 19.3465 45.8528 18.1871C45.3712 17.7397 45.1058 17.1447 45.1058 16.5119C45.1056 14.8726 44.0518 13.4077 42.4212 12.7802C41.7918 12.538 41.3016 12.0826 41.0408 11.4981C40.3652 9.98355 38.7882 9.00492 37.023 9.00466C36.3418 9.00458 35.7013 8.75823 35.2194 8.31071C33.9711 7.15186 32.1108 6.80806 30.4801 7.43537C29.8506 7.67738 29.1572 7.67738 28.5279 7.43537C26.8972 6.80831 25.037 7.15178 23.7885 8.31096C23.3068 8.75831 22.6663 9.00475 21.9849 9.00483C20.2199 9.00508 18.6428 9.9838 17.9672 11.4982C17.7064 12.0828 17.2162 12.5381 16.5867 12.7803C14.9561 13.4079 13.9023 14.8727 13.9021 16.5121C13.9021 17.1448 13.6367 17.7397 13.1551 18.1873C11.9071 19.3467 11.537 21.0745 12.2124 22.5892C12.473 23.1737 12.473 23.8177 12.2124 24.4022C11.537 25.917 11.9071 27.6448 13.1551 28.8041C13.6367 29.2516 13.9021 29.8465 13.9021 30.4793C13.9023 31.8169 14.6041 33.0382 15.7482 33.7834L9.34016 44.0921C9.15836 44.3846 9.18416 44.7501 9.40552 45.0181C9.62688 45.2859 9.99992 45.4036 10.3516 45.3163L16.1567 43.8715L17.7123 49.2633C17.8064 49.5896 18.1029 49.8311 18.4634 49.8751C18.5028 49.8799 18.5421 49.8823 18.581 49.8823C18.8991 49.8823 19.1974 49.7253 19.3594 49.4647L25.4611 39.6487C25.9107 39.7913 26.3829 39.8652 26.8594 39.8651C27.4202 39.8651 27.9867 39.7639 28.5278 39.5558C29.1573 39.3138 29.8507 39.3138 30.48 39.5558C31.4808 39.9407 32.5678 39.9594 33.5469 39.6489L39.6486 49.4648C39.8106 49.7253 40.1089 49.8823 40.427 49.8823C40.466 49.8823 40.5053 49.88 40.5446 49.8752C40.9051 49.8312 41.2016 49.5896 41.2957 49.2634L42.8512 43.8716L48.6564 45.3163C49.0078 45.4035 49.3811 45.286 49.6025 45.0181C49.8238 44.7501 49.8496 44.3846 49.6678 44.0921ZM18.8874 46.8837L17.661 42.6327C17.5325 42.1873 17.0398 41.9226 16.5598 42.0422L11.9828 43.1814L17.3015 34.625C17.5884 34.8604 17.8164 35.1549 17.9673 35.4931C18.643 37.0077 20.22 37.9863 21.985 37.9864C22.6663 37.9865 23.3068 38.2328 23.7886 38.6803C23.8304 38.7191 23.8734 38.7563 23.9166 38.7933L18.8874 46.8837ZM31.1681 38.0127C30.0951 37.6001 28.9131 37.6001 27.8399 38.0127C26.8835 38.3806 25.7922 38.179 25.0601 37.4992C24.2387 36.7364 23.1468 36.3163 21.9852 36.3162C20.9499 36.3161 20.0249 35.7421 19.6286 34.8536C19.1839 33.857 18.3481 33.0808 17.2752 32.6679C16.3188 32.2998 15.7006 31.4406 15.7005 30.479C15.7004 29.4001 15.248 28.3859 14.4269 27.6231C13.6948 26.943 13.4778 25.9296 13.8739 25.0411C14.3182 24.0444 14.3182 22.9467 13.8739 21.95C13.4778 21.0615 13.6948 20.0481 14.4269 19.368C15.248 18.6052 15.7004 17.591 15.7005 16.5122C15.7006 15.5506 16.3188 14.6913 17.2752 14.3232C18.3482 13.9105 19.1839 13.1342 19.6286 12.1375C20.0249 11.2491 20.9499 10.675 21.9852 10.6749C23.1467 10.6748 24.2386 10.2547 25.06 9.49202C25.5493 9.03773 26.1987 8.79698 26.8612 8.79698C27.1902 8.79698 27.5225 8.85635 27.8399 8.97844C28.913 9.39106 30.095 9.39106 31.1681 8.97844C32.1246 8.61059 33.2158 8.81218 33.9479 9.49194C34.7693 10.2547 35.8612 10.6748 37.0227 10.6749C38.0581 10.675 38.9831 11.2491 39.3794 12.1376C39.824 13.1342 40.6598 13.9104 41.7328 14.3232C42.6892 14.6913 43.3074 15.5506 43.3074 16.5122C43.3076 17.591 43.76 18.6052 44.5811 19.368C45.3132 20.0481 45.5302 21.0615 45.1341 21.95C44.6897 22.9467 44.6897 24.0444 45.1341 25.0411C45.5302 25.9296 45.3132 26.943 44.5811 27.6231C43.76 28.3859 43.3076 29.4001 43.3074 30.479C43.3074 31.4406 42.6892 32.2998 41.7328 32.6679C40.6598 33.0808 39.824 33.857 39.3794 34.8536C38.9831 35.7421 38.0581 36.3161 37.0228 36.3162C35.8613 36.3163 34.7693 36.7364 33.948 37.4992C33.2159 38.1792 32.1248 38.3808 31.1681 38.0127ZM42.4482 42.0421C41.9685 41.9227 41.4754 42.1871 41.3469 42.6326L40.1206 46.8836L35.0918 38.7937C35.1349 38.7568 35.1775 38.7189 35.2194 38.6801C35.7012 38.2327 36.3417 37.9863 37.023 37.9862C38.7881 37.9861 40.3651 37.0073 41.0408 35.4928C41.1917 35.1547 41.4197 34.8602 41.7066 34.6248L47.0253 43.1812L42.4482 42.0421Z" fill="#32325D"/>
<path d="M34.5317 19.151C34.3641 18.9232 34.0863 18.7871 33.7893 18.7871H25.2193C24.9223 18.7871 24.6445 18.9233 24.477 19.151L22.3345 22.0631C22.0905 22.3948 22.1353 22.8408 22.4411 23.1248L28.8686 29.0947C29.0372 29.2512 29.2659 29.3392 29.5044 29.3392C29.7428 29.3392 29.9716 29.2512 30.1401 29.0947L36.5677 23.1248C36.8735 22.8408 36.9182 22.3948 36.6742 22.0631L34.5317 19.151ZM29.5043 27.3232L24.2398 22.4336L25.6938 20.4573H33.3147L34.7687 22.4336L29.5043 27.3232Z" fill="#32325D"/>
<path d="M41.4628 25.4413C41.8834 23.2012 41.5761 20.9256 40.5742 18.8604C40.3702 18.4398 39.8379 18.2525 39.3851 18.4421C38.9324 18.6316 38.7307 19.126 38.9347 19.5466C40.6898 23.1642 39.8387 27.4807 36.8167 30.2874C32.7844 34.0326 26.2234 34.0326 22.1912 30.2874C18.1588 26.5423 18.1588 20.4485 22.1912 16.7033C25.2132 13.8966 29.8603 13.1058 33.7556 14.736C34.2084 14.9254 34.7406 14.7381 34.9446 14.3177C35.1486 13.8971 34.947 13.4027 34.4943 13.2132C32.2709 12.2825 29.8207 11.9972 27.4089 12.3879C24.9409 12.7876 22.697 13.8714 20.9196 15.5221C16.1863 19.9185 16.1863 27.0719 20.9196 31.4683C23.2864 33.6664 26.3951 34.7655 29.504 34.7655C32.6128 34.7655 35.7216 33.6664 38.0883 31.4683C39.8656 29.8177 41.0325 27.7336 41.4628 25.4413Z" fill="#32325D"/>
<path d="M37.4532 16.9485C37.6897 16.9485 37.9208 16.8592 38.0889 16.7038C38.2561 16.5485 38.3514 16.3331 38.3514 16.1134C38.3514 15.8929 38.2561 15.6783 38.0889 15.5231C37.9208 15.3669 37.6897 15.2783 37.4532 15.2783C37.2159 15.2783 36.9848 15.3669 36.8167 15.5231C36.6494 15.6783 36.5532 15.893 36.5532 16.1134C36.5532 16.3331 36.6494 16.5485 36.8167 16.7038C36.9848 16.8592 37.2159 16.9485 37.4532 16.9485Z" fill="#32325D"/>
</svg>
