<svg width="42" height="42" viewBox="0 0 42 42" fill="none" xmlns="http://www.w3.org/2000/svg">
<path d="M3.9375 35.4375L9.84375 26.25L31.5 24.9375L38.0625 36.0938L32.8125 34.7812L30.8438 40.0312L24.9375 29.5312H17.7188L11.1562 40.0312L9.1875 34.7812L3.9375 35.4375Z" fill="#F8F9FE" stroke="#F8F9FE"/>
<path d="M39.2659 35.9741L33.461 26.3079C34.4974 25.6092 35.1331 24.4641 35.1332 23.2098C35.1333 22.6165 35.3737 22.0587 35.81 21.6391C36.9405 20.552 37.2757 18.9319 36.664 17.5116C36.4279 16.9635 36.4279 16.3597 36.664 15.8115C37.2757 14.3913 36.9406 12.7712 35.81 11.6841C35.3737 11.2645 35.1333 10.7067 35.1332 10.1133C35.1331 8.57616 34.1785 7.20265 32.7014 6.61421C32.1312 6.38713 31.6872 5.96015 31.4509 5.41211C30.8389 3.99193 29.4103 3.0743 27.8113 3.07407C27.1942 3.07399 26.614 2.843 26.1775 2.42338C25.0467 1.33677 23.3614 1.0144 21.8842 1.60261C21.314 1.82953 20.6859 1.82953 20.1158 1.60261C18.6386 1.01463 16.9534 1.33669 15.8225 2.42361C15.3861 2.84308 14.8059 3.07415 14.1887 3.07423C12.5898 3.07446 11.1611 3.99217 10.5491 5.41218C10.3128 5.9603 9.86877 6.38721 9.29855 6.61436C7.82141 7.20281 6.86684 8.57631 6.86668 10.1135C6.8666 10.7068 6.62625 11.2646 6.18993 11.6842C5.05943 12.7714 4.72419 14.3915 5.33595 15.8117C5.57207 16.3598 5.57207 16.9636 5.33595 17.5117C4.72419 18.9321 5.05943 20.5521 6.18993 21.6392C6.62625 22.0588 6.8666 22.6166 6.86668 23.21C6.86684 24.4642 7.50254 25.6093 8.53897 26.3081L2.7341 35.9741C2.56941 36.2484 2.59279 36.5911 2.79331 36.8424C2.99383 37.0935 3.33176 37.2039 3.6503 37.122L8.90907 35.7673L10.3182 40.823C10.4035 41.1289 10.672 41.3553 10.9986 41.3966C11.0343 41.4011 11.0699 41.4033 11.1051 41.4033C11.3933 41.4033 11.6636 41.2561 11.8102 41.0118L17.3376 31.8077C17.7449 31.9414 18.1727 32.0107 18.6043 32.0106C19.1124 32.0106 19.6256 31.9157 20.1157 31.7206C20.6859 31.4937 21.3141 31.4937 21.8841 31.7206C22.7907 32.0815 23.7754 32.099 24.6624 31.8079L30.1898 41.0119C30.3364 41.2562 30.6067 41.4034 30.8949 41.4034C30.9302 41.4034 30.9658 41.4012 31.0014 41.3967C31.328 41.3554 31.5965 41.129 31.6818 40.823L33.0909 35.7673L38.3497 37.1221C38.668 37.2038 39.0062 37.0936 39.2067 36.8424C39.4072 36.5911 39.4306 36.2484 39.2659 35.9741ZM11.3827 38.5917L10.2718 34.6057C10.1553 34.1881 9.70905 33.9398 9.2742 34.0521L5.12801 35.1202L9.94606 27.0972C10.206 27.318 10.4125 27.5941 10.5492 27.9112C11.1613 29.3313 12.5899 30.249 14.1888 30.2491C14.8059 30.2491 15.3861 30.4801 15.8226 30.8997C15.8605 30.9361 15.8994 30.971 15.9385 31.0057L11.3827 38.5917ZM22.5074 30.2737C21.5354 29.8868 20.4647 29.8868 19.4926 30.2737C18.6261 30.6187 17.6376 30.4297 16.9744 29.7922C16.2303 29.077 15.2411 28.6831 14.1889 28.683C13.2511 28.6829 12.4131 28.1447 12.0541 27.3115C11.6513 26.3771 10.8942 25.6492 9.92228 25.2621C9.05583 24.917 8.49588 24.1113 8.4958 23.2097C8.49564 22.1981 8.08587 21.2471 7.34201 20.5319C6.67886 19.8942 6.48225 18.9439 6.84111 18.1108C7.24362 17.1762 7.24362 16.147 6.84111 15.2124C6.48225 14.3793 6.67886 13.429 7.34201 12.7913C8.08587 12.0761 8.49564 11.1251 8.4958 10.1135C8.49588 9.21189 9.05583 8.40624 9.92228 8.06108C10.8943 7.67403 11.6513 6.94613 12.0541 6.01159C12.4131 5.17861 13.2511 4.64028 14.1889 4.6402C15.2411 4.64012 16.2303 4.24618 16.9743 3.53104C17.4175 3.10508 18.0058 2.87933 18.606 2.87933C18.904 2.87933 19.2051 2.935 19.4926 3.04948C20.4646 3.43638 21.5354 3.43638 22.5074 3.04948C23.374 2.70456 24.3624 2.89358 25.0256 3.53097C25.7697 4.24618 26.7589 4.64012 27.811 4.6402C28.7489 4.64028 29.5869 5.17861 29.9459 6.01167C30.3487 6.94613 31.1058 7.67395 32.0777 8.06108C32.9442 8.40624 33.5041 9.21189 33.5042 10.1135C33.5044 11.1251 33.9141 12.0761 34.658 12.7913C35.3211 13.429 35.5178 14.3793 35.1589 15.2124C34.7564 16.147 34.7564 17.1762 35.1589 18.1108C35.5178 18.9439 35.3211 19.8942 34.658 20.5319C33.9141 21.2471 33.5044 22.1981 33.5042 23.2097C33.5041 24.1113 32.9442 24.917 32.0777 25.2621C31.1057 25.6492 30.3487 26.3771 29.9459 27.3116C29.5869 28.1447 28.7489 28.6829 27.8111 28.683C26.7589 28.6831 25.7697 29.077 25.0257 29.7922C24.3625 30.4299 23.3741 30.6189 22.5074 30.2737ZM32.7258 34.052C32.2913 33.94 31.8446 34.1879 31.7282 34.6057L30.6173 38.5916L26.0618 31.0061C26.1009 30.9714 26.1395 30.9359 26.1775 30.8995C26.6139 30.48 27.1941 30.249 27.8112 30.2489C29.4102 30.2488 30.8388 29.331 31.4509 27.9109C31.5876 27.5939 31.7941 27.3178 32.054 27.0971L36.8721 35.12L32.7258 34.052Z" fill="#F8F9FE"/>
<path d="M25.5541 12.588C25.4024 12.3744 25.1507 12.2468 24.8817 12.2468H17.1183C16.8493 12.2468 16.5976 12.3745 16.4459 12.588L14.5051 15.3186C14.284 15.6295 14.3246 16.0478 14.6016 16.3141L20.4241 21.9118C20.5769 22.0586 20.7841 22.1411 21.0001 22.1411C21.2161 22.1411 21.4233 22.0586 21.576 21.9118L27.3985 16.3141C27.6755 16.0478 27.7161 15.6295 27.495 15.3186L25.5541 12.588ZM21 20.2507L16.231 15.666L17.5481 13.8128H24.4517L25.7688 15.666L21 20.2507Z" fill="#F8F9FE"/>
<path d="M31.8332 18.4861C32.2142 16.3856 31.9358 14.2518 31.0283 12.3154C30.8435 11.9211 30.3613 11.7455 29.951 11.9232C29.5409 12.1009 29.3583 12.5645 29.5431 12.9588C31.133 16.351 30.3619 20.3984 27.6244 23.0301C23.9716 26.5418 18.0282 26.5418 14.3755 23.0301C10.7227 19.5184 10.7227 13.8045 14.3755 10.2928C17.1131 7.66104 21.3228 6.91959 24.8514 8.44814C25.2616 8.62573 25.7438 8.45009 25.9286 8.05592C26.1134 7.66159 25.9307 7.19796 25.5206 7.02029C23.5065 6.14761 21.2869 5.88005 19.1021 6.24642C16.8664 6.62126 14.8337 7.63747 13.2237 9.18528C8.93586 13.3076 8.93586 20.0151 13.2237 24.1374C15.3676 26.1985 18.1838 27.229 21 27.229C23.8162 27.229 26.6324 26.1985 28.7763 24.1374C30.3864 22.5897 31.4434 20.6355 31.8332 18.4861Z" fill="#F8F9FE"/>
<path d="M28.2008 10.5224C28.415 10.5224 28.6243 10.4387 28.7766 10.293C28.9281 10.1473 29.0145 9.9454 29.0145 9.73938C29.0145 9.53267 28.9281 9.33143 28.7766 9.18586C28.6243 9.03944 28.415 8.95636 28.2008 8.95636C27.9858 8.95636 27.7764 9.03944 27.6241 9.18586C27.4726 9.33143 27.3855 9.53274 27.3855 9.73938C27.3855 9.9454 27.4726 10.1473 27.6241 10.293C27.7764 10.4387 27.9858 10.5224 28.2008 10.5224Z" fill="#F8F9FE"/>
<ellipse cx="21" cy="17.0625" rx="15.75" ry="14.4375" fill="#F8F9FE"/>
<path d="M35.3518 32.4841L30.7907 24.8893C31.6051 24.3402 32.1046 23.4405 32.1047 22.455C32.1048 21.9889 32.2936 21.5506 32.6364 21.2209C33.5247 20.3667 33.7881 19.0938 33.3074 17.9778C33.1219 17.5472 33.1219 17.0728 33.3074 16.6421C33.7881 15.5262 33.5247 14.2533 32.6364 13.3991C32.2936 13.0694 32.1048 12.6311 32.1047 12.1649C32.1046 10.9572 31.3545 9.87797 30.1939 9.41563C29.746 9.23721 29.3971 8.90172 29.2114 8.47112C28.7306 7.35527 27.6081 6.63427 26.3518 6.63409C25.8669 6.63403 25.411 6.45253 25.068 6.12283C24.1795 5.26907 22.8554 5.01578 21.6947 5.47794C21.2467 5.65624 20.7532 5.65624 20.3053 5.47794C19.1446 5.01596 17.8205 5.26901 16.932 6.12302C16.5891 6.4526 16.1332 6.63415 15.6482 6.63421C14.392 6.6344 13.2694 7.35545 12.7886 8.47118C12.6029 8.90184 12.254 9.23727 11.806 9.41575C10.6454 9.8781 9.89538 10.9573 9.89525 12.165C9.89518 12.6312 9.70634 13.0695 9.36352 13.3992C8.47527 14.2534 8.21187 15.5263 8.69253 16.6422C8.87805 17.0729 8.87805 17.5473 8.69253 17.978C8.21187 19.0939 8.47527 20.3669 9.36352 21.221C9.70634 21.5506 9.89518 21.9889 9.89525 22.4552C9.89538 23.4406 10.3949 24.3403 11.2092 24.8894L6.64822 32.4841C6.51882 32.6997 6.53719 32.9689 6.69474 33.1663C6.8523 33.3636 7.11781 33.4504 7.3681 33.386L11.5 32.3216L12.6072 36.2939C12.6742 36.5343 12.8851 36.7122 13.1418 36.7446C13.1698 36.7482 13.1978 36.7499 13.2255 36.7499C13.4519 36.7499 13.6642 36.6343 13.7795 36.4423L18.1224 29.2105C18.4425 29.3156 18.7786 29.37 19.1177 29.37C19.5169 29.37 19.9201 29.2954 20.3052 29.1421C20.7532 28.9638 21.2468 28.9638 21.6947 29.1421C22.407 29.4256 23.1807 29.4394 23.8776 29.2107L28.2205 36.4424C28.3358 36.6343 28.5481 36.75 28.7745 36.75C28.8023 36.75 28.8303 36.7483 28.8582 36.7447C29.1149 36.7123 29.3258 36.5344 29.3928 36.294L30.5 32.3217L34.6319 33.3861C34.882 33.4503 35.1477 33.3637 35.3053 33.1664C35.4628 32.9689 35.4812 32.6997 35.3518 32.4841ZM13.4436 34.5408L12.5707 31.409C12.4792 31.0808 12.1285 30.8858 11.7869 30.9739L8.52915 31.8132L12.3148 25.5094C12.519 25.6829 12.6813 25.8998 12.7886 26.149C13.2696 27.2648 14.392 27.9858 15.6483 27.9859C16.1332 27.9859 16.5891 28.1674 16.932 28.4971C16.9618 28.5257 16.9924 28.5531 17.0231 28.5804L13.4436 34.5408ZM22.1844 28.0052C21.4207 27.7013 20.5794 27.7013 19.8156 28.0052C19.1348 28.2763 18.3581 28.1278 17.837 27.6269C17.2524 27.065 16.4752 26.7555 15.6484 26.7554C14.9115 26.7553 14.2532 26.3324 13.9711 25.6778C13.6546 24.9436 13.0597 24.3717 12.2961 24.0676C11.6153 23.7964 11.1753 23.1633 11.1753 22.4549C11.1751 21.6601 10.8532 20.9129 10.2687 20.3509C9.74768 19.8499 9.59319 19.1032 9.87515 18.4487C10.1914 17.7143 10.1914 16.9057 9.87515 16.1713C9.59319 15.5168 9.74768 14.7701 10.2687 14.2691C10.8532 13.7071 11.1751 12.9599 11.1753 12.1651C11.1753 11.4567 11.6153 10.8237 12.2961 10.5525C13.0598 10.2483 13.6546 9.67642 13.9711 8.94214C14.2532 8.28766 14.9115 7.86468 15.6484 7.86462C16.4751 7.86456 17.2523 7.55503 17.8369 6.99314C18.1852 6.65845 18.6474 6.48108 19.119 6.48108C19.3532 6.48108 19.5897 6.52482 19.8156 6.61477C20.5794 6.91876 21.4206 6.91876 22.1844 6.61477C22.8653 6.34376 23.6419 6.49228 24.163 6.99308C24.7476 7.55503 25.5248 7.86456 26.3515 7.86462C27.0885 7.86468 27.7468 8.28766 28.0289 8.9422C28.3454 9.67642 28.9403 10.2483 29.7039 10.5525C30.3847 10.8237 30.8247 11.4567 30.8247 12.1651C30.8249 12.9599 31.1468 13.7071 31.7313 14.2691C32.2523 14.7701 32.4068 15.5168 32.1248 16.1713C31.8086 16.9057 31.8086 17.7143 32.1248 18.4487C32.4068 19.1032 32.2523 19.8499 31.7313 20.3509C31.1468 20.9129 30.8249 21.6601 30.8247 22.4549C30.8247 23.1633 30.3847 23.7964 29.7039 24.0676C28.9402 24.3717 28.3454 24.9436 28.0289 25.6779C27.7468 26.3324 27.0885 26.7553 26.3516 26.7554C25.5249 26.7555 24.7477 27.065 24.1631 27.6269C23.642 28.1279 22.8654 28.2764 22.1844 28.0052ZM30.2131 30.9739C29.8717 30.8859 29.5208 31.0807 29.4293 31.4089L28.5564 34.5408L24.9771 28.5807C25.0079 28.5534 25.0382 28.5255 25.068 28.4969C25.4109 28.1674 25.8668 27.9858 26.3517 27.9857C27.608 27.9857 28.7305 27.2646 29.2114 26.1488C29.3188 25.8997 29.4811 25.6827 29.6853 25.5093L33.4709 31.813L30.2131 30.9739Z" fill="#32325D"/>
<path d="M24.5783 14.1093C24.4591 13.9415 24.2613 13.8412 24.0499 13.8412H17.9502C17.7388 13.8412 17.541 13.9415 17.4218 14.1093L15.8969 16.2548C15.7232 16.4991 15.7551 16.8277 15.9727 17.0369L20.5476 21.4351C20.6676 21.5504 20.8304 21.6153 21.0001 21.6153C21.1698 21.6153 21.3326 21.5504 21.4526 21.4351L26.0274 17.0369C26.2451 16.8277 26.277 16.4991 26.1033 16.2548L24.5783 14.1093ZM21 20.13L17.253 16.5277L18.2879 15.0717H23.7121L24.747 16.5277L21 20.13Z" fill="#32325D"/>
<path d="M29.5118 18.7435C29.8112 17.0932 29.5924 15.4166 28.8793 13.8952C28.7341 13.5853 28.3553 13.4473 28.033 13.587C27.7107 13.7266 27.5672 14.0909 27.7124 14.4007C28.9616 17.066 28.3558 20.2461 26.2049 22.3139C23.3348 25.0731 18.665 25.0731 15.795 22.3139C12.925 19.5547 12.925 15.0652 15.795 12.306C17.946 10.2382 21.2536 9.65559 24.0261 10.8566C24.3484 10.9961 24.7272 10.8581 24.8724 10.5484C25.0176 10.2386 24.8741 9.87431 24.5519 9.73471C22.9694 9.04903 21.2254 8.8388 19.5088 9.12667C17.7522 9.42119 16.1551 10.2196 14.89 11.4358C11.521 14.6747 11.521 19.9449 14.89 23.1839C16.5746 24.8033 18.7872 25.613 21 25.613C23.2127 25.613 25.4254 24.8033 27.11 23.1839C28.375 21.9678 29.2055 20.4323 29.5118 18.7435Z" fill="#32325D"/>
<path d="M26.6578 12.4864C26.8261 12.4864 26.9906 12.4206 27.1102 12.3061C27.2293 12.1917 27.2971 12.033 27.2971 11.8711C27.2971 11.7087 27.2293 11.5506 27.1102 11.4362C26.9906 11.3212 26.8261 11.2559 26.6578 11.2559C26.4889 11.2559 26.3244 11.3212 26.2047 11.4362C26.0857 11.5506 26.0172 11.7088 26.0172 11.8711C26.0172 12.033 26.0857 12.1917 26.2047 12.3061C26.3244 12.4206 26.4889 12.4864 26.6578 12.4864Z" fill="#32325D"/>
</svg>
