<svg width="42" height="42" viewBox="0 0 42 42" fill="none" xmlns="http://www.w3.org/2000/svg">
<path d="M3.9377 35.4425L9.84483 26.2536L31.5043 24.9409L38.0678 36.0988L32.817 34.7861L30.848 40.0369L24.9408 29.5354H17.721L11.1575 40.0369L9.18848 34.7861L3.9377 35.4425Z" fill="white" stroke="white"/>
<path d="M39.2714 35.9793L33.4655 26.3116C34.5021 25.6128 35.1379 24.4675 35.1381 23.2131C35.1382 22.6197 35.3786 22.0618 35.8149 21.6421C36.9456 20.5548 37.2809 18.9345 36.669 17.514C36.4329 16.9658 36.4329 16.3619 36.669 15.8137C37.2809 14.3932 36.9457 12.7729 35.8149 11.6856C35.3786 11.266 35.1382 10.7081 35.1381 10.1146C35.1379 8.57724 34.1832 7.20353 32.7058 6.615C32.1356 6.38788 31.6915 5.96084 31.4552 5.41272C30.8431 3.99233 29.4143 3.07457 27.8151 3.07433C27.1978 3.07425 26.6175 2.84323 26.181 2.42354C25.05 1.33677 23.3645 1.01435 21.8871 1.60265C21.3168 1.82961 20.6885 1.82961 20.1184 1.60265C18.641 1.01459 16.9556 1.3367 15.8245 2.42378C15.388 2.8433 14.8077 3.07441 14.1904 3.07449C12.5913 3.07472 11.1624 3.99257 10.5503 5.41279C10.314 5.96099 9.86984 6.38796 9.29954 6.61515C7.82219 7.20368 6.86747 8.57739 6.86731 10.1148C6.86723 10.7082 6.62684 11.2661 6.19046 11.6858C5.0598 12.7731 4.72451 14.3934 5.33635 15.8139C5.57251 16.3621 5.57251 16.9659 5.33635 17.5141C4.72451 18.9347 5.0598 20.555 6.19046 21.6422C6.62684 22.0618 6.86723 22.6198 6.86731 23.2132C6.86747 24.4677 7.50327 25.6129 8.53985 26.3118L2.73411 35.9793C2.5694 36.2536 2.59278 36.5963 2.79333 36.8477C2.99389 37.0988 3.33187 37.2092 3.65046 37.1273L8.91 35.7724L10.3193 40.8288C10.4046 41.1348 10.6732 41.3613 10.9999 41.4026C11.0355 41.4071 11.0711 41.4093 11.1064 41.4093C11.3946 41.4093 11.6649 41.2621 11.8116 41.0177L17.3398 31.8123C17.7472 31.946 18.175 32.0153 18.6067 32.0152C19.1148 32.0152 19.6281 31.9203 20.1183 31.7251C20.6886 31.4982 21.3168 31.4982 21.887 31.7251C22.7937 32.0861 23.7786 32.1036 24.6657 31.8124L30.1939 41.0178C30.3406 41.2621 30.6109 41.4094 30.8991 41.4094C30.9344 41.4094 30.97 41.4072 31.0056 41.4026C31.3323 41.3614 31.6008 41.1349 31.6861 40.8289L33.0955 35.7725L38.355 37.1274C38.6734 37.2091 39.0116 37.099 39.2121 36.8477C39.4127 36.5963 39.4361 36.2536 39.2714 35.9793ZM11.384 38.5973L10.2729 34.6107C10.1564 34.193 9.7101 33.9447 9.27519 34.0569L5.12839 35.1252L9.94715 27.1011C10.2071 27.3218 10.4137 27.598 10.5504 27.9151C11.1625 29.3355 12.5913 30.2533 14.1905 30.2534C14.8077 30.2534 15.388 30.4845 15.8246 30.9041C15.8624 30.9405 15.9014 30.9754 15.9405 31.0101L11.384 38.5973ZM22.5104 30.278C21.5383 29.8911 20.4674 29.8911 19.4951 30.278C18.6285 30.6231 17.6398 30.434 16.9765 29.7965C16.2324 29.0812 15.243 28.6872 14.1906 28.6871C13.2526 28.687 12.4146 28.1487 12.0555 27.3154C11.6527 26.3808 10.8954 25.6529 9.92336 25.2657C9.05679 24.9205 8.49676 24.1147 8.49667 23.2129C8.49651 22.2012 8.08669 21.25 7.34271 20.5347C6.67946 19.8969 6.48282 18.9465 6.84173 18.1133C7.24431 17.1786 7.24431 16.1492 6.84173 15.2144C6.48282 14.3813 6.67946 13.4308 7.34271 12.793C8.08669 12.0777 8.49651 11.1266 8.49667 10.1149C8.49676 9.21307 9.05679 8.40729 9.92336 8.06209C10.8955 7.67498 11.6527 6.94697 12.0555 6.01229C12.4146 5.17918 13.2526 4.64077 14.1906 4.64069C15.2429 4.64062 16.2323 4.24662 16.9764 3.53137C17.4197 3.10534 18.0081 2.87956 18.6084 2.87956C18.9064 2.87956 19.2075 2.93525 19.4951 3.04974C20.4673 3.43669 21.5382 3.43669 22.5104 3.04974C23.3771 2.70477 24.3656 2.89382 25.029 3.5313C25.7731 4.24662 26.7624 4.64062 27.8147 4.64069C28.7528 4.64077 29.5909 5.17918 29.95 6.01237C30.3528 6.94697 31.11 7.6749 32.0821 8.06209C32.9487 8.40729 33.5087 9.21307 33.5088 10.1149C33.509 11.1266 33.9188 12.0777 34.6628 12.793C35.326 13.4308 35.5227 14.3813 35.1637 15.2144C34.7612 16.1492 34.7612 17.1786 35.1637 18.1133C35.5227 18.9465 35.326 19.8969 34.6628 20.5347C33.9188 21.25 33.509 22.2012 33.5088 23.2129C33.5087 24.1147 32.9487 24.9205 32.0821 25.2657C31.11 25.6529 30.3528 26.3808 29.95 27.3155C29.5909 28.1487 28.7528 28.687 27.8148 28.6871C26.7625 28.6872 25.7732 29.0812 25.0291 29.7965C24.3657 30.4342 23.3772 30.6232 22.5104 30.278ZM32.7303 34.0568C32.2957 33.9449 31.849 34.1928 31.7326 34.6106L30.6215 38.5972L26.0653 31.0105C26.1044 30.9758 26.143 30.9403 26.181 30.9039C26.6174 30.4844 27.1978 30.2533 27.815 30.2532C29.4142 30.2531 30.843 29.3352 31.4552 27.9149C31.5919 27.5978 31.7985 27.3217 32.0584 27.1009L36.8772 35.1251L32.7303 34.0568Z" fill="white"/>
<path d="M25.5576 12.5896C25.4058 12.3759 25.1541 12.2483 24.8851 12.2483H17.1205C16.8515 12.2483 16.5998 12.376 16.448 12.5896L14.5069 15.3206C14.2858 15.6315 14.3264 16.0498 14.6034 16.3162L20.4268 21.9147C20.5796 22.0615 20.7868 22.1441 21.0028 22.1441C21.2189 22.1441 21.4261 22.0615 21.5788 21.9147L27.4022 16.3162C27.6793 16.0498 27.7199 15.6315 27.4988 15.3206L25.5576 12.5896ZM21.0027 20.2534L16.2331 15.668L17.5504 13.8146H24.455L25.7723 15.668L21.0027 20.2534Z" fill="white"/>
<path d="M31.8375 18.4886C32.2186 16.3878 31.9401 14.2538 31.0324 12.3171C30.8476 11.9227 30.3654 11.747 29.955 11.9248C29.5449 12.1025 29.3622 12.5662 29.547 12.9606C31.1372 16.3532 30.366 20.4012 27.6281 23.0333C23.9747 26.5456 18.0304 26.5456 14.3772 23.0333C10.7239 19.5211 10.7239 13.8064 14.3772 10.2941C17.1152 7.66197 21.3255 6.92042 24.8547 8.44919C25.2649 8.62681 25.7471 8.45115 25.932 8.05691C26.1168 7.66252 25.9341 7.19882 25.5239 7.02113C23.5095 6.14832 21.2897 5.88072 19.1045 6.24715C16.8685 6.62204 14.8355 7.6384 13.2252 9.18644C8.93674 13.3094 8.93674 20.0178 13.2252 24.1408C15.3695 26.2022 18.186 27.2329 21.0027 27.2329C23.8193 27.2329 26.6359 26.2022 28.7801 24.1408C30.3904 22.5928 31.4476 20.6383 31.8375 18.4886Z" fill="white"/>
<path d="M28.2046 10.5241C28.4189 10.5241 28.6282 10.4404 28.7805 10.2946C28.9321 10.149 29.0184 9.94698 29.0184 9.74094C29.0184 9.53419 28.9321 9.33292 28.7805 9.18733C28.6282 9.04089 28.4189 8.95779 28.2046 8.95779C27.9896 8.95779 27.7802 9.04089 27.6279 9.18733C27.4764 9.33292 27.3892 9.53427 27.3892 9.74094C27.3892 9.94698 27.4764 10.149 27.6279 10.2946C27.7802 10.4404 27.9896 10.5241 28.2046 10.5241Z" fill="white"/>
<ellipse cx="21.0027" cy="17.065" rx="15.7523" ry="14.4396" fill="white"/>
<ellipse cx="21.1295" cy="17.2706" rx="11.9138" ry="11.2801" fill="#FFF066"/>
<path d="M34.5642 31.9728L30.0015 24.4949L28.8608 26.1426L26.4527 27.0298L24.1713 28.0438L28.8608 35.2681L30.255 31.3391L34.5642 31.9728Z" fill="#FF6767"/>
<path d="M17.0646 16.4084L18.3773 14.4394H23.6281L24.9408 16.4084L21.0027 21.0028L17.0646 16.4084Z" fill="#5585FF"/>
<path d="M7.56801 32.2262L12.1308 24.7483L13.2714 26.396L15.6796 27.2832L17.9609 28.2971L13.2714 35.5215L11.8773 31.5924L7.56801 32.2262Z" fill="#FF6767"/>
<path d="M35.3566 32.4888L30.7949 24.8928C31.6094 24.3437 32.1089 23.4438 32.1091 22.4582C32.1091 21.992 32.298 21.5536 32.6409 21.2239C33.5293 20.3696 33.7927 19.0965 33.312 17.9804C33.1264 17.5496 33.1264 17.0752 33.312 16.6444C33.7927 15.5284 33.5293 14.2552 32.6409 13.4009C32.298 13.0712 32.1091 12.6329 32.1091 12.1666C32.1089 10.9586 31.3588 9.87929 30.198 9.41687C29.75 9.23843 29.401 8.90289 29.2154 8.47222C28.7344 7.35621 27.6118 6.63511 26.3553 6.63492C25.8703 6.63486 25.4143 6.45334 25.0714 6.12359C24.1827 5.2697 22.8584 5.01637 21.6976 5.4786C21.2495 5.65692 20.7559 5.65692 20.3079 5.4786C19.1471 5.01655 17.8228 5.26964 16.9341 6.12377C16.5912 6.4534 16.1352 6.63498 15.6502 6.63505C14.3937 6.63523 13.271 7.35639 12.7901 8.47229C12.6044 8.90301 12.2555 9.23849 11.8074 9.417C10.6466 9.87941 9.89645 10.9588 9.89632 12.1667C9.89626 12.6329 9.70738 13.0713 9.36451 13.401C8.47613 14.2554 8.21269 15.5285 8.69343 16.6446C8.87898 17.0753 8.87898 17.5498 8.69343 17.9805C8.21269 19.0966 8.47613 20.3697 9.36451 21.224C9.70738 21.5537 9.89626 21.992 9.89632 22.4583C9.89645 23.444 10.396 24.3438 11.2105 24.8929L6.64881 32.4888C6.5194 32.7044 6.53776 32.9736 6.69534 33.1711C6.85292 33.3684 7.11848 33.4552 7.3688 33.3908L11.5013 32.3263L12.6086 36.2992C12.6756 36.5396 12.8867 36.7175 13.1433 36.75C13.1714 36.7535 13.1993 36.7553 13.227 36.7553C13.4535 36.7553 13.6659 36.6396 13.7811 36.4476L18.1247 29.2147C18.4448 29.3198 18.7809 29.3742 19.1201 29.3742C19.5194 29.3742 19.9227 29.2996 20.3078 29.1463C20.7559 28.9679 21.2495 28.9679 21.6975 29.1463C22.4099 29.4299 23.1837 29.4436 23.8807 29.2149L28.2243 36.4477C28.3396 36.6396 28.552 36.7553 28.7784 36.7553C28.8062 36.7553 28.8342 36.7536 28.8621 36.75C29.1188 36.7176 29.3298 36.5396 29.3968 36.2992L30.5042 32.3263L34.6367 33.3909C34.8868 33.4551 35.1525 33.3686 35.3101 33.1712C35.4677 32.9736 35.4861 32.7044 35.3566 32.4888ZM13.4452 34.5458L12.5721 31.4135C12.4806 31.0853 12.1299 30.8902 11.7882 30.9784L8.53002 31.8178L12.3162 25.5131C12.5204 25.6865 12.6827 25.9035 12.7901 26.1527C13.2711 27.2687 14.3938 27.9898 15.6502 27.9899C16.1352 27.9899 16.5912 28.1715 16.9342 28.5011C16.9639 28.5298 16.9945 28.5572 17.0252 28.5845L13.4452 34.5458ZM22.1873 28.0093C21.4235 27.7052 20.5821 27.7052 19.8181 28.0093C19.1373 28.2804 18.3604 28.1318 17.8393 27.6309C17.2546 27.0689 16.4772 26.7593 15.6504 26.7592C14.9134 26.7592 14.2549 26.3362 13.9728 25.6815C13.6563 24.9471 13.0613 24.3752 12.2975 24.071C11.6166 23.7997 11.1766 23.1666 11.1765 22.4581C11.1764 21.6632 10.8544 20.9158 10.2699 20.3538C9.74873 19.8527 9.59422 19.1059 9.87623 18.4513C10.1925 17.7168 10.1925 16.908 9.87623 16.1736C9.59422 15.5189 9.74873 14.7722 10.2699 14.2711C10.8544 13.709 11.1764 12.9617 11.1765 12.1668C11.1766 11.4582 11.6166 10.8251 12.2975 10.5539C13.0613 10.2497 13.6563 9.67771 13.9728 8.94332C14.2549 8.28873 14.9134 7.8657 15.6504 7.86564C16.4772 7.86557 17.2545 7.556 17.8392 6.99403C18.1875 6.65929 18.6498 6.48189 19.1215 6.48189C19.3556 6.48189 19.5922 6.52564 19.8181 6.6156C20.582 6.91963 21.4234 6.91963 22.1873 6.6156C22.8683 6.34455 23.645 6.49309 24.1662 6.99397C24.7509 7.556 25.5282 7.86557 26.355 7.86564C27.0921 7.8657 27.7506 8.28873 28.0327 8.94338C28.3492 9.67771 28.9442 10.2497 29.7079 10.5539C30.3888 10.8251 30.8289 11.4582 30.8289 12.1668C30.829 12.9617 31.1511 13.709 31.7356 14.2711C32.2567 14.7722 32.4112 15.5189 32.1292 16.1736C31.8129 16.908 31.8129 17.7168 32.1292 18.4513C32.4112 19.1059 32.2567 19.8527 31.7356 20.3538C31.1511 20.9158 30.829 21.6632 30.8289 22.4581C30.8289 23.1666 30.3888 23.7997 29.7079 24.071C28.9441 24.3752 28.3492 24.9471 28.0327 25.6815C27.7506 26.3362 27.0921 26.7592 26.3551 26.7592C25.5283 26.7593 24.7509 27.0689 24.1663 27.6309C23.6451 28.132 22.8684 28.2805 22.1873 28.0093ZM30.2172 30.9783C29.8758 30.8903 29.5248 31.0851 29.4333 31.4134L28.5603 34.5457L24.9805 28.5848C25.0112 28.5575 25.0415 28.5296 25.0714 28.501C25.4143 28.1714 25.8703 27.9898 26.3552 27.9898C27.6117 27.9897 28.7344 27.2685 29.2154 26.1525C29.3228 25.9034 29.4851 25.6864 29.6893 25.5129L33.4755 31.8176L30.2172 30.9783Z" fill="#32325D"/>
<path d="M24.5816 14.1112C24.4623 13.9433 24.2646 13.843 24.0532 13.843H17.9525C17.7411 13.843 17.5433 13.9434 17.4241 14.1112L15.8989 16.257C15.7252 16.5013 15.7571 16.8299 15.9747 17.0392L20.5503 21.4381C20.6703 21.5534 20.8331 21.6183 21.0029 21.6183C21.1726 21.6183 21.3354 21.5534 21.4554 21.4381L26.031 17.0392C26.2486 16.8299 26.2805 16.5013 26.1068 16.257L24.5816 14.1112ZM21.0028 20.1328L17.2552 16.5299L18.2902 15.0737H23.7153L24.7503 16.5299L21.0028 20.1328Z" fill="#32325D"/>
<path d="M29.5158 18.7462C29.8153 17.0956 29.5965 15.4189 28.8833 13.8972C28.7381 13.5873 28.3592 13.4493 28.0368 13.5889C27.7145 13.7286 27.5709 14.0929 27.7162 14.4028C28.9656 17.0684 28.3597 20.249 26.2084 22.3171C23.338 25.0767 18.6674 25.0767 15.797 22.3171C12.9266 19.5575 12.9266 15.0673 15.797 12.3077C17.9483 10.2396 21.2564 9.65695 24.0293 10.8581C24.3517 10.9977 24.7306 10.8597 24.8758 10.5499C25.021 10.24 24.8774 9.8757 24.5552 9.73608C22.9724 9.0503 21.2282 8.84005 19.5113 9.12796C17.7545 9.42251 16.1571 10.2211 14.8919 11.4374C11.5224 14.6768 11.5224 19.9478 14.8919 23.1872C16.5767 24.8069 18.7897 25.6167 21.0028 25.6167C23.2158 25.6167 25.4288 24.8069 27.1136 23.1872C28.3789 21.971 29.2095 20.4353 29.5158 18.7462Z" fill="#32325D"/>
<path d="M26.6614 12.488C26.8297 12.488 26.9942 12.4222 27.1139 12.3077C27.2329 12.1933 27.3008 12.0346 27.3008 11.8727C27.3008 11.7102 27.2329 11.5521 27.1139 11.4377C26.9942 11.3227 26.8297 11.2574 26.6614 11.2574C26.4924 11.2574 26.3279 11.3227 26.2082 11.4377C26.0892 11.5521 26.0207 11.7103 26.0207 11.8727C26.0207 12.0346 26.0892 12.1933 26.2082 12.3077C26.3279 12.4222 26.4924 12.488 26.6614 12.488Z" fill="#32325D"/>
</svg>
