<svg width="32" height="32" viewBox="0 0 32 32" fill="none" xmlns="http://www.w3.org/2000/svg">
<circle cx="16" cy="16" r="16" fill="white"/>
<path d="M15.9999 10.9168C16.9666 10.9168 17.7499 11.7002 17.7499 12.6668C17.7499 13.6335 16.9666 14.4168 15.9999 14.4168C15.0333 14.4168 14.2499 13.6335 14.2499 12.6668C14.2499 11.7002 15.0333 10.9168 15.9999 10.9168ZM15.9999 18.4168C18.4749 18.4168 21.0833 19.6335 21.0833 20.1668V21.0835H10.9166V20.1668C10.9166 19.6335 13.5249 18.4168 15.9999 18.4168ZM15.9999 9.3335C14.1583 9.3335 12.6666 10.8252 12.6666 12.6668C12.6666 14.5085 14.1583 16.0002 15.9999 16.0002C17.8416 16.0002 19.3333 14.5085 19.3333 12.6668C19.3333 10.8252 17.8416 9.3335 15.9999 9.3335ZM15.9999 16.8335C13.7749 16.8335 9.33325 17.9502 9.33325 20.1668V22.6668H22.6666V20.1668C22.6666 17.9502 18.2249 16.8335 15.9999 16.8335Z" fill="#5585FF"/>
</svg>
