<svg width="64" height="64" viewBox="0 0 64 64" fill="none" xmlns="http://www.w3.org/2000/svg">
<path d="M32 21.3335C26.1184 21.3335 21.3334 26.1186 21.3334 32.0001C21.3334 37.8816 26.1185 42.6667 32 42.6667C37.8815 42.6667 42.6666 37.8816 42.6666 32.0001C42.6666 26.1186 37.8816 21.3335 32 21.3335ZM32 40.5335C27.2949 40.5335 23.4666 36.7052 23.4666 32.0001C23.4666 27.295 27.2949 23.4667 32 23.4667C36.7051 23.4667 40.5334 27.295 40.5334 32.0001C40.5334 36.7052 36.7051 40.5335 32 40.5335Z" fill="#32325D"/>
<path d="M16 0C12.4715 0 9.59998 2.87038 9.59998 6.4C9.59998 9.92962 12.4715 12.8 16 12.8C19.5285 12.8 22.4 9.92962 22.4 6.4C22.4 2.87038 19.5285 0 16 0ZM16 10.6666C13.6468 10.6666 11.7333 8.753 11.7333 6.4C11.7333 4.047 13.6468 2.13337 16 2.13337C18.3531 2.13337 20.2666 4.047 20.2666 6.4C20.2666 8.753 18.3531 10.6666 16 10.6666Z" fill="#32325D"/>
<path d="M45.8666 0C42.3381 0 39.4666 2.87038 39.4666 6.4C39.4666 9.92962 42.3381 12.8 45.8666 12.8C49.3951 12.8 52.2666 9.92962 52.2666 6.4C52.2666 2.87038 49.3952 0 45.8666 0ZM45.8666 10.6666C43.5134 10.6666 41.5999 8.753 41.5999 6.4C41.5999 4.047 43.5136 2.13337 45.8666 2.13337C48.2196 2.13337 50.1332 4.047 50.1332 6.4C50.1332 8.753 48.2197 10.6666 45.8666 10.6666Z" fill="#32325D"/>
<path d="M6.4 33.0667C2.8715 33.0667 0 35.937 0 39.4667C0 42.9963 2.8715 45.8667 6.4 45.8667C9.9285 45.8667 12.8 42.9963 12.8 39.4667C12.8 35.9372 9.9285 33.0667 6.4 33.0667ZM6.4 43.7334C4.04688 43.7334 2.13337 41.8198 2.13337 39.4668C2.13337 37.1137 4.047 35.2002 6.4 35.2002C8.753 35.2002 10.6666 37.1138 10.6666 39.4668C10.6666 41.8198 8.75313 43.7334 6.4 43.7334Z" fill="#32325D"/>
<path d="M38.4 51.2C34.8715 51.2 32 54.0703 32 57.5999C32 61.1296 34.8715 64 38.4 64C41.9285 64 44.8 61.1296 44.8 57.5999C44.8 54.0703 41.9285 51.2 38.4 51.2ZM38.4 61.8666C36.0469 61.8666 34.1334 59.9529 34.1334 57.5999C34.1334 55.2468 36.047 53.3333 38.4 53.3333C40.753 53.3333 42.6666 55.2469 42.6666 57.5999C42.6666 59.9531 40.7531 61.8666 38.4 61.8666Z" fill="#32325D"/>
<path d="M54.3999 35.2C52.0468 35.2 50.1333 37.1136 50.1333 39.4666C50.1333 41.8197 52.0469 43.7332 54.3999 43.7332C56.7531 43.7332 58.6666 41.8196 58.6666 39.4666C58.6666 37.1136 56.7531 35.2 54.3999 35.2ZM54.3999 41.5999C53.2234 41.5999 52.2666 40.6432 52.2666 39.4666C52.2666 38.2901 53.2233 37.3332 54.3999 37.3332C55.5766 37.3332 56.5333 38.2899 56.5333 39.4666C56.5333 40.6432 55.5764 41.5999 54.3999 41.5999Z" fill="#32325D"/>
<path d="M59.7334 11.7334C57.3803 11.7334 55.4668 13.647 55.4668 16C55.4668 18.353 57.3804 20.2666 59.7334 20.2666C62.0864 20.2666 64 18.3531 64 16C64 13.6469 62.0864 11.7334 59.7334 11.7334ZM59.7334 18.1334C58.5569 18.1334 57.6 17.1766 57.6 16C57.6 14.8235 58.5568 13.8666 59.7334 13.8666C60.91 13.8666 61.8668 14.8234 61.8668 16C61.8668 17.1766 60.9099 18.1334 59.7334 18.1334Z" fill="#32325D"/>
<path d="M18.1333 49.0667C15.7802 49.0667 13.8667 50.9803 13.8667 53.3333C13.8667 55.6863 15.7803 57.5999 18.1333 57.5999C20.4863 57.5999 22.3999 55.6863 22.3999 53.3333C22.3999 50.9803 20.4863 49.0667 18.1333 49.0667ZM18.1333 55.4667C16.9568 55.4667 15.9999 54.5099 15.9999 53.3333C15.9999 52.1567 16.9567 51.1999 18.1333 51.1999C19.3098 51.1999 20.2667 52.1567 20.2667 53.3333C20.2667 54.5099 19.3098 55.4667 18.1333 55.4667Z" fill="#32325D"/>
<path d="M37.3192 40.3447L35.2202 40.7263L37.3537 52.4601L39.4528 52.0784L37.3192 40.3447Z" fill="#32325D"/>
<path d="M21.6163 53.3709L21.0551 55.4292L32.7894 58.6292L33.3507 56.5709L21.6163 53.3709Z" fill="#32325D"/>
<path d="M23.1877 35.2355L11.4542 38.4368L12.0158 40.495L23.7493 37.2937L23.1877 35.2355Z" fill="#32325D"/>
<path d="M20.1211 10.122L18.2783 11.197L25.7454 23.9973L27.5882 22.9223L20.1211 10.122Z" fill="#32325D"/>
<path d="M42.7938 11.225L36.3973 22.9595L38.2703 23.9804L44.6668 12.246L42.7938 11.225Z" fill="#32325D"/>
<path d="M50.658 8.67989L49.5997 10.532L57.0635 14.7969L58.1218 12.9448L50.658 8.67989Z" fill="#32325D"/>
<path d="M42.1131 31.063L41.0771 32.928L50.6782 38.2611L51.7141 36.3961L42.1131 31.063Z" fill="#32325D"/>
<path d="M32 25.6001C28.4715 25.6001 25.6 28.4705 25.6 32.0001C25.6 32.59 26.0778 33.0667 26.6666 33.0667C27.2553 33.0667 27.7332 32.59 27.7332 32.0001C27.7332 29.647 29.6469 27.7335 31.9999 27.7335C32.5886 27.7335 33.0665 27.2567 33.0665 26.6668C33.0666 26.0768 32.5887 25.6001 32 25.6001Z" fill="#32325D"/>
</svg>
