<svg width="16" height="17" viewBox="0 0 16 17" fill="none" xmlns="http://www.w3.org/2000/svg">
<path d="M10.3333 10.097H9.80667L9.62 9.91701C10.2733 9.15701 10.6667 8.17034 10.6667 7.09701C10.6667 4.70367 8.72667 2.76367 6.33333 2.76367C3.94 2.76367 2 4.70367 2 7.09701C2 9.49034 3.94 11.4303 6.33333 11.4303C7.40667 11.4303 8.39333 11.037 9.15333 10.3837L9.33333 10.5703V11.097L12.6667 14.4237L13.66 13.4303L10.3333 10.097ZM6.33333 10.097C4.67333 10.097 3.33333 8.75701 3.33333 7.09701C3.33333 5.43701 4.67333 4.09701 6.33333 4.09701C7.99333 4.09701 9.33333 5.43701 9.33333 7.09701C9.33333 8.75701 7.99333 10.097 6.33333 10.097Z" fill="#32325D"/>
</svg>
