<svg width="54" height="36" viewBox="0 0 54 36" fill="none" xmlns="http://www.w3.org/2000/svg">
<g clip-path="url(#clip0)">
<path d="M54 0H0V36.0004H54V0Z" fill="#F0F0F0"/>
<path d="M30.375 0H23.625V14.6249H0V21.3749H23.625V35.9999H30.375V21.3749H54V14.6249H30.375V0Z" fill="#D80027"/>
<path d="M41.532 24.2607L54 31.1875V24.2607H41.532Z" fill="#0052B4"/>
<path d="M32.8696 24.2607L54 35.9998V32.6803L38.8449 24.2607H32.8696Z" fill="#0052B4"/>
<path d="M48.3716 35.9997L32.8696 27.3867V35.9997H48.3716Z" fill="#0052B4"/>
<path d="M32.8696 24.2607L54 35.9998V32.6803L38.8449 24.2607H32.8696Z" fill="#F0F0F0"/>
<path d="M32.8696 24.2607L54 35.9998V32.6803L38.8449 24.2607H32.8696Z" fill="#D80027"/>
<path d="M9.52815 24.2603L0 29.5537V24.2603H9.52815Z" fill="#0052B4"/>
<path d="M21.1305 25.7534V35.9998H2.68851L21.1305 25.7534Z" fill="#0052B4"/>
<path d="M15.1551 24.2607L0 32.6803V35.9998L21.1305 24.2607H15.1551Z" fill="#D80027"/>
<path d="M12.468 11.7393L0 4.8125V11.7393H12.468Z" fill="#0052B4"/>
<path d="M21.1305 11.7391L0 0V3.31952L15.1551 11.7391H21.1305Z" fill="#0052B4"/>
<path d="M5.62843 0L21.1304 8.613V0H5.62843Z" fill="#0052B4"/>
<path d="M21.1305 11.7391L0 0V3.31952L15.1551 11.7391H21.1305Z" fill="#F0F0F0"/>
<path d="M21.1305 11.7391L0 0V3.31952L15.1551 11.7391H21.1305Z" fill="#D80027"/>
<path d="M44.4718 11.7393L54 6.4458V11.7393H44.4718Z" fill="#0052B4"/>
<path d="M32.8696 10.2464V0H51.3115L32.8696 10.2464Z" fill="#0052B4"/>
<path d="M38.8449 11.7391L54 3.31952V0L32.8696 11.7391H38.8449Z" fill="#D80027"/>
</g>
<defs>
<clipPath id="clip0">
<rect width="54" height="36.0005" fill="white"/>
</clipPath>
</defs>
</svg>
