<?xml version="1.0" encoding="UTF-8" standalone="no"?>
<!DOCTYPE svg PUBLIC "-//W3C//DTD SVG 1.1//EN"
"http://www.w3.org/Graphics/SVG/1.1/DTD/svg11.dtd">


<!-- Page 1 -->
<svg x="0" y="0" width="1145" height="8166" viewBox="0 0 1145 8166" version="1.1" xmlns="http://www.w3.org/2000/svg" xmlns:xlink="http://www.w3.org/1999/xlink"
style="display: block;margin-left: auto;margin-right: auto;">
<defs>
<clipPath id="c_1"><path d="M0,0H1145V9166H0Z"/></clipPath>
<clipPath id="c0"><path d="M0,9178.1V0H1145.8V9178.1Z"/></clipPath>
<clipPath id="c1"><path d="M0,9166.7V0H1145.8V9166.7Z"/></clipPath>
<clipPath id="c2"><path d="M529.3,369.3L474.1,317.7L582,202.2l55.3,51.6l-108,115.5Z"/></clipPath>
<clipPath id="c3"><path d="M451.8,755L332.7,650.9l49.6,-56.7l119.1,104L451.8,755Z"/></clipPath>
<clipPath id="c4"><path d="M785.3,1011.5L756.5,856l74.3,-13.8l28.9,155.5l-74.4,13.8Z"/></clipPath>
<clipPath id="c5"><path d="M734.7,1312.3l-51.1,-55.8L800.1,1149.6l51.1,55.8L734.7,1312.3Z"/></clipPath>
<clipPath id="c6"><path d="M274.5,1566.9l-57.6,-48.7L319,1397.4l57.6,48.8L274.5,1566.9Z"/></clipPath>
<clipPath id="c7"><path d="M285.4,1837.6L196,1707.2l62.2,-42.7l89.4,130.4l-62.2,42.7Z"/></clipPath>
<clipPath id="c8"><path d="M542.9,2138.7L496.3,1987.6l72.2,-22.3l46.7,151.1l-72.3,22.3Z"/></clipPath>
<clipPath id="c9"><path d="M892.1,3429.4L779.2,3341.3l42.3,-54.2l112.9,88.1l-42.3,54.2Z"/></clipPath>
<clipPath id="ca"><path d="M256.9,3455.5l-58.3,-36.2l75.6,-121.7l58.3,36.2l-75.6,121.7Z"/></clipPath>
<clipPath id="cb"><path d="M542.4,3485.9L520.8,3344.3L588.6,3334l21.6,141.6l-67.8,10.3Z"/></clipPath>
<clipPath id="cc"><path d="M934.4,6962.4l-65.1,-22.3l46.4,-135.5l65,22.3l-46.3,135.5Z"/></clipPath>
<clipPath id="cd"><path d="M257.4,6978L158.9,6874l49.8,-47.2l98.5,104L257.4,6978Z"/></clipPath>
<clipPath id="ce"><path d="M553.6,6944.3L532,6802.7l67.8,-10.3L621.4,6934l-67.8,10.3Z"/></clipPath>

<style type="text/css"><![CDATA[
text { white-space: pre; }
path, image { pointer-events: none; }

.s1{
font-size: 15.28px;
font-family: OpenSans-Light_1u;
fill: #000;
}
.s2{
font-size: 15.28px;
font-family: OpenSans-Bold_1v;
fill: #000;
}
.s3{
font-size: 27.50px;
font-family: OpenSans-Bold_1v;
fill: #000;
}
.s4{
font-size: 56.18px;
font-family: Adumu_1w;
fill: #FFF;
}

.g0{
fill: #FFFFFF;
}
.g1{
fill: #598CFF;
}

]]></style>

</defs>
<path d="M0,0
L0,9166
L1145,9166
L1145,0 Z " 
fill="#FFFFFF" stroke="none"/>
<g clip-path="url(#c_1)">
<g clip-path="url(#c0)">
<path d="M0,0H1145.8V9178.1H0V0Z" class="g0"/>
</g>
<path d="M0,0H1145.8V9166.7H0V0Z" class="g0"/>
<g clip-path="url(#c1)">
<path d="M0,0H1145.8V9166.7H0V0Z" class="g0"/>
</g>
<image preserveAspectRatio="none" x="272" y="-42" width="602" height="313" xlink:href="1/img/1.png"/>
<g clip-path="url(#c2)">
<path d="M533.9,323.8c5.3,-.6,10.5,-1.1,15.8,-1.7c7.7,-.9,9.3,.4,10.1,8.2c0,.9,-.4,2,-.1,2.9c1.3,3.6,-.9,4.6,-3.7,5.2c-4.2,1,-8.5,2.2,-12.7,3c-12.2,2.3,-24.4,3.4,-36.7,3c-5,-.2,-6.5,-1,-7.6,-5.8c-1,-4.6,-1.8,-9.4,-1.7,-14.1c.1,-2.4,1.9,-5.1,3.7,-7.1c5.4,-6.1,10.7,-12.3,14.4,-19.6c4.9,-9.7,8,-19.8,8.8,-30.7c.3,-3.4,.4,-3.4,3.2,-6c5.5,9.4,4.4,19.7,3.7,31c3,-2.5,5.3,-4.2,7.4,-6.1c17.1,-15.9,32.9,-32.9,46.5,-51.8c3.4,-4.7,6.5,-9.6,7.7,-15.4c.2,-1.2,1.4,-2.3,2.7,-4.1c2.4,3.8,4.3,6.8,6.2,9.7c4,6.4,4.5,13.3,1.2,19.9c-3.8,7.6,-8,15.1,-13,21.9c-6.4,8.8,-13.5,17.2,-20.6,25.4c-9.8,11.3,-21.4,20.7,-33.5,29.5c-.7,.5,-1.4,1.1,-2,1.7c0,.3,.1,.7,.2,1Z" class="g1"/>
</g>
<image preserveAspectRatio="none" x="44" y="400" width="140" height="140" xlink:href="1/img/2.png"/>
<g clip-path="url(#c3)">
<path d="M442.4,710.3c-5.2,0,-10.5,-.1,-15.8,-.1c-7.8,-.1,-9.3,1.3,-9.2,9.1c0,1,.5,2.1,.3,3c-.9,3.7,1.4,4.4,4.2,4.8c4.4,.5,8.7,1.3,13,1.6c12.3,1.1,24.6,.9,36.8,-.7c5,-.7,6.3,-1.6,6.9,-6.5c.6,-4.7,.9,-9.5,.3,-14.2c-.3,-2.4,-2.4,-4.9,-4.3,-6.7c-6,-5.5,-11.9,-11.2,-16.3,-18.1c-5.9,-9.1,-10.1,-18.9,-11.9,-29.6c-.6,-3.4,-.7,-3.3,-3.8,-5.7c-4.5,10,-2.4,20.1,-.5,31.3c-3.3,-2.2,-5.8,-3.6,-8,-5.4C415.5,659,398,643.8,382.6,626.3c-3.8,-4.3,-7.4,-8.8,-9.2,-14.5c-.4,-1.2,-1.7,-2.1,-3.1,-3.8c-2.1,4,-3.7,7.1,-5.2,10.3c-3.3,6.7,-3.1,13.7,.8,19.9c4.5,7.1,9.5,14.1,15.1,20.5c7.3,8.1,15.2,15.7,23.1,23.1c10.9,10.3,23.4,18.4,36.3,26c.8,.4,1.5,1,2.2,1.5c0,.3,-.1,.7,-.2,1Z" class="g1"/>
</g>
<g clip-path="url(#c4)">
<path d="M825.8,966.9c2.6,-4.5,5.3,-9.1,7.9,-13.7c3.9,-6.7,5.9,-7.2,12.6,-3.2c.8,.5,1.5,1.5,2.3,1.8c3.7,1.1,3.2,3.4,2,6c-1.7,4,-3.3,8.1,-5.1,12c-5.4,11.2,-11.8,21.6,-19.4,31.3c-3.1,4,-4.7,4.6,-9.2,2.7c-4.3,-1.9,-8.6,-4.1,-12.3,-7c-1.9,-1.5,-3,-4.6,-3.6,-7.2c-1.6,-8,-3.5,-15.9,-7.2,-23.2C788.9,956.7,782.7,948.1,774.4,941c-2.6,-2.2,-2.5,-2.3,-3,-6.1c10.9,1.2,18.5,8.2,27.2,15.5c-.2,-3.9,-.2,-6.8,-.5,-9.7C795.4,917.6,791.2,894.8,784,872.6c-1.8,-5.5,-3.8,-10.9,-7.8,-15.3c-.9,-.9,-1,-2.5,-1.7,-4.6c4.6,.3,8.1,.5,11.5,.8c7.5,.5,13.4,4.3,16.7,10.8c3.9,7.5,7.4,15.4,10,23.5c3.3,10.3,5.7,21,8.1,31.7c3.3,14.6,3.9,29.4,3.8,44.4c0,.9,.2,1.8,.2,2.7c.3,.1,.7,.2,1,.3Z" class="g1"/>
</g>
<g clip-path="url(#c5)">
<path d="M742.8,1267.2c5.3,-.2,10.6,-.3,15.9,-.5c7.7,-.3,9.3,1.1,9.4,8.9c0,1,-.5,2.1,-.3,2.9c1,3.7,-1.2,4.5,-4.1,5c-4.3,.6,-8.6,1.5,-12.9,1.9c-12.3,1.4,-24.6,1.5,-36.8,.2c-5,-.5,-6.4,-1.5,-7.1,-6.4c-.7,-4.6,-1.1,-9.5,-.6,-14.1c.2,-2.4,2.3,-5,4.2,-6.8c5.8,-5.7,11.6,-11.5,15.8,-18.5c5.6,-9.2,9.6,-19.1,11.2,-29.9q.6,-3.4,3.7,-5.8c4.7,9.9,2.8,20,1.2,31.3c3.2,-2.3,5.7,-3.8,7.9,-5.6c18.2,-14.5,35.3,-30.2,50.4,-48c3.7,-4.4,7.1,-9,8.8,-14.7c.3,-1.3,1.6,-2.2,3,-4c2.2,4.1,3.8,7.1,5.5,10.2c3.4,6.7,3.4,13.7,-.4,19.9c-4.3,7.3,-9.1,14.4,-14.6,20.9c-7.1,8.3,-14.8,16.1,-22.6,23.7c-10.6,10.6,-22.9,19,-35.6,26.8c-.7,.5,-1.5,1.1,-2.2,1.6c.1,.3,.2,.7,.2,1Z" class="g1"/>
</g>
<g clip-path="url(#c6)">
<path d="M261.4,1508.2c0,-5.3,-.1,-10.6,-.1,-15.9c0,-7.8,-1.5,-9.2,-9.3,-9c-1,0,-2.1,.5,-3,.3c-3.7,-.8,-4.4,1.5,-4.7,4.3c-.5,4.4,-1.1,8.7,-1.4,13c-.9,12.3,-.5,24.6,1.3,36.8c.7,5,1.7,6.3,6.6,6.8c4.7,.5,9.6,.7,14.2,.1c2.4,-.4,4.9,-2.5,6.6,-4.5c5.4,-6.1,11,-12,17.8,-16.6c9,-6,18.8,-10.3,29.4,-12.4c3.4,-.6,3.4,-.7,5.7,-3.9c-10.1,-4.2,-20.1,-2,-31.3,0c2.1,-3.3,3.5,-5.8,5.2,-8.1c13.8,-18.7,28.8,-36.5,46,-52.2c4.3,-3.9,8.7,-7.5,14.4,-9.4c1.2,-.4,2.1,-1.7,3.8,-3.2c-4.2,-2,-7.3,-3.5,-10.5,-5c-6.8,-3.2,-13.7,-2.9,-19.8,1.1c-7.1,4.6,-14,9.7,-20.3,15.5c-8,7.4,-15.4,15.4,-22.8,23.5c-10.1,11,-18,23.7,-25.3,36.6c-.4,.8,-1,1.6,-1.5,2.3c-.3,0,-.7,-.1,-1,-.1Z" class="g1"/>
</g>
<g clip-path="url(#c7)">
<path d="M287.5,1792c-5.1,-1.4,-10.2,-2.7,-15.3,-4.1c-7.5,-2,-9.3,-1,-11.2,6.6c-.2,1,0,2.1,-.4,2.9c-1.8,3.4,.2,4.7,2.9,5.7c4.1,1.6,8,3.4,12.2,4.9c11.6,4.1,23.5,6.9,35.8,8.4c5,.6,6.5,0,8.3,-4.6c1.7,-4.4,3.2,-9,3.8,-13.6c.3,-2.4,-1.1,-5.4,-2.5,-7.6c-4.5,-6.9,-8.8,-13.8,-11.3,-21.6c-3.4,-10.3,-5.1,-20.8,-4.2,-31.6c.2,-3.5,.1,-3.5,-2.3,-6.5c-6.8,8.6,-7.3,18.9,-8.3,30.2c-2.6,-2.9,-4.6,-5,-6.4,-7.2c-14.4,-18.3,-27.6,-37.4,-38.2,-58.2c-2.6,-5.1,-4.9,-10.4,-5.2,-16.3c-.1,-1.3,-1.2,-2.5,-2.1,-4.5c-3,3.5,-5.4,6.1,-7.6,8.7c-4.9,5.7,-6.4,12.5,-4.2,19.5c2.6,8.1,5.7,16.1,9.6,23.6c5,9.7,10.8,19,16.6,28.2c8,12.6,18.1,23.6,28.7,34.1c.6,.7,1.1,1.4,1.7,2c-.1,.4,-.2,.7,-.4,1Z" class="g1"/>
</g>
<g clip-path="url(#c8)">
<path d="M578,2089.8c2.1,-4.9,4.2,-9.7,6.3,-14.6c3,-7.1,5,-7.9,12.1,-4.6c.9,.4,1.6,1.3,2.5,1.5c3.8,.6,3.6,3,2.7,5.8c-1.3,4.1,-2.3,8.4,-3.7,12.5c-4.1,11.7,-9.2,22.8,-15.7,33.3c-2.6,4.3,-4.1,5.1,-8.8,3.7c-4.5,-1.4,-9,-3.1,-13,-5.5c-2.1,-1.3,-3.5,-4.2,-4.4,-6.7c-2.6,-7.8,-5.3,-15.4,-9.8,-22.3c-6,-9,-13.2,-16.8,-22.2,-22.9c-2.9,-1.9,-2.8,-2,-3.7,-5.7c10.9,-.1,19.3,5.9,28.8,12.2c-.7,-3.9,-1,-6.7,-1.7,-9.5c-5.3,-22.7,-12.2,-44.9,-21.9,-66.1c-2.3,-5.2,-5,-10.3,-9.5,-14.2c-.9,-.9,-1.2,-2.5,-2.2,-4.5c4.6,-.2,8.1,-.4,11.6,-.5c7.5,-.3,13.7,2.7,17.8,8.8c4.7,7,9.1,14.4,12.6,22.2c4.4,9.9,8.1,20.2,11.7,30.5c5,14.1,7.3,28.8,9,43.7c.1,.9,.3,1.7,.5,2.6c.3,.1,.6,.2,1,.3Z" class="g1"/>
</g>
<image preserveAspectRatio="none" x="443" y="2293" width="259" height="259" xlink:href="1/img/3.svg"/>
<path d="M572.9,2623.6c-1.1,0,-2.1,.1,-3.2,.3c-1,.2,-2,.5,-3,.9c-1,.5,-1.9,1,-2.8,1.6c-.9,.5,-1.7,1.2,-2.5,2c-.8,.7,-1.4,1.6,-2,2.4c-.6,.9,-1.1,1.9,-1.5,2.9c-.4,.9,-.7,2,-1,3c-.2,1.1,-.3,2.1,-.3,3.2c0,1.1,.1,2.1,.3,3.2c.3,1,.6,2,1,3c.4,1,.9,1.9,1.5,2.8c.6,.9,1.2,1.7,2,2.5c.8,.8,1.6,1.4,2.5,2c.9,.6,1.8,1.1,2.8,1.5c1,.4,2,.7,3,1c1.1,.2,2.1,.3,3.2,.3c1.1,0,2.1,-.1,3.2,-.3c1,-.3,2.1,-.6,3,-1c1,-.4,2,-.9,2.9,-1.5c.8,-.6,1.7,-1.2,2.4,-2c.8,-.8,1.5,-1.6,2.1,-2.5c.5,-.9,1,-1.8,1.5,-2.8c.4,-1,.7,-2,.9,-3c.2,-1.1,.3,-2.1,.3,-3.2c0,-1.1,-.1,-2.1,-.3,-3.2c-.2,-1,-.5,-2.1,-.9,-3c-.5,-1,-1,-2,-1.5,-2.9c-.6,-.8,-1.3,-1.7,-2.1,-2.4c-.7,-.8,-1.6,-1.5,-2.4,-2c-.9,-.6,-1.9,-1.1,-2.9,-1.6c-.9,-.4,-2,-.7,-3,-.9c-1.1,-.2,-2.1,-.3,-3.2,-.3Z" class="g1"/>
<path d="M571.9,2712.2c-1.1,0,-2.1,.1,-3.2,.3c-1,.2,-2,.6,-3,1c-1,.4,-1.9,.9,-2.8,1.5c-.9,.6,-1.7,1.2,-2.5,2c-.8,.7,-1.4,1.6,-2,2.5c-.6,.8,-1.1,1.8,-1.5,2.8c-.4,1,-.7,2,-1,3c-.2,1.1,-.3,2.1,-.3,3.2c0,1.1,.1,2.1,.3,3.2c.3,1,.6,2,1,3c.4,1,.9,2,1.5,2.8c.6,.9,1.2,1.8,2,2.5c.8,.8,1.6,1.4,2.5,2c.9,.6,1.8,1.1,2.8,1.5c1,.4,2,.8,3,1c1.1,.2,2.1,.3,3.2,.3c1.1,0,2.1,-.1,3.2,-.3c1,-.2,2.1,-.6,3,-1c1,-.4,2,-.9,2.9,-1.5c.8,-.6,1.7,-1.2,2.4,-2c.8,-.7,1.5,-1.6,2.1,-2.5c.5,-.8,1,-1.8,1.5,-2.8c.4,-1,.7,-2,.9,-3c.2,-1.1,.3,-2.1,.3,-3.2c0,-1.1,-.1,-2.1,-.3,-3.2c-.2,-1,-.5,-2,-.9,-3c-.5,-1,-1,-2,-1.5,-2.8c-.6,-.9,-1.3,-1.8,-2.1,-2.5c-.7,-.8,-1.6,-1.4,-2.4,-2c-.9,-.6,-1.9,-1.1,-2.9,-1.5c-.9,-.4,-2,-.8,-3,-1c-1.1,-.2,-2.1,-.3,-3.2,-.3Z" class="g1"/>
<path d="M572.9,2805.4c-1.1,0,-2.1,.1,-3.2,.3c-1,.2,-2,.5,-3,1c-1,.4,-1.9,.9,-2.8,1.5c-.9,.6,-1.7,1.2,-2.5,2c-.8,.7,-1.4,1.6,-2,2.5c-.6,.8,-1.1,1.8,-1.5,2.8c-.4,1,-.7,2,-1,3c-.2,1.1,-.3,2.1,-.3,3.2c0,1.1,.1,2.1,.3,3.2c.3,1,.6,2,1,3c.4,1,.9,2,1.5,2.8c.6,.9,1.2,1.8,2,2.5c.8,.8,1.6,1.4,2.5,2c.9,.6,1.8,1.1,2.8,1.5c1,.4,2,.8,3,1c1.1,.2,2.1,.3,3.2,.3c1.1,0,2.1,-.1,3.2,-.3c1,-.2,2.1,-.6,3,-1c1,-.4,2,-.9,2.9,-1.5c.8,-.6,1.7,-1.2,2.4,-2c.8,-.7,1.5,-1.6,2.1,-2.5c.5,-.8,1,-1.8,1.5,-2.8c.4,-1,.7,-2,.9,-3c.2,-1.1,.3,-2.1,.3,-3.2c0,-1.1,-.1,-2.1,-.3,-3.2c-.2,-1,-.5,-2,-.9,-3c-.5,-1,-1,-2,-1.5,-2.8c-.6,-.9,-1.3,-1.8,-2.1,-2.5c-.7,-.8,-1.6,-1.4,-2.4,-2c-.9,-.6,-1.9,-1.1,-2.9,-1.5c-.9,-.5,-2,-.8,-3,-1c-1.1,-.2,-2.1,-.3,-3.2,-.3Z" class="g1"/>
<path d="M572.9,2901.7c-1.1,0,-2.1,.1,-3.2,.3c-1,.2,-2,.5,-3,.9c-1,.4,-1.9,.9,-2.8,1.5c-.9,.6,-1.7,1.3,-2.5,2c-.8,.8,-1.4,1.6,-2,2.5c-.6,.9,-1.1,1.8,-1.5,2.8c-.4,1,-.7,2,-1,3.1c-.2,1,-.3,2.1,-.3,3.1c0,1.1,.1,2.2,.3,3.2c.3,1.1,.6,2.1,1,3.1c.4,1,.9,1.9,1.5,2.8c.6,.9,1.2,1.7,2,2.5c.8,.7,1.6,1.4,2.5,2c.9,.6,1.8,1.1,2.8,1.5c1,.4,2,.7,3,.9c1.1,.2,2.1,.3,3.2,.3c1.1,0,2.1,-.1,3.2,-.3c1,-.2,2.1,-.5,3,-.9c1,-.4,2,-.9,2.9,-1.5c.8,-.6,1.7,-1.3,2.4,-2c.8,-.8,1.5,-1.6,2.1,-2.5c.5,-.9,1,-1.8,1.5,-2.8c.4,-1,.7,-2,.9,-3.1c.2,-1,.3,-2.1,.3,-3.2c0,-1,-.1,-2.1,-.3,-3.1c-.2,-1.1,-.5,-2.1,-.9,-3.1c-.5,-1,-1,-1.9,-1.5,-2.8c-.6,-.9,-1.3,-1.7,-2.1,-2.5c-.7,-.7,-1.6,-1.4,-2.4,-2c-.9,-.6,-1.9,-1.1,-2.9,-1.5c-.9,-.4,-2,-.7,-3,-.9c-1.1,-.2,-2.1,-.3,-3.2,-.3Z" class="g1"/>
<path d="M572.9,2901.7c-1.1,0,-2.1,.1,-3.2,.3c-1,.2,-2,.5,-3,.9c-1,.4,-1.9,.9,-2.8,1.5c-.9,.6,-1.7,1.3,-2.5,2c-.8,.8,-1.4,1.6,-2,2.5c-.6,.9,-1.1,1.8,-1.5,2.8c-.4,1,-.7,2,-1,3.1c-.2,1,-.3,2.1,-.3,3.1c0,1.1,.1,2.2,.3,3.2c.3,1.1,.6,2.1,1,3.1c.4,1,.9,1.9,1.5,2.8c.6,.9,1.2,1.7,2,2.5c.8,.7,1.6,1.4,2.5,2c.9,.6,1.8,1.1,2.8,1.5c1,.4,2,.7,3,.9c1.1,.2,2.1,.3,3.2,.3c1.1,0,2.1,-.1,3.2,-.3c1,-.2,2.1,-.5,3,-.9c1,-.4,2,-.9,2.9,-1.5c.8,-.6,1.7,-1.3,2.4,-2c.8,-.8,1.5,-1.6,2.1,-2.5c.5,-.9,1,-1.8,1.5,-2.8c.4,-1,.7,-2,.9,-3.1c.2,-1,.3,-2.1,.3,-3.2c0,-1,-.1,-2.1,-.3,-3.1c-.2,-1.1,-.5,-2.1,-.9,-3.1c-.5,-1,-1,-1.9,-1.5,-2.8c-.6,-.9,-1.3,-1.7,-2.1,-2.5c-.7,-.7,-1.6,-1.4,-2.4,-2c-.9,-.6,-1.9,-1.1,-2.9,-1.5c-.9,-.4,-2,-.7,-3,-.9c-1.1,-.2,-2.1,-.3,-3.2,-.3Z" class="g1"/>
<path d="M573.9,2994.9c-1.1,0,-2.1,.1,-3.2,.3c-1,.2,-2,.5,-3,.9c-1,.4,-1.9,.9,-2.8,1.5c-.9,.6,-1.7,1.3,-2.5,2c-.7,.8,-1.4,1.6,-2,2.5c-.6,.9,-1.1,1.8,-1.5,2.8c-.4,1,-.7,2,-.9,3.1c-.3,1,-.4,2.1,-.4,3.1c0,1.1,.1,2.2,.4,3.2c.2,1.1,.5,2.1,.9,3.1c.4,1,.9,1.9,1.5,2.8c.6,.9,1.3,1.7,2,2.5c.8,.7,1.6,1.4,2.5,2c.9,.6,1.8,1.1,2.8,1.5c1,.4,2,.7,3,.9c1.1,.2,2.1,.3,3.2,.3c1.1,0,2.1,-.1,3.2,-.3c1,-.2,2.1,-.5,3,-.9c1,-.4,2,-.9,2.9,-1.5c.9,-.6,1.7,-1.3,2.4,-2c.8,-.8,1.5,-1.6,2.1,-2.5c.5,-.9,1.1,-1.8,1.5,-2.8c.4,-1,.7,-2,.9,-3.1c.2,-1,.3,-2.1,.3,-3.2c0,-1,-.1,-2.1,-.3,-3.1c-.2,-1.1,-.5,-2.1,-.9,-3.1c-.4,-1,-1,-1.9,-1.5,-2.8c-.6,-.9,-1.3,-1.7,-2.1,-2.5c-.7,-.7,-1.5,-1.4,-2.4,-2c-.9,-.6,-1.9,-1.1,-2.9,-1.5c-.9,-.4,-2,-.7,-3,-.9c-1.1,-.2,-2.1,-.3,-3.2,-.3Z" class="g1"/>
<path d="M573.9,3091.1c-1.1,0,-2.1,.1,-3.2,.3c-1,.2,-2,.5,-3,.9c-1,.5,-1.9,1,-2.8,1.6c-.9,.5,-1.7,1.2,-2.5,2c-.7,.7,-1.4,1.6,-2,2.4c-.6,.9,-1.1,1.9,-1.5,2.9c-.4,.9,-.7,2,-.9,3c-.3,1.1,-.4,2.1,-.4,3.2c0,1.1,.1,2.1,.4,3.2c.2,1,.5,2,.9,3c.4,1,.9,1.9,1.5,2.8c.6,.9,1.3,1.7,2,2.5c.8,.8,1.6,1.4,2.5,2c.9,.6,1.8,1.1,2.8,1.5c1,.4,2,.7,3,1c1.1,.2,2.1,.3,3.2,.3c1.1,0,2.1,-.1,3.2,-.3c1,-.3,2.1,-.6,3,-1c1,-.4,2,-.9,2.9,-1.5c.9,-.6,1.7,-1.2,2.4,-2c.8,-.8,1.5,-1.6,2.1,-2.5c.5,-.9,1.1,-1.8,1.5,-2.8c.4,-1,.7,-2,.9,-3c.2,-1.1,.3,-2.1,.3,-3.2c0,-1.1,-.1,-2.1,-.3,-3.2c-.2,-1,-.5,-2.1,-.9,-3c-.4,-1,-1,-2,-1.5,-2.9c-.6,-.8,-1.3,-1.7,-2.1,-2.4c-.7,-.8,-1.5,-1.5,-2.4,-2c-.9,-.6,-1.9,-1.1,-2.9,-1.6c-.9,-.4,-2,-.7,-3,-.9c-1.1,-.2,-2.1,-.3,-3.2,-.3Z" class="g1"/>
<image preserveAspectRatio="none" x="159" y="3571" width="117" height="117" xlink:href="1/img/4.png"/>
<g clip-path="url(#c9)">
<path d="M892.9,3374.7c-.9,-4.7,-1.8,-9.4,-2.8,-14.1c-1.4,-6.8,-.3,-8.4,6.6,-9.7c.9,-.2,1.9,.1,2.7,-.2c3.1,-1.5,4.2,.4,5,2.9c1.2,3.7,2.6,7.5,3.7,11.3c3,10.7,4.9,21.7,5.6,32.9c.2,4.5,-.4,5.9,-4.7,7.3c-4.1,1.3,-8.3,2.4,-12.6,2.7c-2.1,.1,-4.8,-1.3,-6.7,-2.7c-5.9,-4.4,-11.9,-8.7,-18.8,-11.4c-9.1,-3.7,-18.6,-5.7,-28.4,-5.6c-3.2,.1,-3.2,0,-5.8,-2.3c8.2,-5.7,17.5,-5.6,27.8,-5.9c-2.5,-2.5,-4.2,-4.5,-6.1,-6.2c-15.7,-14.1,-32.3,-27,-50.5,-37.8c-4.5,-2.6,-9.1,-5.1,-14.5,-5.7c-1.1,-.1,-2.2,-1.1,-3.9,-2.1c3.3,-2.5,5.8,-4.5,8.3,-6.4c5.5,-4.1,11.7,-5.1,17.9,-2.7c7.1,2.8,14.2,6,20.8,9.9c8.5,5.1,16.6,10.8,24.6,16.6c11,8,20.3,17.7,29.2,27.8c.6,.7,1.2,1.2,1.8,1.8c.2,-.1,.5,-.3,.8,-.4Z" class="g1"/>
</g>
<g clip-path="url(#ca)">
<path d="M237.3,3404.5c-.7,-4.7,-1.5,-9.5,-2.2,-14.2c-1.1,-7,-2.6,-8.1,-9.6,-6.9c-.9,.1,-1.7,.8,-2.5,.7c-3.5,-.2,-3.8,1.9,-3.7,4.5c.1,3.9,.1,7.9,.4,11.8c.9,11.2,2.8,22.2,6.1,32.9c1.3,4.3,2.4,5.4,6.9,5.2c4.3,-.1,8.6,-.6,12.7,-1.8c2.1,-.6,4.1,-2.9,5.4,-4.8c4,-6.2,8.2,-12.3,13.7,-17.3c7.4,-6.5,15.5,-11.7,24.8,-14.9c3,-1.1,2.9,-1.1,4.5,-4.2c-9.5,-2.6,-18.3,.7,-28,4c1.4,-3.2,2.4,-5.6,3.6,-7.9c9.9,-18.7,21,-36.5,34.3,-52.9c3.3,-4,6.8,-7.9,11.6,-10.3c1.1,-.5,1.7,-1.8,3,-3.3c-4,-1.3,-7,-2.3,-10,-3.2c-6.6,-2,-12.7,-.8,-17.7,3.6c-5.8,5.1,-11.3,10.6,-16.1,16.5c-6.2,7.7,-11.8,15.9,-17.4,24.1c-7.5,11.2,-13,23.6,-17.8,36.2c-.3,.7,-.7,1.5,-1,2.2c-.4,0,-.7,0,-1,0Z" class="g1"/>
</g>
<g clip-path="url(#cb)">
<path d="M562.2,3449.5c-3.6,-3.1,-7.3,-6.2,-10.9,-9.3c-5.3,-4.6,-7.2,-4.5,-11.8,1c-.5,.6,-.8,1.7,-1.4,2.2c-2.9,2,-1.7,3.8,.1,5.8c2.6,2.9,5.2,5.9,8,8.7c7.9,7.9,16.5,15,26,21c3.8,2.4,5.3,2.5,8.6,-.5c3.1,-2.9,6.2,-6.1,8.5,-9.6c1.2,-1.9,1.2,-4.9,.9,-7.2c-.9,-7.4,-1.7,-14.7,-.7,-22.1c1.3,-9.7,4.1,-18.9,9.1,-27.4c1.6,-2.7,1.5,-2.8,.7,-6.2c-8.9,4.3,-13.4,12.5,-18.7,21.4c-1,-3.4,-1.8,-5.9,-2.4,-8.4c-4.6,-20.6,-7.8,-41.4,-8.3,-62.5c-.1,-5.2,.1,-10.4,2.2,-15.4c.4,-1.1,.1,-2.5,.1,-4.5c-3.9,1.6,-6.8,2.8,-9.7,4.1c-6.3,2.8,-10.2,7.7,-11.1,14.3c-1.1,7.6,-1.7,15.3,-1.5,23c.2,9.9,1.3,19.7,2.4,29.5c1.6,13.5,5.4,26.4,10,39.2c.2,.7,.4,1.5,.6,2.3c-.2,.2,-.5,.4,-.7,.6Z" class="g1"/>
</g>
<path d="M219.6,5401.1c-1.1,0,-2.1,.1,-3.2,.3c-1,.2,-2.1,.5,-3,.9c-1,.5,-2,1,-2.9,1.6c-.9,.5,-1.7,1.2,-2.4,2c-.8,.7,-1.5,1.6,-2.1,2.4c-.5,.9,-1.1,1.9,-1.5,2.9c-.4,.9,-.7,2,-.9,3c-.2,1.1,-.3,2.1,-.3,3.2c0,1.1,.1,2.1,.3,3.2c.2,1,.5,2,.9,3c.4,1,1,1.9,1.5,2.8c.6,.9,1.3,1.7,2.1,2.5c.7,.8,1.5,1.4,2.4,2c.9,.6,1.9,1.1,2.9,1.5c.9,.4,2,.7,3,1c1.1,.2,2.1,.3,3.2,.3c1.1,0,2.1,-.1,3.2,-.3c1,-.3,2,-.6,3,-1c1,-.4,1.9,-.9,2.8,-1.5c.9,-.6,1.7,-1.2,2.5,-2c.7,-.8,1.4,-1.6,2,-2.5c.6,-.9,1.1,-1.8,1.5,-2.8c.4,-1,.7,-2,.9,-3c.3,-1.1,.4,-2.1,.4,-3.2c0,-1.1,-.1,-2.1,-.4,-3.2c-.2,-1,-.5,-2.1,-.9,-3c-.4,-1,-.9,-2,-1.5,-2.9c-.6,-.8,-1.3,-1.7,-2,-2.4c-.8,-.8,-1.6,-1.5,-2.5,-2c-.9,-.6,-1.8,-1.1,-2.8,-1.6c-1,-.4,-2,-.7,-3,-.9c-1.1,-.2,-2.1,-.3,-3.2,-.3Z" class="g1"/>
<path d="M218.6,5489.7c-1.1,0,-2.1,.1,-3.2,.3c-1,.2,-2.1,.6,-3.1,1c-.9,.4,-1.9,.9,-2.8,1.5c-.9,.6,-1.7,1.2,-2.4,2c-.8,.7,-1.5,1.6,-2.1,2.5c-.6,.8,-1.1,1.8,-1.5,2.8c-.4,1,-.7,2,-.9,3c-.2,1.1,-.3,2.1,-.3,3.2c0,1.1,.1,2.1,.3,3.2c.2,1,.5,2,.9,3c.4,1,.9,2,1.5,2.8c.6,.9,1.3,1.8,2.1,2.5c.7,.8,1.5,1.4,2.4,2c.9,.6,1.9,1.1,2.8,1.5c1,.5,2.1,.8,3.1,1c1.1,.2,2.1,.3,3.2,.3c1,0,2.1,-.1,3.2,-.3c1,-.2,2,-.5,3,-1c1,-.4,1.9,-.9,2.8,-1.5c.9,-.6,1.7,-1.2,2.5,-2c.7,-.7,1.4,-1.6,2,-2.5c.6,-.8,1.1,-1.8,1.5,-2.8c.4,-1,.7,-2,.9,-3c.3,-1.1,.4,-2.1,.4,-3.2c0,-1.1,-.1,-2.1,-.4,-3.2c-.2,-1,-.5,-2,-.9,-3c-.4,-1,-.9,-2,-1.5,-2.8c-.6,-.9,-1.3,-1.8,-2,-2.5c-.8,-.8,-1.6,-1.4,-2.5,-2c-.9,-.6,-1.8,-1.1,-2.8,-1.5c-1,-.4,-2,-.8,-3,-1c-1.1,-.2,-2.2,-.3,-3.2,-.3Z" class="g1"/>
<path d="M219.6,5582.9c-1.1,0,-2.1,.1,-3.2,.3c-1,.2,-2.1,.5,-3,1c-1,.4,-2,.9,-2.9,1.5c-.9,.6,-1.7,1.2,-2.4,2c-.8,.7,-1.5,1.6,-2.1,2.5c-.5,.8,-1.1,1.8,-1.5,2.8c-.4,1,-.7,2,-.9,3c-.2,1.1,-.3,2.1,-.3,3.2c0,1.1,.1,2.1,.3,3.2c.2,1,.5,2,.9,3c.4,1,1,2,1.5,2.8c.6,.9,1.3,1.8,2.1,2.5c.7,.8,1.5,1.4,2.4,2c.9,.6,1.9,1.1,2.9,1.5c.9,.4,2,.8,3,1c1.1,.2,2.1,.3,3.2,.3c1.1,0,2.1,-.1,3.2,-.3c1,-.2,2,-.6,3,-1c1,-.4,1.9,-.9,2.8,-1.5c.9,-.6,1.7,-1.2,2.5,-2c.7,-.7,1.4,-1.6,2,-2.5c.6,-.8,1.1,-1.8,1.5,-2.8c.4,-1,.7,-2,.9,-3c.3,-1.1,.4,-2.1,.4,-3.2c0,-1.1,-.1,-2.1,-.4,-3.2c-.2,-1,-.5,-2,-.9,-3c-.4,-1,-.9,-2,-1.5,-2.8c-.6,-.9,-1.3,-1.8,-2,-2.5c-.8,-.8,-1.6,-1.4,-2.5,-2c-.9,-.6,-1.8,-1.1,-2.8,-1.5c-1,-.5,-2,-.8,-3,-1c-1.1,-.2,-2.1,-.3,-3.2,-.3Z" class="g1"/>
<path d="M219.6,5679.2c-1.1,0,-2.1,.1,-3.2,.3c-1,.2,-2.1,.5,-3,.9c-1,.4,-2,.9,-2.9,1.5c-.9,.6,-1.7,1.3,-2.4,2c-.8,.8,-1.5,1.6,-2.1,2.5c-.5,.9,-1.1,1.8,-1.5,2.8c-.4,1,-.7,2,-.9,3.1c-.2,1,-.3,2.1,-.3,3.1c0,1.1,.1,2.2,.3,3.2c.2,1.1,.5,2.1,.9,3.1c.4,1,1,1.9,1.5,2.8c.6,.9,1.3,1.7,2.1,2.5c.7,.7,1.5,1.4,2.4,2c.9,.6,1.9,1.1,2.9,1.5c.9,.4,2,.7,3,.9c1.1,.2,2.1,.3,3.2,.3c1.1,0,2.1,-.1,3.2,-.3c1,-.2,2,-.5,3,-.9c1,-.4,1.9,-.9,2.8,-1.5c.9,-.6,1.7,-1.3,2.5,-2c.7,-.8,1.4,-1.6,2,-2.5c.6,-.9,1.1,-1.8,1.5,-2.8c.4,-1,.7,-2,.9,-3.1c.3,-1,.4,-2.1,.4,-3.2c0,-1,-.1,-2.1,-.4,-3.1c-.2,-1.1,-.5,-2.1,-.9,-3.1c-.4,-1,-.9,-1.9,-1.5,-2.8c-.6,-.9,-1.3,-1.7,-2,-2.5c-.8,-.7,-1.6,-1.4,-2.5,-2c-.9,-.6,-1.8,-1.1,-2.8,-1.5c-1,-.4,-2,-.7,-3,-.9c-1.1,-.2,-2.1,-.3,-3.2,-.3Z" class="g1"/>
<path d="M219.6,5679.2c-1.1,0,-2.1,.1,-3.2,.3c-1,.2,-2.1,.5,-3,.9c-1,.4,-2,.9,-2.9,1.5c-.9,.6,-1.7,1.3,-2.4,2c-.8,.8,-1.5,1.6,-2.1,2.5c-.5,.9,-1.1,1.8,-1.5,2.8c-.4,1,-.7,2,-.9,3.1c-.2,1,-.3,2.1,-.3,3.1c0,1.1,.1,2.2,.3,3.2c.2,1.1,.5,2.1,.9,3.1c.4,1,1,1.9,1.5,2.8c.6,.9,1.3,1.7,2.1,2.5c.7,.7,1.5,1.4,2.4,2c.9,.6,1.9,1.1,2.9,1.5c.9,.4,2,.7,3,.9c1.1,.2,2.1,.3,3.2,.3c1.1,0,2.1,-.1,3.2,-.3c1,-.2,2,-.5,3,-.9c1,-.4,1.9,-.9,2.8,-1.5c.9,-.6,1.7,-1.3,2.5,-2c.7,-.8,1.4,-1.6,2,-2.5c.6,-.9,1.1,-1.8,1.5,-2.8c.4,-1,.7,-2,.9,-3.1c.3,-1,.4,-2.1,.4,-3.2c0,-1,-.1,-2.1,-.4,-3.1c-.2,-1.1,-.5,-2.1,-.9,-3.1c-.4,-1,-.9,-1.9,-1.5,-2.8c-.6,-.9,-1.3,-1.7,-2,-2.5c-.8,-.7,-1.6,-1.4,-2.5,-2c-.9,-.6,-1.8,-1.1,-2.8,-1.5c-1,-.4,-2,-.7,-3,-.9c-1.1,-.2,-2.1,-.3,-3.2,-.3Z" class="g1"/>
<path d="M220.6,5772.4c-1.1,0,-2.1,.1,-3.2,.3c-1,.2,-2.1,.5,-3,.9c-1,.4,-2,.9,-2.9,1.5c-.9,.6,-1.7,1.3,-2.4,2c-.8,.8,-1.5,1.6,-2.1,2.5c-.5,.9,-1,1.8,-1.5,2.8c-.4,1,-.7,2,-.9,3.1c-.2,1,-.3,2.1,-.3,3.1c0,1.1,.1,2.2,.3,3.2c.2,1.1,.5,2.1,.9,3.1c.5,1,1,1.9,1.5,2.8c.6,.9,1.3,1.7,2.1,2.5c.7,.7,1.5,1.4,2.4,2c.9,.6,1.9,1.1,2.9,1.5c.9,.4,2,.7,3,.9c1.1,.2,2.1,.3,3.2,.3c1.1,0,2.1,-.1,3.2,-.3c1,-.2,2,-.5,3,-.9c1,-.4,1.9,-.9,2.8,-1.5c.9,-.6,1.7,-1.3,2.5,-2c.8,-.8,1.4,-1.6,2,-2.5c.6,-.9,1.1,-1.8,1.5,-2.8c.4,-1,.7,-2,1,-3.1c.2,-1,.3,-2.1,.3,-3.2c0,-1,-.1,-2.1,-.3,-3.1c-.3,-1.1,-.6,-2.1,-1,-3.1c-.4,-1,-.9,-1.9,-1.5,-2.8c-.6,-.9,-1.2,-1.7,-2,-2.5c-.8,-.7,-1.6,-1.4,-2.5,-2c-.9,-.6,-1.8,-1.1,-2.8,-1.5c-1,-.4,-2,-.7,-3,-.9c-1.1,-.2,-2.1,-.3,-3.2,-.3Z" class="g1"/>
<path d="M220.6,5868.6c-1.1,0,-2.1,.1,-3.2,.3c-1,.2,-2.1,.5,-3,.9c-1,.5,-2,1,-2.9,1.6c-.9,.5,-1.7,1.2,-2.4,2c-.8,.7,-1.5,1.6,-2.1,2.4c-.5,.9,-1,1.9,-1.5,2.9c-.4,.9,-.7,2,-.9,3c-.2,1.1,-.3,2.1,-.3,3.2c0,1.1,.1,2.1,.3,3.2c.2,1,.5,2,.9,3c.5,1,1,1.9,1.5,2.8c.6,.9,1.3,1.7,2.1,2.5c.7,.8,1.5,1.4,2.4,2c.9,.6,1.9,1.1,2.9,1.5c.9,.4,2,.7,3,1c1.1,.2,2.1,.3,3.2,.3c1.1,0,2.1,-.1,3.2,-.3c1,-.3,2,-.6,3,-1c1,-.4,1.9,-.9,2.8,-1.5c.9,-.6,1.7,-1.2,2.5,-2c.8,-.8,1.4,-1.6,2,-2.5c.6,-.9,1.1,-1.8,1.5,-2.8c.4,-1,.7,-2,1,-3c.2,-1.1,.3,-2.1,.3,-3.2c0,-1.1,-.1,-2.1,-.3,-3.2c-.3,-1,-.6,-2.1,-1,-3c-.4,-1,-.9,-2,-1.5,-2.9c-.6,-.8,-1.2,-1.7,-2,-2.4c-.8,-.8,-1.6,-1.5,-2.5,-2c-.9,-.6,-1.8,-1.1,-2.8,-1.6c-1,-.4,-2,-.7,-3,-.9c-1.1,-.2,-2.1,-.3,-3.2,-.3Z" class="g1"/>
<path d="M221.6,5868.6c-1.1,0,-2.1,.1,-3.2,.3c-1,.2,-2.1,.5,-3,.9c-1,.5,-2,1,-2.9,1.6c-.8,.5,-1.7,1.2,-2.4,2c-.8,.7,-1.5,1.6,-2.1,2.4c-.5,.9,-1,1.9,-1.5,2.9c-.4,.9,-.7,2,-.9,3c-.2,1.1,-.3,2.1,-.3,3.2c0,1.1,.1,2.1,.3,3.2c.2,1,.5,2,.9,3c.5,1,1,1.9,1.5,2.8c.6,.9,1.3,1.7,2.1,2.5c.7,.8,1.6,1.4,2.4,2c.9,.6,1.9,1.1,2.9,1.5c.9,.4,2,.7,3,1c1.1,.2,2.1,.3,3.2,.3c1.1,0,2.1,-.1,3.2,-.3c1,-.3,2,-.6,3,-1c1,-.4,1.9,-.9,2.8,-1.5c.9,-.6,1.7,-1.2,2.5,-2c.8,-.8,1.4,-1.6,2,-2.5c.6,-.9,1.1,-1.8,1.5,-2.8c.4,-1,.7,-2,1,-3c.2,-1.1,.3,-2.1,.3,-3.2c0,-1.1,-.1,-2.1,-.3,-3.2c-.3,-1,-.6,-2.1,-1,-3c-.4,-1,-.9,-2,-1.5,-2.9c-.6,-.8,-1.2,-1.7,-2,-2.4c-.8,-.8,-1.6,-1.5,-2.5,-2c-.9,-.6,-1.8,-1.1,-2.8,-1.6c-1,-.4,-2,-.7,-3,-.9c-1.1,-.2,-2.1,-.3,-3.2,-.3Z" class="g1"/>
<path d="M220.6,5957.2c-1.1,0,-2.1,.1,-3.2,.3c-1,.2,-2.1,.6,-3,1c-1,.4,-2,.9,-2.9,1.5c-.9,.6,-1.7,1.2,-2.4,2c-.8,.7,-1.5,1.6,-2.1,2.5c-.5,.8,-1,1.8,-1.5,2.8c-.4,1,-.7,2,-.9,3c-.2,1.1,-.3,2.1,-.3,3.2c0,1.1,.1,2.1,.3,3.2c.2,1,.5,2,.9,3c.5,1,1,2,1.5,2.8c.6,.9,1.3,1.8,2.1,2.5c.7,.8,1.5,1.4,2.4,2c.9,.6,1.9,1.1,2.9,1.5c.9,.5,2,.8,3,1c1.1,.2,2.1,.3,3.2,.3c1.1,0,2.1,-.1,3.2,-.3c1,-.2,2,-.5,3,-1c1,-.4,1.9,-.9,2.8,-1.5c.9,-.6,1.7,-1.2,2.5,-2c.8,-.7,1.4,-1.6,2,-2.5c.6,-.8,1.1,-1.8,1.5,-2.8c.4,-1,.7,-2,1,-3c.2,-1.1,.3,-2.1,.3,-3.2c0,-1.1,-.1,-2.1,-.3,-3.2c-.3,-1,-.6,-2,-1,-3c-.4,-1,-.9,-2,-1.5,-2.8c-.6,-.9,-1.2,-1.8,-2,-2.5c-.8,-.8,-1.6,-1.4,-2.5,-2c-.9,-.6,-1.8,-1.1,-2.8,-1.5c-1,-.4,-2,-.8,-3,-1c-1.1,-.2,-2.1,-.3,-3.2,-.3Z" class="g1"/>
<path d="M221.6,6050.4c-1.1,0,-2.1,.1,-3.2,.3c-1,.2,-2.1,.5,-3,1c-1,.4,-2,.9,-2.9,1.5c-.8,.6,-1.7,1.2,-2.4,2c-.8,.7,-1.5,1.6,-2.1,2.5c-.5,.8,-1,1.8,-1.5,2.8c-.4,1,-.7,2,-.9,3c-.2,1.1,-.3,2.1,-.3,3.2c0,1.1,.1,2.1,.3,3.2c.2,1,.5,2,.9,3c.5,1,1,2,1.5,2.8c.6,.9,1.3,1.8,2.1,2.5c.7,.8,1.6,1.4,2.4,2c.9,.6,1.9,1.1,2.9,1.5c.9,.4,2,.8,3,1c1.1,.2,2.1,.3,3.2,.3c1.1,0,2.1,-.1,3.2,-.3c1,-.2,2,-.6,3,-1c1,-.4,1.9,-.9,2.8,-1.5c.9,-.6,1.7,-1.2,2.5,-2c.8,-.7,1.4,-1.6,2,-2.5c.6,-.8,1.1,-1.8,1.5,-2.8c.4,-1,.7,-2,1,-3c.2,-1.1,.3,-2.1,.3,-3.2c0,-1.1,-.1,-2.1,-.3,-3.2c-.3,-1,-.6,-2,-1,-3c-.4,-1,-.9,-2,-1.5,-2.8c-.6,-.9,-1.2,-1.8,-2,-2.5c-.8,-.8,-1.6,-1.4,-2.5,-2c-.9,-.6,-1.8,-1.1,-2.8,-1.5c-1,-.5,-2,-.8,-3,-1c-1.1,-.2,-2.1,-.3,-3.2,-.3Z" class="g1"/>
<path d="M221.6,6146.7c-1.1,0,-2.1,.1,-3.2,.3c-1,.2,-2.1,.5,-3,.9c-1,.4,-2,.9,-2.9,1.5c-.8,.6,-1.7,1.3,-2.4,2c-.8,.8,-1.5,1.6,-2.1,2.5c-.5,.9,-1,1.8,-1.5,2.8c-.4,1,-.7,2,-.9,3.1c-.2,1,-.3,2.1,-.3,3.1c0,1.1,.1,2.2,.3,3.2c.2,1.1,.5,2.1,.9,3.1c.5,1,1,1.9,1.5,2.8c.6,.9,1.3,1.7,2.1,2.5c.7,.7,1.6,1.4,2.4,2c.9,.6,1.9,1.1,2.9,1.5c.9,.4,2,.7,3,.9c1.1,.2,2.1,.3,3.2,.3c1.1,0,2.1,-.1,3.2,-.3c1,-.2,2,-.5,3,-.9c1,-.4,1.9,-.9,2.8,-1.5c.9,-.6,1.7,-1.3,2.5,-2c.8,-.8,1.4,-1.6,2,-2.5c.6,-.9,1.1,-1.8,1.5,-2.8c.4,-1,.7,-2,1,-3.1c.2,-1,.3,-2.1,.3,-3.2c0,-1,-.1,-2.1,-.3,-3.1c-.3,-1.1,-.6,-2.1,-1,-3.1c-.4,-1,-.9,-1.9,-1.5,-2.8c-.6,-.9,-1.2,-1.7,-2,-2.5c-.8,-.7,-1.6,-1.4,-2.5,-2c-.9,-.6,-1.8,-1.1,-2.8,-1.5c-1,-.4,-2,-.7,-3,-.9c-1.1,-.2,-2.1,-.3,-3.2,-.3Z" class="g1"/>
<path d="M221.6,6146.7c-1.1,0,-2.1,.1,-3.2,.3c-1,.2,-2.1,.5,-3,.9c-1,.4,-2,.9,-2.9,1.5c-.8,.6,-1.7,1.3,-2.4,2c-.8,.8,-1.5,1.6,-2.1,2.5c-.5,.9,-1,1.8,-1.5,2.8c-.4,1,-.7,2,-.9,3.1c-.2,1,-.3,2.1,-.3,3.1c0,1.1,.1,2.2,.3,3.2c.2,1.1,.5,2.1,.9,3.1c.5,1,1,1.9,1.5,2.8c.6,.9,1.3,1.7,2.1,2.5c.7,.7,1.6,1.4,2.4,2c.9,.6,1.9,1.1,2.9,1.5c.9,.4,2,.7,3,.9c1.1,.2,2.1,.3,3.2,.3c1.1,0,2.1,-.1,3.2,-.3c1,-.2,2,-.5,3,-.9c1,-.4,1.9,-.9,2.8,-1.5c.9,-.6,1.7,-1.3,2.5,-2c.8,-.8,1.4,-1.6,2,-2.5c.6,-.9,1.1,-1.8,1.5,-2.8c.4,-1,.7,-2,1,-3.1c.2,-1,.3,-2.1,.3,-3.2c0,-1,-.1,-2.1,-.3,-3.1c-.3,-1.1,-.6,-2.1,-1,-3.1c-.4,-1,-.9,-1.9,-1.5,-2.8c-.6,-.9,-1.2,-1.7,-2,-2.5c-.8,-.7,-1.6,-1.4,-2.5,-2c-.9,-.6,-1.8,-1.1,-2.8,-1.5c-1,-.4,-2,-.7,-3,-.9c-1.1,-.2,-2.1,-.3,-3.2,-.3Z" class="g1"/>
<path d="M222.6,6239.9c-1.1,0,-2.1,.1,-3.2,.3c-1,.2,-2.1,.5,-3,.9c-1,.4,-2,.9,-2.9,1.5c-.8,.6,-1.7,1.3,-2.4,2c-.8,.8,-1.5,1.6,-2,2.5c-.6,.9,-1.1,1.8,-1.6,2.8c-.4,1,-.7,2,-.9,3.1c-.2,1,-.3,2.1,-.3,3.1c0,1.1,.1,2.2,.3,3.2c.2,1.1,.5,2.1,.9,3.1c.5,1,1,1.9,1.6,2.8c.5,.9,1.2,1.7,2,2.5c.7,.7,1.6,1.4,2.4,2c.9,.6,1.9,1.1,2.9,1.5c.9,.4,2,.7,3,.9c1.1,.2,2.1,.3,3.2,.3c1.1,0,2.1,-.1,3.2,-.3c1,-.2,2,-.5,3,-.9c1,-.4,1.9,-.9,2.8,-1.5c.9,-.6,1.7,-1.3,2.5,-2c.8,-.8,1.4,-1.6,2,-2.5c.6,-.9,1.1,-1.8,1.5,-2.8c.4,-1,.7,-2,1,-3.1c.2,-1,.3,-2.1,.3,-3.2c0,-1,-.1,-2.1,-.3,-3.1c-.3,-1.1,-.6,-2.1,-1,-3.1c-.4,-1,-.9,-1.9,-1.5,-2.8c-.6,-.9,-1.2,-1.7,-2,-2.5c-.8,-.7,-1.6,-1.4,-2.5,-2c-.9,-.6,-1.8,-1.1,-2.8,-1.5c-1,-.4,-2,-.7,-3,-.9c-1.1,-.2,-2.1,-.3,-3.2,-.3Z" class="g1"/>
<path d="M222.6,6336.1c-1.1,0,-2.1,.1,-3.2,.3c-1,.2,-2.1,.5,-3,.9c-1,.5,-2,1,-2.9,1.6c-.8,.5,-1.7,1.2,-2.4,2c-.8,.7,-1.5,1.6,-2,2.4c-.6,.9,-1.1,1.9,-1.6,2.9c-.4,.9,-.7,2,-.9,3c-.2,1.1,-.3,2.1,-.3,3.2c0,1.1,.1,2.1,.3,3.2c.2,1,.5,2,.9,3c.5,1,1,1.9,1.6,2.8c.5,.9,1.2,1.7,2,2.5c.7,.8,1.6,1.4,2.4,2c.9,.6,1.9,1.1,2.9,1.5c.9,.4,2,.7,3,1c1.1,.2,2.1,.3,3.2,.3c1.1,0,2.1,-.1,3.2,-.3c1,-.3,2,-.6,3,-1c1,-.4,1.9,-.9,2.8,-1.5c.9,-.6,1.7,-1.2,2.5,-2c.8,-.8,1.4,-1.6,2,-2.5c.6,-.9,1.1,-1.8,1.5,-2.8c.4,-1,.7,-2,1,-3c.2,-1.1,.3,-2.1,.3,-3.2c0,-1.1,-.1,-2.1,-.3,-3.2c-.3,-1,-.6,-2.1,-1,-3c-.4,-1,-.9,-2,-1.5,-2.9c-.6,-.8,-1.2,-1.7,-2,-2.4c-.8,-.8,-1.6,-1.5,-2.5,-2c-.9,-.6,-1.8,-1.1,-2.8,-1.6c-1,-.4,-2,-.7,-3,-.9c-1.1,-.2,-2.1,-.3,-3.2,-.3Z" class="g1"/>
<path d="M581.8,6239.9c-1.1,0,-2.1,.1,-3.2,.3c-1,.2,-2,.5,-3,.9c-1,.4,-1.9,.9,-2.8,1.5c-.9,.6,-1.7,1.3,-2.5,2c-.8,.8,-1.4,1.6,-2,2.5c-.6,.9,-1.1,1.8,-1.5,2.8c-.4,1,-.7,2,-1,3.1c-.2,1,-.3,2.1,-.3,3.1c0,1.1,.1,2.2,.3,3.2c.3,1.1,.6,2.1,1,3.1c.4,1,.9,1.9,1.5,2.8c.6,.9,1.2,1.7,2,2.5c.8,.7,1.6,1.4,2.5,2c.9,.6,1.8,1.1,2.8,1.5c1,.4,2,.7,3,.9c1.1,.2,2.1,.3,3.2,.3c1.1,0,2.1,-.1,3.2,-.3c1,-.2,2.1,-.5,3,-.9c1,-.4,2,-.9,2.9,-1.5c.8,-.6,1.7,-1.3,2.4,-2c.8,-.8,1.5,-1.6,2,-2.5c.6,-.9,1.1,-1.8,1.5,-2.8c.5,-1,.8,-2,1,-3.1c.2,-1,.3,-2.1,.3,-3.2c0,-1,-.1,-2.1,-.3,-3.1c-.2,-1.1,-.5,-2.1,-1,-3.1c-.4,-1,-.9,-1.9,-1.5,-2.8c-.5,-.9,-1.2,-1.7,-2,-2.5c-.7,-.7,-1.6,-1.4,-2.4,-2c-.9,-.6,-1.9,-1.1,-2.9,-1.5c-.9,-.4,-2,-.7,-3,-.9c-1.1,-.2,-2.1,-.3,-3.2,-.3Z" class="g1"/>
<path d="M581.8,6336.1c-1.1,0,-2.1,.1,-3.2,.3c-1,.2,-2,.5,-3,.9c-1,.5,-1.9,1,-2.8,1.6c-.9,.5,-1.7,1.2,-2.5,2c-.8,.7,-1.4,1.6,-2,2.4c-.6,.9,-1.1,1.9,-1.5,2.9c-.4,.9,-.7,2,-1,3c-.2,1.1,-.3,2.1,-.3,3.2c0,1.1,.1,2.1,.3,3.2c.3,1,.6,2,1,3c.4,1,.9,1.9,1.5,2.8c.6,.9,1.2,1.7,2,2.5c.8,.8,1.6,1.4,2.5,2c.9,.6,1.8,1.1,2.8,1.5c1,.4,2,.7,3,1c1.1,.2,2.1,.3,3.2,.3c1.1,0,2.1,-.1,3.2,-.3c1,-.3,2.1,-.6,3,-1c1,-.4,2,-.9,2.9,-1.5c.8,-.6,1.7,-1.2,2.4,-2c.8,-.8,1.5,-1.6,2,-2.5c.6,-.9,1.1,-1.8,1.5,-2.8c.5,-1,.8,-2,1,-3c.2,-1.1,.3,-2.1,.3,-3.2c0,-1.1,-.1,-2.1,-.3,-3.2c-.2,-1,-.5,-2.1,-1,-3c-.4,-1,-.9,-2,-1.5,-2.9c-.5,-.8,-1.2,-1.7,-2,-2.4c-.7,-.8,-1.6,-1.5,-2.4,-2c-.9,-.6,-1.9,-1.1,-2.9,-1.6c-.9,-.4,-2,-.7,-3,-.9c-1.1,-.2,-2.1,-.3,-3.2,-.3Z" class="g1"/>
<path d="M931.7,6050.4c-1,0,-2.1,.1,-3.2,.3c-1,.2,-2,.5,-3,1c-1,.4,-1.9,.9,-2.8,1.5c-.9,.6,-1.7,1.2,-2.5,2c-.7,.7,-1.4,1.6,-2,2.5c-.6,.8,-1.1,1.8,-1.5,2.8c-.4,1,-.7,2,-.9,3c-.3,1.1,-.4,2.1,-.4,3.2c0,1.1,.1,2.1,.4,3.2c.2,1,.5,2,.9,3c.4,1,.9,2,1.5,2.8c.6,.9,1.3,1.8,2,2.5c.8,.8,1.6,1.4,2.5,2c.9,.6,1.8,1.1,2.8,1.5c1,.4,2,.8,3,1c1.1,.2,2.2,.3,3.2,.3c1.1,0,2.2,-.1,3.2,-.3c1,-.2,2.1,-.6,3.1,-1c.9,-.4,1.9,-.9,2.8,-1.5c.9,-.6,1.7,-1.2,2.4,-2c.8,-.7,1.5,-1.6,2.1,-2.5c.6,-.8,1.1,-1.8,1.5,-2.8c.4,-1,.7,-2,.9,-3c.2,-1.1,.3,-2.1,.3,-3.2c0,-1.1,-.1,-2.1,-.3,-3.2c-.2,-1,-.5,-2,-.9,-3c-.4,-1,-.9,-2,-1.5,-2.8c-.6,-.9,-1.3,-1.8,-2.1,-2.5c-.7,-.8,-1.5,-1.4,-2.4,-2c-.9,-.6,-1.9,-1.1,-2.8,-1.5c-1,-.5,-2.1,-.8,-3.1,-1c-1,-.2,-2.1,-.3,-3.2,-.3Z" class="g1"/>
<path d="M931.7,6146.7c-1,0,-2.1,.1,-3.2,.3c-1,.2,-2,.5,-3,.9c-1,.4,-1.9,.9,-2.8,1.5c-.9,.6,-1.7,1.3,-2.5,2c-.7,.8,-1.4,1.6,-2,2.5c-.6,.9,-1.1,1.8,-1.5,2.8c-.4,1,-.7,2,-.9,3.1c-.3,1,-.4,2.1,-.4,3.1c0,1.1,.1,2.2,.4,3.2c.2,1.1,.5,2.1,.9,3.1c.4,1,.9,1.9,1.5,2.8c.6,.9,1.3,1.7,2,2.5c.8,.7,1.6,1.4,2.5,2c.9,.6,1.8,1.1,2.8,1.5c1,.4,2,.7,3,.9c1.1,.2,2.2,.3,3.2,.3c1.1,0,2.2,-.1,3.2,-.3c1,-.2,2.1,-.5,3.1,-.9c.9,-.4,1.9,-.9,2.8,-1.5c.9,-.6,1.7,-1.3,2.4,-2c.8,-.8,1.5,-1.6,2.1,-2.5c.6,-.9,1.1,-1.8,1.5,-2.8c.4,-1,.7,-2,.9,-3.1c.2,-1,.3,-2.1,.3,-3.2c0,-1,-.1,-2.1,-.3,-3.1c-.2,-1.1,-.5,-2.1,-.9,-3.1c-.4,-1,-.9,-1.9,-1.5,-2.8c-.6,-.9,-1.3,-1.7,-2.1,-2.5c-.7,-.7,-1.5,-1.4,-2.4,-2c-.9,-.6,-1.9,-1.1,-2.8,-1.5c-1,-.4,-2.1,-.7,-3.1,-.9c-1,-.2,-2.1,-.3,-3.2,-.3Z" class="g1"/>
<path d="M931.7,6146.7c-1,0,-2.1,.1,-3.2,.3c-1,.2,-2,.5,-3,.9c-1,.4,-1.9,.9,-2.8,1.5c-.9,.6,-1.7,1.3,-2.5,2c-.7,.8,-1.4,1.6,-2,2.5c-.6,.9,-1.1,1.8,-1.5,2.8c-.4,1,-.7,2,-.9,3.1c-.3,1,-.4,2.1,-.4,3.1c0,1.1,.1,2.2,.4,3.2c.2,1.1,.5,2.1,.9,3.1c.4,1,.9,1.9,1.5,2.8c.6,.9,1.3,1.7,2,2.5c.8,.7,1.6,1.4,2.5,2c.9,.6,1.8,1.1,2.8,1.5c1,.4,2,.7,3,.9c1.1,.2,2.2,.3,3.2,.3c1.1,0,2.2,-.1,3.2,-.3c1,-.2,2.1,-.5,3.1,-.9c.9,-.4,1.9,-.9,2.8,-1.5c.9,-.6,1.7,-1.3,2.4,-2c.8,-.8,1.5,-1.6,2.1,-2.5c.6,-.9,1.1,-1.8,1.5,-2.8c.4,-1,.7,-2,.9,-3.1c.2,-1,.3,-2.1,.3,-3.2c0,-1,-.1,-2.1,-.3,-3.1c-.2,-1.1,-.5,-2.1,-.9,-3.1c-.4,-1,-.9,-1.9,-1.5,-2.8c-.6,-.9,-1.3,-1.7,-2.1,-2.5c-.7,-.7,-1.5,-1.4,-2.4,-2c-.9,-.6,-1.9,-1.1,-2.8,-1.5c-1,-.4,-2.1,-.7,-3.1,-.9c-1,-.2,-2.1,-.3,-3.2,-.3Z" class="g1"/>
<path d="M932.7,6239.9c-1,0,-2.1,.1,-3.2,.3c-1,.2,-2,.5,-3,.9c-1,.4,-1.9,.9,-2.8,1.5c-.9,.6,-1.7,1.3,-2.5,2c-.7,.8,-1.4,1.6,-2,2.5c-.6,.9,-1.1,1.8,-1.5,2.8c-.4,1,-.7,2,-.9,3.1c-.3,1,-.4,2.1,-.4,3.1c0,1.1,.1,2.2,.4,3.2c.2,1.1,.5,2.1,.9,3.1c.4,1,.9,1.9,1.5,2.8c.6,.9,1.3,1.7,2,2.5c.8,.7,1.6,1.4,2.5,2c.9,.6,1.8,1.1,2.8,1.5c1,.4,2,.7,3,.9c1.1,.2,2.2,.3,3.2,.3c1.1,0,2.2,-.1,3.2,-.3c1,-.2,2.1,-.5,3.1,-.9c.9,-.4,1.9,-.9,2.8,-1.5c.9,-.6,1.7,-1.3,2.4,-2c.8,-.8,1.5,-1.6,2.1,-2.5c.6,-.9,1.1,-1.8,1.5,-2.8c.4,-1,.7,-2,.9,-3.1c.2,-1,.3,-2.1,.3,-3.2c0,-1,-.1,-2.1,-.3,-3.1c-.2,-1.1,-.5,-2.1,-.9,-3.1c-.4,-1,-.9,-1.9,-1.5,-2.8c-.6,-.9,-1.3,-1.7,-2.1,-2.5c-.7,-.7,-1.5,-1.4,-2.4,-2c-.9,-.6,-1.9,-1.1,-2.8,-1.5c-1,-.4,-2.1,-.7,-3.1,-.9c-1,-.2,-2.1,-.3,-3.2,-.3Z" class="g1"/>
<path d="M932.7,6336.1c-1,0,-2.1,.1,-3.2,.3c-1,.2,-2,.5,-3,.9c-1,.5,-1.9,1,-2.8,1.6c-.9,.5,-1.7,1.2,-2.5,2c-.7,.7,-1.4,1.6,-2,2.4c-.6,.9,-1.1,1.9,-1.5,2.9c-.4,.9,-.7,2,-.9,3c-.3,1.1,-.4,2.1,-.4,3.2c0,1.1,.1,2.1,.4,3.2c.2,1,.5,2,.9,3c.4,1,.9,1.9,1.5,2.8c.6,.9,1.3,1.7,2,2.5c.8,.8,1.6,1.4,2.5,2c.9,.6,1.8,1.1,2.8,1.5c1,.4,2,.7,3,1c1.1,.2,2.2,.3,3.2,.3c1.1,0,2.2,-.1,3.2,-.3c1,-.3,2.1,-.6,3.1,-1c.9,-.4,1.9,-.9,2.8,-1.5c.9,-.6,1.7,-1.2,2.4,-2c.8,-.8,1.5,-1.6,2.1,-2.5c.6,-.9,1.1,-1.8,1.5,-2.8c.4,-1,.7,-2,.9,-3c.2,-1.1,.3,-2.1,.3,-3.2c0,-1.1,-.1,-2.1,-.3,-3.2c-.2,-1,-.5,-2.1,-.9,-3c-.4,-1,-.9,-2,-1.5,-2.9c-.6,-.8,-1.3,-1.7,-2.1,-2.4c-.7,-.8,-1.5,-1.5,-2.4,-2c-.9,-.6,-1.9,-1.1,-2.8,-1.6c-1,-.4,-2.1,-.7,-3.1,-.9c-1,-.2,-2.1,-.3,-3.2,-.3Z" class="g1"/>
<path d="M223.9,6435.4c-1.1,0,-2.1,.1,-3.2,.3c-1,.2,-2,.5,-3,1c-1,.4,-1.9,.9,-2.8,1.5c-.9,.6,-1.7,1.2,-2.5,2c-.8,.7,-1.4,1.6,-2,2.5c-.6,.8,-1.1,1.8,-1.5,2.8c-.4,1,-.7,2,-1,3c-.2,1.1,-.3,2.1,-.3,3.2c0,1.1,.1,2.1,.3,3.2c.3,1,.6,2,1,3c.4,1,.9,2,1.5,2.8c.6,.9,1.2,1.8,2,2.5c.8,.8,1.6,1.4,2.5,2c.9,.6,1.8,1.1,2.8,1.5c1,.4,2,.8,3,1c1.1,.2,2.1,.3,3.2,.3c1.1,0,2.1,-.1,3.2,-.3c1,-.2,2.1,-.6,3,-1c1,-.4,2,-.9,2.9,-1.5c.8,-.6,1.7,-1.2,2.4,-2c.8,-.7,1.5,-1.6,2,-2.5c.6,-.8,1.1,-1.8,1.6,-2.8c.4,-1,.7,-2,.9,-3c.2,-1.1,.3,-2.1,.3,-3.2c0,-1.1,-.1,-2.1,-.3,-3.2c-.2,-1,-.5,-2,-.9,-3c-.5,-1,-1,-2,-1.6,-2.8c-.5,-.9,-1.2,-1.8,-2,-2.5c-.7,-.8,-1.6,-1.4,-2.4,-2c-.9,-.6,-1.9,-1.1,-2.9,-1.5c-.9,-.5,-2,-.8,-3,-1c-1.1,-.2,-2.1,-.3,-3.2,-.3Z" class="g1"/>
<path d="M583.1,6435.4c-1,0,-2.1,.1,-3.1,.3c-1.1,.2,-2.1,.5,-3.1,1c-1,.4,-1.9,.9,-2.8,1.5c-.9,.6,-1.7,1.2,-2.5,2c-.7,.7,-1.4,1.6,-2,2.5c-.6,.8,-1.1,1.8,-1.5,2.8c-.4,1,-.7,2,-.9,3c-.2,1.1,-.3,2.1,-.3,3.2c0,1.1,.1,2.1,.3,3.2c.2,1,.5,2,.9,3c.4,1,.9,2,1.5,2.8c.6,.9,1.3,1.8,2,2.5c.8,.8,1.6,1.4,2.5,2c.9,.6,1.8,1.1,2.8,1.5c1,.4,2,.8,3.1,1c1,.2,2.1,.3,3.1,.3c1.1,0,2.2,-.1,3.2,-.3c1.1,-.2,2.1,-.6,3.1,-1c1,-.4,1.9,-.9,2.8,-1.5c.9,-.6,1.7,-1.2,2.4,-2c.8,-.7,1.5,-1.6,2.1,-2.5c.6,-.8,1.1,-1.8,1.5,-2.8c.4,-1,.7,-2,.9,-3c.2,-1.1,.3,-2.1,.3,-3.2c0,-1.1,-.1,-2.1,-.3,-3.2c-.2,-1,-.5,-2,-.9,-3c-.4,-1,-.9,-2,-1.5,-2.8c-.6,-.9,-1.3,-1.8,-2.1,-2.5c-.7,-.8,-1.5,-1.4,-2.4,-2c-.9,-.6,-1.8,-1.1,-2.8,-1.5c-1,-.5,-2,-.8,-3.1,-1c-1,-.2,-2.1,-.3,-3.2,-.3Z" class="g1"/>
<path d="M934,6435.4c-1,0,-2.1,.1,-3.1,.3c-1.1,.2,-2.1,.5,-3.1,1c-1,.4,-1.9,.9,-2.8,1.5c-.9,.6,-1.7,1.2,-2.5,2c-.7,.7,-1.4,1.6,-2,2.5c-.6,.8,-1.1,1.8,-1.5,2.8c-.4,1,-.7,2,-.9,3c-.2,1.1,-.3,2.1,-.3,3.2c0,1.1,.1,2.1,.3,3.2c.2,1,.5,2,.9,3c.4,1,.9,2,1.5,2.8c.6,.9,1.3,1.8,2,2.5c.8,.8,1.6,1.4,2.5,2c.9,.6,1.8,1.1,2.8,1.5c1,.4,2,.8,3.1,1c1,.2,2.1,.3,3.1,.3c1.1,0,2.2,-.1,3.2,-.3c1.1,-.2,2.1,-.6,3.1,-1c1,-.4,1.9,-.9,2.8,-1.5c.9,-.6,1.7,-1.2,2.5,-2c.7,-.7,1.4,-1.6,2,-2.5c.6,-.8,1.1,-1.8,1.5,-2.8c.4,-1,.7,-2,.9,-3c.2,-1.1,.3,-2.1,.3,-3.2c0,-1.1,-.1,-2.1,-.3,-3.2c-.2,-1,-.5,-2,-.9,-3c-.4,-1,-.9,-2,-1.5,-2.8c-.6,-.9,-1.3,-1.8,-2,-2.5c-.8,-.8,-1.6,-1.4,-2.5,-2c-.9,-.6,-1.8,-1.1,-2.8,-1.5c-1,-.5,-2,-.8,-3.1,-1c-1,-.2,-2.1,-.3,-3.2,-.3Z" class="g1"/>
<g clip-path="url(#cc)">
<path d="M921.2,6923c4.2,-2.4,8.3,-4.8,12.4,-7.3c6.1,-3.6,7.9,-3.1,11.4,3.1c.5,.8,.5,1.8,1.1,2.4c2.4,2.5,1,4.1,-1.1,5.7c-3.2,2.4,-6.2,4.9,-9.5,7.2c-9.2,6.4,-18.9,11.8,-29.3,16c-4.2,1.8,-5.7,1.6,-8.4,-2c-2.6,-3.4,-5,-7.1,-6.7,-11c-.8,-2,-.3,-4.9,.4,-7.2c2.2,-7.1,4.3,-14.1,4.6,-21.6c.5,-9.8,-.7,-19.3,-4,-28.6c-1.1,-2.9,-1,-3,.3,-6.2c8.1,5.8,11,14.7,14.7,24.3c1.5,-3.1,2.8,-5.4,3.8,-7.8c8.2,-19.4,15,-39.3,19.2,-60.1c1,-5.1,1.8,-10.2,.6,-15.5c-.2,-1.1,.4,-2.4,.7,-4.4c3.5,2.3,6.2,4,8.8,5.8c5.7,3.8,8.7,9.3,8.5,15.9c-.3,7.7,-1.1,15.5,-2.6,23c-2,9.6,-4.8,19.2,-7.7,28.6c-3.9,13,-10,25,-16.7,36.8c-.4,.7,-.7,1.5,-1.1,2.2c.2,.2,.4,.5,.6,.7Z" class="g1"/>
</g>
<g clip-path="url(#cd)">
<path d="M252.9,6936.8c-4.8,-.5,-9.5,-1,-14.3,-1.5c-7,-.7,-8.5,.5,-9.1,7.5c-.1,.9,.3,1.9,.1,2.7c-1.2,3.3,.8,4.1,3.3,4.7c3.9,.8,7.7,1.9,11.6,2.6c11,2,22.1,2.8,33.3,2.4c4.6,-.2,5.9,-1,6.9,-5.3c.9,-4.2,1.6,-8.6,1.4,-12.8c0,-2.2,-1.7,-4.6,-3.3,-6.4c-5,-5.5,-9.8,-11.1,-13.2,-17.7c-4.5,-8.7,-7.4,-17.9,-8.2,-27.7c-.2,-3.2,-.3,-3.2,-2.9,-5.5c-4.9,8.6,-3.9,17.9,-3.2,28.2c-2.7,-2.2,-4.9,-3.8,-6.7,-5.5c-15.6,-14.3,-30,-29.6,-42.5,-46.6c-3.1,-4.3,-5.9,-8.6,-7,-13.9c-.3,-1.1,-1.4,-2.1,-2.5,-3.7c-2.2,3.5,-3.9,6.2,-5.6,8.9c-3.6,5.8,-4,12.1,-1,18c3.5,6.9,7.4,13.6,11.9,19.8c5.8,7.9,12.3,15.4,18.9,22.9c8.9,10.1,19.5,18.5,30.5,26.4c.6,.5,1.2,1.1,1.9,1.6c-.1,.3,-.2,.6,-.3,.9Z" class="g1"/>
</g>
<g clip-path="url(#ce)">
<path d="M573.4,6907.9c-3.7,-3.1,-7.3,-6.2,-10.9,-9.4c-5.3,-4.5,-7.3,-4.4,-11.8,1c-.6,.7,-.8,1.8,-1.5,2.3c-2.8,2,-1.7,3.8,.1,5.7c2.7,2.9,5.3,6,8.1,8.8c7.9,7.9,16.5,14.9,25.9,21c3.9,2.4,5.4,2.5,8.7,-.5c3.1,-2.9,6.2,-6.1,8.5,-9.7c1.2,-1.8,1.2,-4.8,.9,-7.2c-.9,-7.3,-1.7,-14.6,-.7,-22c1.3,-9.7,4.1,-18.9,9.1,-27.4q1.5,-2.8,.7,-6.2c-9,4.3,-13.4,12.5,-18.7,21.3c-1,-3.4,-1.9,-5.8,-2.4,-8.4c-4.6,-20.5,-7.8,-41.3,-8.3,-62.4c-.1,-5.3,.1,-10.5,2.2,-15.4c.4,-1.1,0,-2.5,0,-4.5c-3.8,1.6,-6.7,2.8,-9.6,4.1c-6.3,2.7,-10.2,7.7,-11.1,14.2c-1.1,7.6,-1.8,15.4,-1.6,23.1c.3,9.8,1.4,19.7,2.5,29.5c1.5,13.5,5.4,26.4,9.9,39.1c.3,.8,.5,1.6,.7,2.4c-.2,.2,-.5,.4,-.7,.6Z" class="g1"/>
</g>
<image preserveAspectRatio="none" x="456" y="7078" width="223" height="222" xlink:href="1/img/5.png"/>
<image x="-49" y="7825" width="1263" height="1264" xlink:href="1/shade/1.png"/>
<image preserveAspectRatio="none" x="391" y="7666" width="271" height="453" xlink:href="1/img/6.png"/>
<path d="M566.4,7395.9c-1.1,0,-2.2,.1,-3.2,.3c-1.1,.2,-2.1,.5,-3.1,.9c-1,.4,-1.9,.9,-2.8,1.5c-.9,.6,-1.7,1.3,-2.5,2c-.7,.8,-1.4,1.6,-2,2.5c-.6,.9,-1.1,1.8,-1.5,2.8c-.4,1,-.7,2,-.9,3.1c-.2,1,-.3,2.1,-.3,3.2c0,1,.1,2.1,.3,3.1c.2,1.1,.5,2.1,.9,3.1c.4,1,.9,1.9,1.5,2.8c.6,.9,1.3,1.7,2,2.5c.8,.7,1.6,1.4,2.5,2c.9,.6,1.8,1.1,2.8,1.5c1,.4,2,.7,3.1,.9c1,.2,2.1,.3,3.2,.3c1,0,2.1,-.1,3.1,-.3c1.1,-.2,2.1,-.5,3.1,-.9c1,-.4,1.9,-.9,2.8,-1.5c.9,-.6,1.7,-1.3,2.5,-2c.7,-.8,1.4,-1.6,2,-2.5c.6,-.9,1.1,-1.8,1.5,-2.8c.4,-1,.7,-2,.9,-3.1c.2,-1,.3,-2.1,.3,-3.1c0,-1.1,-.1,-2.2,-.3,-3.2c-.2,-1.1,-.5,-2.1,-.9,-3.1c-.4,-1,-.9,-1.9,-1.5,-2.8c-.6,-.9,-1.3,-1.7,-2,-2.5c-.8,-.7,-1.6,-1.4,-2.5,-2c-.9,-.6,-1.8,-1.1,-2.8,-1.5c-1,-.4,-2,-.7,-3.1,-.9c-1,-.2,-2.1,-.3,-3.1,-.3Z" class="g1"/>
<path d="M566.4,7492.1c-1.1,0,-2.2,.1,-3.2,.3c-1.1,.3,-2.1,.6,-3.1,1c-1,.4,-1.9,.9,-2.8,1.5c-.9,.6,-1.7,1.2,-2.5,2c-.7,.8,-1.4,1.6,-2,2.5c-.6,.9,-1.1,1.8,-1.5,2.8c-.4,1,-.7,2,-.9,3c-.2,1.1,-.3,2.1,-.3,3.2c0,1.1,.1,2.1,.3,3.2c.2,1,.5,2.1,.9,3c.4,1,.9,2,1.5,2.9c.6,.8,1.3,1.7,2,2.4c.8,.8,1.6,1.5,2.5,2c.9,.6,1.8,1.1,2.8,1.5c1,.5,2,.8,3.1,1c1,.2,2.1,.3,3.2,.3c1,0,2.1,-.1,3.1,-.3c1.1,-.2,2.1,-.5,3.1,-1c1,-.4,1.9,-.9,2.8,-1.5c.9,-.5,1.7,-1.2,2.5,-2c.7,-.7,1.4,-1.6,2,-2.4c.6,-.9,1.1,-1.9,1.5,-2.9c.4,-.9,.7,-2,.9,-3c.2,-1.1,.3,-2.1,.3,-3.2c0,-1.1,-.1,-2.1,-.3,-3.2c-.2,-1,-.5,-2,-.9,-3c-.4,-1,-.9,-1.9,-1.5,-2.8c-.6,-.9,-1.3,-1.7,-2,-2.5c-.8,-.8,-1.6,-1.4,-2.5,-2c-.9,-.6,-1.8,-1.1,-2.8,-1.5c-1,-.4,-2,-.7,-3.1,-1c-1,-.2,-2.1,-.3,-3.1,-.3Z" class="g1"/>
<path d="M566.4,7492.1c-1.1,0,-2.2,.1,-3.2,.3c-1.1,.3,-2.1,.6,-3.1,1c-1,.4,-1.9,.9,-2.8,1.5c-.9,.6,-1.7,1.2,-2.5,2c-.7,.8,-1.4,1.6,-2,2.5c-.6,.9,-1.1,1.8,-1.5,2.8c-.4,1,-.7,2,-.9,3c-.2,1.1,-.3,2.1,-.3,3.2c0,1.1,.1,2.1,.3,3.2c.2,1,.5,2.1,.9,3c.4,1,.9,2,1.5,2.9c.6,.8,1.3,1.7,2,2.4c.8,.8,1.6,1.5,2.5,2c.9,.6,1.8,1.1,2.8,1.5c1,.5,2,.8,3.1,1c1,.2,2.1,.3,3.2,.3c1,0,2.1,-.1,3.1,-.3c1.1,-.2,2.1,-.5,3.1,-1c1,-.4,1.9,-.9,2.8,-1.5c.9,-.5,1.7,-1.2,2.5,-2c.7,-.7,1.4,-1.6,2,-2.4c.6,-.9,1.1,-1.9,1.5,-2.9c.4,-.9,.7,-2,.9,-3c.2,-1.1,.3,-2.1,.3,-3.2c0,-1.1,-.1,-2.1,-.3,-3.2c-.2,-1,-.5,-2,-.9,-3c-.4,-1,-.9,-1.9,-1.5,-2.8c-.6,-.9,-1.3,-1.7,-2,-2.5c-.8,-.8,-1.6,-1.4,-2.5,-2c-.9,-.6,-1.8,-1.1,-2.8,-1.5c-1,-.4,-2,-.7,-3.1,-1c-1,-.2,-2.1,-.3,-3.1,-.3Z" class="g1"/>
<path d="M567.4,7585.3c-1.1,0,-2.2,.1,-3.2,.3c-1.1,.2,-2.1,.6,-3.1,1c-1,.4,-1.9,.9,-2.8,1.5c-.9,.6,-1.7,1.2,-2.5,2c-.7,.7,-1.4,1.6,-2,2.5c-.6,.8,-1.1,1.8,-1.5,2.8c-.4,1,-.7,2,-.9,3c-.2,1.1,-.3,2.1,-.3,3.2c0,1.1,.1,2.1,.3,3.2c.2,1,.5,2,.9,3c.4,1,.9,2,1.5,2.8c.6,.9,1.3,1.8,2,2.5c.8,.8,1.6,1.4,2.5,2c.9,.6,1.8,1.1,2.8,1.5c1,.5,2,.8,3.1,1c1,.2,2.1,.3,3.2,.3c1,0,2.1,-.1,3.1,-.3c1.1,-.2,2.1,-.5,3.1,-1c1,-.4,1.9,-.9,2.8,-1.5c.9,-.6,1.7,-1.2,2.5,-2c.7,-.7,1.4,-1.6,2,-2.5c.6,-.8,1.1,-1.8,1.5,-2.8c.4,-1,.7,-2,.9,-3c.2,-1.1,.3,-2.1,.3,-3.2c0,-1.1,-.1,-2.1,-.3,-3.2c-.2,-1,-.5,-2,-.9,-3c-.4,-1,-.9,-2,-1.5,-2.8c-.6,-.9,-1.3,-1.8,-2,-2.5c-.8,-.8,-1.6,-1.4,-2.5,-2c-.9,-.6,-1.8,-1.1,-2.8,-1.5c-1,-.4,-2,-.8,-3.1,-1c-1,-.2,-2.1,-.3,-3.1,-.3Z" class="g1"/>
<image preserveAspectRatio="none" x="0" y="7665" width="160" height="161" xlink:href="1/img/7.png"/>
<image preserveAspectRatio="none" x="881" y="717" width="104" height="104" xlink:href="1/img/8.png"/>
<image preserveAspectRatio="none" x="627" y="1038" width="103" height="103" xlink:href="1/img/9.png"/>
<image preserveAspectRatio="none" x="235" y="1273" width="112" height="112" xlink:href="1/img/10.png"/>
<image preserveAspectRatio="none" x="678" y="1836" width="115" height="115" xlink:href="1/img/11.png"/>
<image preserveAspectRatio="none" x="178" y="4454" width="81" height="82" xlink:href="1/img/12.png"/>
<image preserveAspectRatio="none" x="889" y="5395" width="78" height="78" xlink:href="1/img/13.png"/>
<image preserveAspectRatio="none" x="527" y="4100" width="90" height="91" xlink:href="1/img/14.png"/>
<image preserveAspectRatio="none" x="868" y="3758" width="122" height="121" xlink:href="1/img/15.png"/>
<image preserveAspectRatio="none" x="885" y="4104" width="87" height="87" xlink:href="1/img/16.png"/>
<image preserveAspectRatio="none" x="164" y="3770" width="109" height="109" xlink:href="1/img/17.png"/>
<path d="M214.8,5115.4c-1,0,-2.1,.1,-3.1,.3c-1.1,.2,-2.1,.5,-3.1,1c-1,.4,-1.9,.9,-2.8,1.5c-.9,.6,-1.7,1.2,-2.5,2c-.7,.7,-1.4,1.6,-2,2.5c-.6,.8,-1.1,1.8,-1.5,2.8c-.4,1,-.7,2,-.9,3c-.2,1.1,-.3,2.1,-.3,3.2c0,1.1,.1,2.1,.3,3.2c.2,1,.5,2,.9,3c.4,1,.9,2,1.5,2.8c.6,.9,1.3,1.8,2,2.5c.8,.8,1.6,1.4,2.5,2c.9,.6,1.8,1.1,2.8,1.5c1,.4,2,.8,3.1,1c1,.2,2.1,.3,3.1,.3c1.1,0,2.2,-.1,3.2,-.3c1.1,-.2,2.1,-.6,3.1,-1c1,-.4,1.9,-.9,2.8,-1.5c.9,-.6,1.7,-1.2,2.5,-2c.7,-.7,1.4,-1.6,2,-2.5c.6,-.8,1.1,-1.8,1.5,-2.8c.4,-1,.7,-2,.9,-3c.2,-1.1,.3,-2.1,.3,-3.2c0,-1.1,-.1,-2.1,-.3,-3.2c-.2,-1,-.5,-2,-.9,-3c-.4,-1,-.9,-2,-1.5,-2.8c-.6,-.9,-1.3,-1.8,-2,-2.5c-.8,-.8,-1.6,-1.4,-2.5,-2c-.9,-.6,-1.8,-1.1,-2.8,-1.5c-1,-.5,-2,-.8,-3.1,-1c-1,-.2,-2.1,-.3,-3.2,-.3Z" class="g1"/>
<path d="M214.8,5211.7c-1,0,-2.1,.1,-3.1,.3c-1.1,.2,-2.1,.5,-3.1,.9c-1,.4,-1.9,.9,-2.8,1.5c-.9,.6,-1.7,1.3,-2.5,2c-.7,.8,-1.4,1.6,-2,2.5c-.6,.9,-1.1,1.8,-1.5,2.8c-.4,1,-.7,2,-.9,3.1c-.2,1,-.3,2.1,-.3,3.1c0,1.1,.1,2.2,.3,3.2c.2,1.1,.5,2.1,.9,3.1c.4,1,.9,1.9,1.5,2.8c.6,.9,1.3,1.7,2,2.5c.8,.7,1.6,1.4,2.5,2c.9,.6,1.8,1.1,2.8,1.5c1,.4,2,.7,3.1,.9c1,.2,2.1,.3,3.1,.3c1.1,0,2.2,-.1,3.2,-.3c1.1,-.2,2.1,-.5,3.1,-.9c1,-.4,1.9,-.9,2.8,-1.5c.9,-.6,1.7,-1.3,2.5,-2c.7,-.8,1.4,-1.6,2,-2.5c.6,-.9,1.1,-1.8,1.5,-2.8c.4,-1,.7,-2,.9,-3.1c.2,-1,.3,-2.1,.3,-3.2c0,-1,-.1,-2.1,-.3,-3.1c-.2,-1.1,-.5,-2.1,-.9,-3.1c-.4,-1,-.9,-1.9,-1.5,-2.8c-.6,-.9,-1.3,-1.7,-2,-2.5c-.8,-.7,-1.6,-1.4,-2.5,-2c-.9,-.6,-1.8,-1.1,-2.8,-1.5c-1,-.4,-2,-.7,-3.1,-.9c-1,-.2,-2.1,-.3,-3.2,-.3Z" class="g1"/>
<path d="M214.8,5211.7c-1,0,-2.1,.1,-3.1,.3c-1.1,.2,-2.1,.5,-3.1,.9c-1,.4,-1.9,.9,-2.8,1.5c-.9,.6,-1.7,1.3,-2.5,2c-.7,.8,-1.4,1.6,-2,2.5c-.6,.9,-1.1,1.8,-1.5,2.8c-.4,1,-.7,2,-.9,3.1c-.2,1,-.3,2.1,-.3,3.1c0,1.1,.1,2.2,.3,3.2c.2,1.1,.5,2.1,.9,3.1c.4,1,.9,1.9,1.5,2.8c.6,.9,1.3,1.7,2,2.5c.8,.7,1.6,1.4,2.5,2c.9,.6,1.8,1.1,2.8,1.5c1,.4,2,.7,3.1,.9c1,.2,2.1,.3,3.1,.3c1.1,0,2.2,-.1,3.2,-.3c1.1,-.2,2.1,-.5,3.1,-.9c1,-.4,1.9,-.9,2.8,-1.5c.9,-.6,1.7,-1.3,2.5,-2c.7,-.8,1.4,-1.6,2,-2.5c.6,-.9,1.1,-1.8,1.5,-2.8c.4,-1,.7,-2,.9,-3.1c.2,-1,.3,-2.1,.3,-3.2c0,-1,-.1,-2.1,-.3,-3.1c-.2,-1.1,-.5,-2.1,-.9,-3.1c-.4,-1,-.9,-1.9,-1.5,-2.8c-.6,-.9,-1.3,-1.7,-2,-2.5c-.8,-.7,-1.6,-1.4,-2.5,-2c-.9,-.6,-1.8,-1.1,-2.8,-1.5c-1,-.4,-2,-.7,-3.1,-.9c-1,-.2,-2.1,-.3,-3.2,-.3Z" class="g1"/>
<path d="M215.8,5304.9c-1,0,-2.1,.1,-3.1,.3c-1.1,.2,-2.1,.5,-3.1,.9c-1,.4,-1.9,.9,-2.8,1.5c-.9,.6,-1.7,1.3,-2.5,2c-.7,.8,-1.4,1.6,-2,2.5c-.6,.9,-1.1,1.8,-1.5,2.8c-.4,1,-.7,2,-.9,3.1c-.2,1,-.3,2.1,-.3,3.1c0,1.1,.1,2.2,.3,3.2c.2,1.1,.5,2.1,.9,3.1c.4,1,.9,1.9,1.5,2.8c.6,.9,1.3,1.7,2,2.5c.8,.7,1.6,1.4,2.5,2c.9,.6,1.8,1.1,2.8,1.5c1,.4,2,.7,3.1,.9c1,.2,2.1,.3,3.1,.3c1.1,0,2.2,-.1,3.2,-.3c1.1,-.2,2.1,-.5,3.1,-.9c1,-.4,1.9,-.9,2.8,-1.5c.9,-.6,1.7,-1.3,2.5,-2c.7,-.8,1.4,-1.6,2,-2.5c.6,-.9,1.1,-1.8,1.5,-2.8c.4,-1,.7,-2,.9,-3.1c.2,-1,.3,-2.1,.3,-3.2c0,-1,-.1,-2.1,-.3,-3.1c-.2,-1.1,-.5,-2.1,-.9,-3.1c-.4,-1,-.9,-1.9,-1.5,-2.8c-.6,-.9,-1.3,-1.7,-2,-2.5c-.8,-.7,-1.6,-1.4,-2.5,-2c-.9,-.6,-1.8,-1.1,-2.8,-1.5c-1,-.4,-2,-.7,-3.1,-.9c-1,-.2,-2.1,-.3,-3.2,-.3Z" class="g1"/>
<path d="M215.8,5401.1c-1,0,-2.1,.1,-3.1,.3c-1.1,.2,-2.1,.5,-3.1,.9c-1,.5,-1.9,1,-2.8,1.6c-.9,.5,-1.7,1.2,-2.5,2c-.7,.7,-1.4,1.6,-2,2.4c-.6,.9,-1.1,1.9,-1.5,2.9c-.4,.9,-.7,2,-.9,3c-.2,1.1,-.3,2.1,-.3,3.2c0,1.1,.1,2.1,.3,3.2c.2,1,.5,2,.9,3c.4,1,.9,1.9,1.5,2.8c.6,.9,1.3,1.7,2,2.5c.8,.8,1.6,1.4,2.5,2c.9,.6,1.8,1.1,2.8,1.5c1,.4,2,.7,3.1,1c1,.2,2.1,.3,3.1,.3c1.1,0,2.2,-.1,3.2,-.3c1.1,-.3,2.1,-.6,3.1,-1c1,-.4,1.9,-.9,2.8,-1.5c.9,-.6,1.7,-1.2,2.5,-2c.7,-.8,1.4,-1.6,2,-2.5c.6,-.9,1.1,-1.8,1.5,-2.8c.4,-1,.7,-2,.9,-3c.2,-1.1,.3,-2.1,.3,-3.2c0,-1.1,-.1,-2.1,-.3,-3.2c-.2,-1,-.5,-2.1,-.9,-3c-.4,-1,-.9,-2,-1.5,-2.9c-.6,-.8,-1.3,-1.7,-2,-2.4c-.8,-.8,-1.6,-1.5,-2.5,-2c-.9,-.6,-1.8,-1.1,-2.8,-1.6c-1,-.4,-2,-.7,-3.1,-.9c-1,-.2,-2.1,-.3,-3.2,-.3Z" class="g1"/>
<path d="M216.8,5401.1c-1,0,-2.1,.1,-3.1,.3c-1.1,.2,-2.1,.5,-3.1,.9c-1,.5,-1.9,1,-2.8,1.6c-.9,.5,-1.7,1.2,-2.5,2c-.7,.7,-1.4,1.6,-2,2.4c-.6,.9,-1.1,1.9,-1.5,2.9c-.4,.9,-.7,2,-.9,3c-.2,1.1,-.3,2.1,-.3,3.2c0,1.1,.1,2.1,.3,3.2c.2,1,.5,2,.9,3c.4,1,.9,1.9,1.5,2.8c.6,.9,1.3,1.7,2,2.5c.8,.8,1.6,1.4,2.5,2c.9,.6,1.8,1.1,2.8,1.5c1,.4,2,.7,3.1,1c1,.2,2.1,.3,3.1,.3c1.1,0,2.2,-.1,3.2,-.3c1.1,-.3,2.1,-.6,3.1,-1c1,-.4,1.9,-.9,2.8,-1.5c.9,-.6,1.7,-1.2,2.5,-2c.7,-.8,1.4,-1.6,2,-2.5c.6,-.9,1.1,-1.8,1.5,-2.8c.4,-1,.7,-2,.9,-3c.2,-1.1,.3,-2.1,.3,-3.2c0,-1.1,-.1,-2.1,-.3,-3.2c-.2,-1,-.5,-2.1,-.9,-3c-.4,-1,-.9,-2,-1.5,-2.9c-.6,-.8,-1.3,-1.7,-2,-2.4c-.8,-.8,-1.6,-1.5,-2.5,-2c-.9,-.6,-1.8,-1.1,-2.8,-1.6c-1,-.4,-2,-.7,-3.1,-.9c-1,-.2,-2.1,-.3,-3.2,-.3Z" class="g1"/>
<image preserveAspectRatio="none" x="891" y="5722" width="84" height="83" xlink:href="1/img/18.png"/>
<image preserveAspectRatio="none" x="893" y="5064" width="83" height="84" xlink:href="1/img/19.png"/>
<image preserveAspectRatio="none" x="881" y="4724" width="96" height="97" xlink:href="1/img/20.png"/>
<image preserveAspectRatio="none" x="533" y="4449" width="87" height="87" xlink:href="1/img/21.png"/>
<image preserveAspectRatio="none" x="878" y="4439" width="96" height="96" xlink:href="1/img/22.png"/>
<image preserveAspectRatio="none" x="536" y="3787" width="75" height="74" xlink:href="1/img/23.png"/>
<image preserveAspectRatio="none" x="157" y="4724" width="120" height="121" xlink:href="1/img/24.png"/>
<image preserveAspectRatio="none" x="181" y="4111" width="79" height="79" xlink:href="1/img/25.png"/>
<path d="M577.5,5205.6c-1.1,0,-2.1,.1,-3.2,.3c-1,.2,-2.1,.5,-3.1,.9c-.9,.4,-1.9,.9,-2.8,1.5c-.9,.6,-1.7,1.3,-2.4,2c-.8,.8,-1.5,1.6,-2.1,2.5c-.6,.9,-1.1,1.8,-1.5,2.8c-.4,1,-.7,2,-.9,3.1c-.2,1,-.3,2.1,-.3,3.1c0,1.1,.1,2.2,.3,3.2c.2,1.1,.5,2.1,.9,3.1c.4,1,.9,1.9,1.5,2.8c.6,.9,1.3,1.7,2.1,2.4c.7,.8,1.5,1.5,2.4,2.1c.9,.6,1.9,1.1,2.8,1.5c1,.4,2.1,.7,3.1,.9c1.1,.2,2.1,.3,3.2,.3c1,0,2.1,-.1,3.2,-.3c1,-.2,2,-.5,3,-.9c1,-.4,1.9,-.9,2.8,-1.5c.9,-.6,1.7,-1.3,2.5,-2.1c.7,-.7,1.4,-1.5,2,-2.4c.6,-.9,1.1,-1.8,1.5,-2.8c.4,-1,.7,-2,.9,-3.1c.3,-1,.4,-2.1,.4,-3.2c0,-1,-.1,-2.1,-.4,-3.1c-.2,-1.1,-.5,-2.1,-.9,-3.1c-.4,-1,-.9,-1.9,-1.5,-2.8c-.6,-.9,-1.3,-1.7,-2,-2.5c-.8,-.7,-1.6,-1.4,-2.5,-2c-.9,-.6,-1.8,-1.1,-2.8,-1.5c-1,-.4,-2,-.7,-3,-.9c-1.1,-.2,-2.2,-.3,-3.2,-.3Z" class="g1"/>
<path d="M576.5,5294.2c-1.1,0,-2.2,.1,-3.2,.3c-1,.2,-2.1,.5,-3.1,.9c-.9,.4,-1.9,.9,-2.8,1.5c-.9,.6,-1.7,1.3,-2.4,2c-.8,.8,-1.5,1.6,-2.1,2.5c-.6,.9,-1.1,1.8,-1.5,2.8c-.4,1,-.7,2,-.9,3.1c-.2,1,-.3,2.1,-.3,3.1c0,1.1,.1,2.2,.3,3.2c.2,1.1,.5,2.1,.9,3.1c.4,1,.9,1.9,1.5,2.8c.6,.9,1.3,1.7,2.1,2.5c.7,.7,1.5,1.4,2.4,2c.9,.6,1.9,1.1,2.8,1.5c1,.4,2.1,.7,3.1,.9c1,.2,2.1,.3,3.2,.3c1,0,2.1,-.1,3.2,-.3c1,-.2,2,-.5,3,-.9c1,-.4,1.9,-.9,2.8,-1.5c.9,-.6,1.7,-1.3,2.5,-2c.7,-.8,1.4,-1.6,2,-2.5c.6,-.9,1.1,-1.8,1.5,-2.8c.4,-1,.7,-2,.9,-3.1c.3,-1,.4,-2.1,.4,-3.2c0,-1,-.1,-2.1,-.4,-3.1c-.2,-1.1,-.5,-2.1,-.9,-3.1c-.4,-1,-.9,-1.9,-1.5,-2.8c-.6,-.9,-1.3,-1.7,-2,-2.5c-.8,-.7,-1.6,-1.4,-2.5,-2c-.9,-.6,-1.8,-1.1,-2.8,-1.5c-1,-.4,-2,-.7,-3,-.9c-1.1,-.2,-2.2,-.3,-3.2,-.3Z" class="g1"/>
<path d="M577.5,5387.4c-1.1,0,-2.1,.1,-3.2,.3c-1,.2,-2.1,.5,-3.1,.9c-.9,.4,-1.9,.9,-2.8,1.5c-.9,.6,-1.7,1.3,-2.4,2c-.8,.8,-1.5,1.6,-2.1,2.5c-.6,.9,-1.1,1.8,-1.5,2.8c-.4,1,-.7,2,-.9,3.1c-.2,1,-.3,2.1,-.3,3.1c0,1.1,.1,2.2,.3,3.2c.2,1.1,.5,2.1,.9,3.1c.4,1,.9,1.9,1.5,2.8c.6,.9,1.3,1.7,2.1,2.5c.7,.7,1.5,1.4,2.4,2c.9,.6,1.9,1.1,2.8,1.5c1,.4,2.1,.7,3.1,.9c1.1,.2,2.1,.3,3.2,.3c1,0,2.1,-.1,3.2,-.3c1,-.2,2,-.5,3,-.9c1,-.4,1.9,-.9,2.8,-1.5c.9,-.6,1.7,-1.3,2.5,-2c.7,-.8,1.4,-1.6,2,-2.5c.6,-.9,1.1,-1.8,1.5,-2.8c.4,-1,.7,-2,.9,-3.1c.3,-1,.4,-2.1,.4,-3.2c0,-1,-.1,-2.1,-.4,-3.1c-.2,-1.1,-.5,-2.1,-.9,-3.1c-.4,-1,-.9,-1.9,-1.5,-2.8c-.6,-.9,-1.3,-1.7,-2,-2.5c-.8,-.7,-1.6,-1.4,-2.5,-2c-.9,-.6,-1.8,-1.1,-2.8,-1.5c-1,-.4,-2,-.7,-3,-.9c-1.1,-.2,-2.2,-.3,-3.2,-.3Z" class="g1"/>
<path d="M577.5,5483.6c-1.1,0,-2.1,.1,-3.2,.3c-1,.2,-2.1,.5,-3.1,.9c-.9,.5,-1.9,1,-2.8,1.6c-.9,.5,-1.7,1.2,-2.4,2c-.8,.7,-1.5,1.6,-2.1,2.4c-.6,.9,-1.1,1.9,-1.5,2.9c-.4,.9,-.7,2,-.9,3c-.2,1.1,-.3,2.1,-.3,3.2c0,1.1,.1,2.1,.3,3.2c.2,1,.5,2,.9,3c.4,1,.9,1.9,1.5,2.8c.6,.9,1.3,1.7,2.1,2.5c.7,.8,1.5,1.4,2.4,2c.9,.6,1.9,1.1,2.8,1.5c1,.4,2.1,.7,3.1,1c1.1,.2,2.1,.3,3.2,.3c1,0,2.1,-.1,3.2,-.3c1,-.3,2,-.6,3,-1c1,-.4,1.9,-.9,2.8,-1.5c.9,-.6,1.7,-1.2,2.5,-2c.7,-.8,1.4,-1.6,2,-2.5c.6,-.9,1.1,-1.8,1.5,-2.8c.4,-1,.7,-2,.9,-3c.3,-1.1,.4,-2.1,.4,-3.2c0,-1.1,-.1,-2.1,-.4,-3.2c-.2,-1,-.5,-2.1,-.9,-3c-.4,-1,-.9,-2,-1.5,-2.9c-.6,-.8,-1.3,-1.7,-2,-2.4c-.8,-.8,-1.6,-1.5,-2.5,-2c-.9,-.6,-1.8,-1.1,-2.8,-1.6c-1,-.4,-2,-.7,-3,-.9c-1.1,-.2,-2.2,-.3,-3.2,-.3Z" class="g1"/>
<path d="M577.5,5483.6c-1.1,0,-2.1,.1,-3.2,.3c-1,.2,-2.1,.5,-3.1,.9c-.9,.5,-1.9,1,-2.8,1.6c-.9,.5,-1.7,1.2,-2.4,2c-.8,.7,-1.5,1.6,-2.1,2.4c-.6,.9,-1.1,1.9,-1.5,2.9c-.4,.9,-.7,2,-.9,3c-.2,1.1,-.3,2.1,-.3,3.2c0,1.1,.1,2.1,.3,3.2c.2,1,.5,2,.9,3c.4,1,.9,1.9,1.5,2.8c.6,.9,1.3,1.7,2.1,2.5c.7,.8,1.5,1.4,2.4,2c.9,.6,1.9,1.1,2.8,1.5c1,.4,2.1,.7,3.1,1c1.1,.2,2.1,.3,3.2,.3c1,0,2.1,-.1,3.2,-.3c1,-.3,2,-.6,3,-1c1,-.4,1.9,-.9,2.8,-1.5c.9,-.6,1.7,-1.2,2.5,-2c.7,-.8,1.4,-1.6,2,-2.5c.6,-.9,1.1,-1.8,1.5,-2.8c.4,-1,.7,-2,.9,-3c.3,-1.1,.4,-2.1,.4,-3.2c0,-1.1,-.1,-2.1,-.4,-3.2c-.2,-1,-.5,-2.1,-.9,-3c-.4,-1,-.9,-2,-1.5,-2.9c-.6,-.8,-1.3,-1.7,-2,-2.4c-.8,-.8,-1.6,-1.5,-2.5,-2c-.9,-.6,-1.8,-1.1,-2.8,-1.6c-1,-.4,-2,-.7,-3,-.9c-1.1,-.2,-2.2,-.3,-3.2,-.3Z" class="g1"/>
<path d="M578.5,5576.8c-1.1,0,-2.1,.1,-3.2,.3c-1,.2,-2.1,.5,-3,.9c-1,.5,-2,1,-2.9,1.5c-.9,.6,-1.7,1.3,-2.4,2.1c-.8,.7,-1.5,1.6,-2.1,2.4c-.5,.9,-1.1,1.9,-1.5,2.9c-.4,.9,-.7,2,-.9,3c-.2,1.1,-.3,2.1,-.3,3.2c0,1.1,.1,2.1,.3,3.2c.2,1,.5,2,.9,3c.4,1,1,1.9,1.5,2.8c.6,.9,1.3,1.7,2.1,2.5c.7,.8,1.5,1.4,2.4,2c.9,.6,1.9,1.1,2.9,1.5c.9,.4,2,.7,3,1c1.1,.2,2.1,.3,3.2,.3c1,0,2.1,-.1,3.2,-.3c1,-.3,2,-.6,3,-1c1,-.4,1.9,-.9,2.8,-1.5c.9,-.6,1.7,-1.2,2.5,-2c.7,-.8,1.4,-1.6,2,-2.5c.6,-.9,1.1,-1.8,1.5,-2.8c.4,-1,.7,-2,.9,-3c.3,-1.1,.4,-2.1,.4,-3.2c0,-1.1,-.1,-2.1,-.4,-3.2c-.2,-1,-.5,-2.1,-.9,-3c-.4,-1,-.9,-2,-1.5,-2.9c-.6,-.8,-1.3,-1.7,-2,-2.4c-.8,-.8,-1.6,-1.5,-2.5,-2.1c-.9,-.5,-1.8,-1,-2.8,-1.5c-1,-.4,-2,-.7,-3,-.9c-1.1,-.2,-2.2,-.3,-3.2,-.3Z" class="g1"/>
<path d="M578.5,5673.1c-1.1,0,-2.1,.1,-3.2,.3c-1,.2,-2.1,.5,-3,.9c-1,.4,-2,.9,-2.9,1.5c-.9,.6,-1.7,1.3,-2.4,2c-.8,.8,-1.5,1.6,-2.1,2.5c-.5,.9,-1.1,1.8,-1.5,2.8c-.4,1,-.7,2,-.9,3.1c-.2,1,-.3,2.1,-.3,3.1c0,1.1,.1,2.2,.3,3.2c.2,1.1,.5,2.1,.9,3.1c.4,1,1,1.9,1.5,2.8c.6,.9,1.3,1.7,2.1,2.4c.7,.8,1.5,1.5,2.4,2.1c.9,.6,1.9,1.1,2.9,1.5c.9,.4,2,.7,3,.9c1.1,.2,2.1,.3,3.2,.3c1,0,2.1,-.1,3.2,-.3c1,-.2,2,-.5,3,-.9c1,-.4,1.9,-.9,2.8,-1.5c.9,-.6,1.7,-1.3,2.5,-2.1c.7,-.7,1.4,-1.5,2,-2.4c.6,-.9,1.1,-1.8,1.5,-2.8c.4,-1,.7,-2,.9,-3.1c.3,-1,.4,-2.1,.4,-3.2c0,-1,-.1,-2.1,-.4,-3.1c-.2,-1.1,-.5,-2.1,-.9,-3.1c-.4,-1,-.9,-1.9,-1.5,-2.8c-.6,-.9,-1.3,-1.7,-2,-2.5c-.8,-.7,-1.6,-1.4,-2.5,-2c-.9,-.6,-1.8,-1.1,-2.8,-1.5c-1,-.4,-2,-.7,-3,-.9c-1.1,-.2,-2.2,-.3,-3.2,-.3Z" class="g1"/>
<path d="M579.5,5673.1c-1.1,0,-2.1,.1,-3.2,.3c-1,.2,-2.1,.5,-3,.9c-1,.4,-2,.9,-2.9,1.5c-.9,.6,-1.7,1.3,-2.4,2c-.8,.8,-1.5,1.6,-2.1,2.5c-.5,.9,-1,1.8,-1.5,2.8c-.4,1,-.7,2,-.9,3.1c-.2,1,-.3,2.1,-.3,3.1c0,1.1,.1,2.2,.3,3.2c.2,1.1,.5,2.1,.9,3.1c.5,1,1,1.9,1.5,2.8c.6,.9,1.3,1.7,2.1,2.4c.7,.8,1.5,1.5,2.4,2.1c.9,.6,1.9,1.1,2.9,1.5c.9,.4,2,.7,3,.9c1.1,.2,2.1,.3,3.2,.3c1.1,0,2.1,-.1,3.2,-.3c1,-.2,2,-.5,3,-.9c1,-.4,1.9,-.9,2.8,-1.5c.9,-.6,1.7,-1.3,2.5,-2.1c.7,-.7,1.4,-1.5,2,-2.4c.6,-.9,1.1,-1.8,1.5,-2.8c.4,-1,.7,-2,.9,-3.1c.3,-1,.4,-2.1,.4,-3.2c0,-1,-.1,-2.1,-.4,-3.1c-.2,-1.1,-.5,-2.1,-.9,-3.1c-.4,-1,-.9,-1.9,-1.5,-2.8c-.6,-.9,-1.3,-1.7,-2,-2.5c-.8,-.7,-1.6,-1.4,-2.5,-2c-.9,-.6,-1.8,-1.1,-2.8,-1.5c-1,-.4,-2,-.7,-3,-.9c-1.1,-.2,-2.1,-.3,-3.2,-.3Z" class="g1"/>
<path d="M578.5,5761.7c-1.1,0,-2.1,.1,-3.2,.3c-1,.2,-2.1,.5,-3,.9c-1,.4,-2,.9,-2.9,1.5c-.9,.6,-1.7,1.3,-2.4,2c-.8,.8,-1.5,1.6,-2.1,2.5c-.5,.9,-1.1,1.8,-1.5,2.8c-.4,1,-.7,2,-.9,3.1c-.2,1,-.3,2.1,-.3,3.1c0,1.1,.1,2.2,.3,3.2c.2,1.1,.5,2.1,.9,3.1c.4,1,1,1.9,1.5,2.8c.6,.9,1.3,1.7,2.1,2.5c.7,.7,1.5,1.4,2.4,2c.9,.6,1.9,1.1,2.9,1.5c.9,.4,2,.7,3,.9c1.1,.2,2.1,.3,3.2,.3c1,0,2.1,-.1,3.2,-.3c1,-.2,2,-.5,3,-.9c1,-.4,1.9,-.9,2.8,-1.5c.9,-.6,1.7,-1.3,2.5,-2c.7,-.8,1.4,-1.6,2,-2.5c.6,-.9,1.1,-1.8,1.5,-2.8c.4,-1,.7,-2,.9,-3.1c.3,-1,.4,-2.1,.4,-3.2c0,-1,-.1,-2.1,-.4,-3.1c-.2,-1.1,-.5,-2.1,-.9,-3.1c-.4,-1,-.9,-1.9,-1.5,-2.8c-.6,-.9,-1.3,-1.7,-2,-2.5c-.8,-.7,-1.6,-1.4,-2.5,-2c-.9,-.6,-1.8,-1.1,-2.8,-1.5c-1,-.4,-2,-.7,-3,-.9c-1.1,-.2,-2.2,-.3,-3.2,-.3Z" class="g1"/>
<path d="M579.5,5854.9c-1.1,0,-2.1,.1,-3.2,.3c-1,.2,-2.1,.5,-3,.9c-1,.4,-2,.9,-2.9,1.5c-.9,.6,-1.7,1.3,-2.4,2c-.8,.8,-1.5,1.6,-2.1,2.5c-.5,.9,-1,1.8,-1.5,2.8c-.4,1,-.7,2,-.9,3.1c-.2,1,-.3,2.1,-.3,3.1c0,1.1,.1,2.2,.3,3.2c.2,1.1,.5,2.1,.9,3.1c.5,1,1,1.9,1.5,2.8c.6,.9,1.3,1.7,2.1,2.5c.7,.7,1.5,1.4,2.4,2c.9,.6,1.9,1.1,2.9,1.5c.9,.4,2,.7,3,.9c1.1,.2,2.1,.3,3.2,.3c1.1,0,2.1,-.1,3.2,-.3c1,-.2,2,-.5,3,-.9c1,-.4,1.9,-.9,2.8,-1.5c.9,-.6,1.7,-1.3,2.5,-2c.7,-.8,1.4,-1.6,2,-2.5c.6,-.9,1.1,-1.8,1.5,-2.8c.4,-1,.7,-2,.9,-3.1c.3,-1,.4,-2.1,.4,-3.2c0,-1,-.1,-2.1,-.4,-3.1c-.2,-1.1,-.5,-2.1,-.9,-3.1c-.4,-1,-.9,-1.9,-1.5,-2.8c-.6,-.9,-1.3,-1.7,-2,-2.5c-.8,-.7,-1.6,-1.4,-2.5,-2c-.9,-.6,-1.8,-1.1,-2.8,-1.5c-1,-.4,-2,-.7,-3,-.9c-1.1,-.2,-2.1,-.3,-3.2,-.3Z" class="g1"/>
<path d="M579.5,5951.1c-1.1,0,-2.1,.1,-3.2,.3c-1,.2,-2.1,.5,-3,.9c-1,.5,-2,1,-2.9,1.6c-.9,.5,-1.7,1.2,-2.4,2c-.8,.7,-1.5,1.6,-2.1,2.4c-.5,.9,-1,1.9,-1.5,2.9c-.4,.9,-.7,2,-.9,3c-.2,1.1,-.3,2.1,-.3,3.2c0,1.1,.1,2.1,.3,3.2c.2,1,.5,2,.9,3c.5,1,1,1.9,1.5,2.8c.6,.9,1.3,1.7,2.1,2.5c.7,.8,1.5,1.4,2.4,2c.9,.6,1.9,1.1,2.9,1.5c.9,.4,2,.7,3,1c1.1,.2,2.1,.3,3.2,.3c1.1,0,2.1,-.1,3.2,-.3c1,-.3,2,-.6,3,-1c1,-.4,1.9,-.9,2.8,-1.5c.9,-.6,1.7,-1.2,2.5,-2c.7,-.8,1.4,-1.6,2,-2.5c.6,-.9,1.1,-1.8,1.5,-2.8c.4,-1,.7,-2,.9,-3c.3,-1.1,.4,-2.1,.4,-3.2c0,-1.1,-.1,-2.1,-.4,-3.2c-.2,-1,-.5,-2.1,-.9,-3c-.4,-1,-.9,-2,-1.5,-2.9c-.6,-.8,-1.3,-1.7,-2,-2.4c-.8,-.8,-1.6,-1.5,-2.5,-2c-.9,-.6,-1.8,-1.1,-2.8,-1.6c-1,-.4,-2,-.7,-3,-.9c-1.1,-.2,-2.1,-.3,-3.2,-.3Z" class="g1"/>
<path d="M579.5,5951.1c-1.1,0,-2.1,.1,-3.2,.3c-1,.2,-2.1,.5,-3,.9c-1,.5,-2,1,-2.9,1.6c-.9,.5,-1.7,1.2,-2.4,2c-.8,.7,-1.5,1.6,-2.1,2.4c-.5,.9,-1,1.9,-1.5,2.9c-.4,.9,-.7,2,-.9,3c-.2,1.1,-.3,2.1,-.3,3.2c0,1.1,.1,2.1,.3,3.2c.2,1,.5,2,.9,3c.5,1,1,1.9,1.5,2.8c.6,.9,1.3,1.7,2.1,2.5c.7,.8,1.5,1.4,2.4,2c.9,.6,1.9,1.1,2.9,1.5c.9,.4,2,.7,3,1c1.1,.2,2.1,.3,3.2,.3c1.1,0,2.1,-.1,3.2,-.3c1,-.3,2,-.6,3,-1c1,-.4,1.9,-.9,2.8,-1.5c.9,-.6,1.7,-1.2,2.5,-2c.7,-.8,1.4,-1.6,2,-2.5c.6,-.9,1.1,-1.8,1.5,-2.8c.4,-1,.7,-2,.9,-3c.3,-1.1,.4,-2.1,.4,-3.2c0,-1.1,-.1,-2.1,-.4,-3.2c-.2,-1,-.5,-2.1,-.9,-3c-.4,-1,-.9,-2,-1.5,-2.9c-.6,-.8,-1.3,-1.7,-2,-2.4c-.8,-.8,-1.6,-1.5,-2.5,-2c-.9,-.6,-1.8,-1.1,-2.8,-1.6c-1,-.4,-2,-.7,-3,-.9c-1.1,-.2,-2.1,-.3,-3.2,-.3Z" class="g1"/>
<path d="M580.5,6044.3c-1.1,0,-2.1,.1,-3.2,.3c-1,.2,-2.1,.5,-3,.9c-1,.5,-2,1,-2.9,1.5c-.8,.6,-1.7,1.3,-2.4,2.1c-.8,.7,-1.5,1.6,-2.1,2.4c-.5,.9,-1,1.9,-1.5,2.9c-.4,.9,-.7,2,-.9,3c-.2,1.1,-.3,2.1,-.3,3.2c0,1.1,.1,2.1,.3,3.2c.2,1,.5,2,.9,3c.5,1,1,1.9,1.5,2.8c.6,.9,1.3,1.7,2.1,2.5c.7,.8,1.6,1.4,2.4,2c.9,.6,1.9,1.1,2.9,1.5c.9,.4,2,.7,3,1c1.1,.2,2.1,.3,3.2,.3c1.1,0,2.1,-.1,3.2,-.3c1,-.3,2,-.6,3,-1c1,-.4,1.9,-.9,2.8,-1.5c.9,-.6,1.7,-1.2,2.5,-2c.8,-.8,1.4,-1.6,2,-2.5c.6,-.9,1.1,-1.8,1.5,-2.8c.4,-1,.7,-2,1,-3c.2,-1.1,.3,-2.1,.3,-3.2c0,-1.1,-.1,-2.1,-.3,-3.2c-.3,-1,-.6,-2.1,-1,-3c-.4,-1,-.9,-2,-1.5,-2.9c-.6,-.8,-1.2,-1.7,-2,-2.4c-.8,-.8,-1.6,-1.5,-2.5,-2.1c-.9,-.5,-1.8,-1,-2.8,-1.5c-1,-.4,-2,-.7,-3,-.9c-1.1,-.2,-2.1,-.3,-3.2,-.3Z" class="g1"/>
<path d="M580.5,6140.6c-1.1,0,-2.1,.1,-3.2,.3c-1,.2,-2.1,.5,-3,.9c-1,.4,-2,.9,-2.9,1.5c-.8,.6,-1.7,1.3,-2.4,2c-.8,.8,-1.5,1.6,-2.1,2.5c-.5,.9,-1,1.8,-1.5,2.8c-.4,1,-.7,2,-.9,3.1c-.2,1,-.3,2.1,-.3,3.1c0,1.1,.1,2.2,.3,3.2c.2,1.1,.5,2.1,.9,3.1c.5,1,1,1.9,1.5,2.8c.6,.9,1.3,1.7,2.1,2.4c.7,.8,1.6,1.5,2.4,2.1c.9,.6,1.9,1.1,2.9,1.5c.9,.4,2,.7,3,.9c1.1,.2,2.1,.3,3.2,.3c1.1,0,2.1,-.1,3.2,-.3c1,-.2,2,-.5,3,-.9c1,-.4,1.9,-.9,2.8,-1.5c.9,-.6,1.7,-1.3,2.5,-2.1c.8,-.7,1.4,-1.5,2,-2.4c.6,-.9,1.1,-1.8,1.5,-2.8c.4,-1,.7,-2,1,-3.1c.2,-1,.3,-2.1,.3,-3.2c0,-1,-.1,-2.1,-.3,-3.1c-.3,-1.1,-.6,-2.1,-1,-3.1c-.4,-1,-.9,-1.9,-1.5,-2.8c-.6,-.9,-1.2,-1.7,-2,-2.5c-.8,-.7,-1.6,-1.4,-2.5,-2c-.9,-.6,-1.8,-1.1,-2.8,-1.5c-1,-.4,-2,-.7,-3,-.9c-1.1,-.2,-2.1,-.3,-3.2,-.3Z" class="g1"/>
<path d="M581.8,6239.9c-1.1,0,-2.1,.1,-3.2,.3c-1,.2,-2,.5,-3,.9c-1,.4,-1.9,.9,-2.8,1.5c-.9,.6,-1.7,1.3,-2.5,2c-.8,.8,-1.4,1.6,-2,2.5c-.6,.9,-1.1,1.8,-1.5,2.8c-.4,1,-.7,2,-1,3.1c-.2,1,-.3,2.1,-.3,3.1c0,1.1,.1,2.2,.3,3.2c.3,1.1,.6,2.1,1,3.1c.4,1,.9,1.9,1.5,2.8c.6,.9,1.2,1.7,2,2.5c.8,.7,1.6,1.4,2.5,2c.9,.6,1.8,1.1,2.8,1.5c1,.4,2,.7,3,.9c1.1,.2,2.1,.3,3.2,.3c1.1,0,2.1,-.1,3.2,-.3c1,-.2,2.1,-.5,3,-.9c1,-.4,2,-.9,2.9,-1.5c.8,-.6,1.7,-1.3,2.4,-2c.8,-.8,1.5,-1.6,2,-2.5c.6,-.9,1.1,-1.8,1.5,-2.8c.5,-1,.8,-2,1,-3.1c.2,-1,.3,-2.1,.3,-3.2c0,-1,-.1,-2.1,-.3,-3.1c-.2,-1.1,-.5,-2.1,-1,-3.1c-.4,-1,-.9,-1.9,-1.5,-2.8c-.5,-.9,-1.2,-1.7,-2,-2.5c-.7,-.7,-1.6,-1.4,-2.4,-2c-.9,-.6,-1.9,-1.1,-2.9,-1.5c-.9,-.4,-2,-.7,-3,-.9c-1.1,-.2,-2.1,-.3,-3.2,-.3Z" class="g1"/>
<path d="M572.7,4919.9c-1,0,-2.1,.1,-3.1,.3c-1.1,.2,-2.1,.5,-3.1,.9c-1,.4,-1.9,.9,-2.8,1.5c-.9,.6,-1.7,1.3,-2.5,2c-.7,.8,-1.4,1.6,-2,2.5c-.6,.9,-1.1,1.8,-1.5,2.8c-.4,1,-.7,2,-.9,3.1c-.2,1,-.3,2.1,-.3,3.1c0,1.1,.1,2.2,.3,3.2c.2,1.1,.5,2.1,.9,3.1c.4,1,.9,1.9,1.5,2.8c.6,.9,1.3,1.7,2,2.5c.8,.7,1.6,1.4,2.5,2c.9,.6,1.8,1.1,2.8,1.5c1,.4,2,.7,3.1,.9c1,.2,2.1,.3,3.1,.3c1.1,0,2.2,-.1,3.2,-.3c1.1,-.2,2.1,-.5,3.1,-.9c1,-.4,1.9,-.9,2.8,-1.5c.9,-.6,1.7,-1.3,2.4,-2c.8,-.8,1.5,-1.6,2.1,-2.5c.6,-.9,1.1,-1.8,1.5,-2.8c.4,-1,.7,-2,.9,-3.1c.2,-1,.3,-2.1,.3,-3.2c0,-1,-.1,-2.1,-.3,-3.1c-.2,-1.1,-.5,-2.1,-.9,-3.1c-.4,-1,-.9,-1.9,-1.5,-2.8c-.6,-.9,-1.3,-1.7,-2.1,-2.5c-.7,-.7,-1.5,-1.4,-2.4,-2c-.9,-.6,-1.8,-1.1,-2.8,-1.5c-1,-.4,-2,-.7,-3.1,-.9c-1,-.2,-2.1,-.3,-3.2,-.3Z" class="g1"/>
<path d="M572.7,5016.1c-1,0,-2.1,.1,-3.1,.3c-1.1,.2,-2.1,.5,-3.1,.9c-1,.5,-1.9,1,-2.8,1.6c-.9,.5,-1.7,1.2,-2.5,2c-.7,.7,-1.4,1.6,-2,2.4c-.6,.9,-1.1,1.9,-1.5,2.9c-.4,.9,-.7,2,-.9,3c-.2,1.1,-.3,2.1,-.3,3.2c0,1.1,.1,2.1,.3,3.2c.2,1,.5,2,.9,3c.4,1,.9,1.9,1.5,2.8c.6,.9,1.3,1.7,2,2.5c.8,.8,1.6,1.4,2.5,2c.9,.6,1.8,1.1,2.8,1.5c1,.4,2,.7,3.1,1c1,.2,2.1,.3,3.1,.3c1.1,0,2.2,-.1,3.2,-.3c1.1,-.3,2.1,-.6,3.1,-1c1,-.4,1.9,-.9,2.8,-1.5c.9,-.6,1.7,-1.2,2.4,-2c.8,-.8,1.5,-1.6,2.1,-2.5c.6,-.9,1.1,-1.8,1.5,-2.8c.4,-1,.7,-2,.9,-3c.2,-1.1,.3,-2.1,.3,-3.2c0,-1.1,-.1,-2.1,-.3,-3.2c-.2,-1,-.5,-2.1,-.9,-3c-.4,-1,-.9,-2,-1.5,-2.9c-.6,-.8,-1.3,-1.7,-2.1,-2.4c-.7,-.8,-1.5,-1.5,-2.4,-2c-.9,-.6,-1.8,-1.1,-2.8,-1.6c-1,-.4,-2,-.7,-3.1,-.9c-1,-.2,-2.1,-.3,-3.2,-.3Z" class="g1"/>
<path d="M572.7,5016.1c-1,0,-2.1,.1,-3.1,.3c-1.1,.2,-2.1,.5,-3.1,.9c-1,.5,-1.9,1,-2.8,1.6c-.9,.5,-1.7,1.2,-2.5,2c-.7,.7,-1.4,1.6,-2,2.4c-.6,.9,-1.1,1.9,-1.5,2.9c-.4,.9,-.7,2,-.9,3c-.2,1.1,-.3,2.1,-.3,3.2c0,1.1,.1,2.1,.3,3.2c.2,1,.5,2,.9,3c.4,1,.9,1.9,1.5,2.8c.6,.9,1.3,1.7,2,2.5c.8,.8,1.6,1.4,2.5,2c.9,.6,1.8,1.1,2.8,1.5c1,.4,2,.7,3.1,1c1,.2,2.1,.3,3.1,.3c1.1,0,2.2,-.1,3.2,-.3c1.1,-.3,2.1,-.6,3.1,-1c1,-.4,1.9,-.9,2.8,-1.5c.9,-.6,1.7,-1.2,2.4,-2c.8,-.8,1.5,-1.6,2.1,-2.5c.6,-.9,1.1,-1.8,1.5,-2.8c.4,-1,.7,-2,.9,-3c.2,-1.1,.3,-2.1,.3,-3.2c0,-1.1,-.1,-2.1,-.3,-3.2c-.2,-1,-.5,-2.1,-.9,-3c-.4,-1,-.9,-2,-1.5,-2.9c-.6,-.8,-1.3,-1.7,-2.1,-2.4c-.7,-.8,-1.5,-1.5,-2.4,-2c-.9,-.6,-1.8,-1.1,-2.8,-1.6c-1,-.4,-2,-.7,-3.1,-.9c-1,-.2,-2.1,-.3,-3.2,-.3Z" class="g1"/>
<path d="M573.7,5109.3c-1,0,-2.1,.1,-3.1,.3c-1.1,.2,-2.1,.5,-3.1,.9c-1,.5,-1.9,1,-2.8,1.5c-.9,.6,-1.7,1.3,-2.5,2.1c-.7,.7,-1.4,1.6,-2,2.4c-.6,.9,-1.1,1.9,-1.5,2.9c-.4,.9,-.7,2,-.9,3c-.2,1.1,-.3,2.1,-.3,3.2c0,1.1,.1,2.1,.3,3.2c.2,1,.5,2,.9,3c.4,1,.9,1.9,1.5,2.8c.6,.9,1.3,1.7,2,2.5c.8,.8,1.6,1.4,2.5,2c.9,.6,1.8,1.1,2.8,1.5c1,.4,2,.7,3.1,1c1,.2,2.1,.3,3.1,.3c1.1,0,2.2,-.1,3.2,-.3c1.1,-.3,2.1,-.6,3.1,-1c1,-.4,1.9,-.9,2.8,-1.5c.9,-.6,1.7,-1.2,2.5,-2c.7,-.8,1.4,-1.6,2,-2.5c.6,-.9,1.1,-1.8,1.5,-2.8c.4,-1,.7,-2,.9,-3c.2,-1.1,.3,-2.1,.3,-3.2c0,-1.1,-.1,-2.1,-.3,-3.2c-.2,-1,-.5,-2.1,-.9,-3c-.4,-1,-.9,-2,-1.5,-2.9c-.6,-.8,-1.3,-1.7,-2,-2.4c-.8,-.8,-1.6,-1.5,-2.5,-2.1c-.9,-.5,-1.8,-1,-2.8,-1.5c-1,-.4,-2,-.7,-3.1,-.9c-1,-.2,-2.1,-.3,-3.2,-.3Z" class="g1"/>
<path d="M573.7,5205.6c-1,0,-2.1,.1,-3.1,.3c-1.1,.2,-2.1,.5,-3.1,.9c-1,.4,-1.9,.9,-2.8,1.5c-.9,.6,-1.7,1.3,-2.5,2c-.7,.8,-1.4,1.6,-2,2.5c-.6,.9,-1.1,1.8,-1.5,2.8c-.4,1,-.7,2,-.9,3.1c-.2,1,-.3,2.1,-.3,3.1c0,1.1,.1,2.2,.3,3.2c.2,1.1,.5,2.1,.9,3.1c.4,1,.9,1.9,1.5,2.8c.6,.9,1.3,1.7,2,2.4c.8,.8,1.6,1.5,2.5,2.1c.9,.6,1.8,1.1,2.8,1.5c1,.4,2,.7,3.1,.9c1,.2,2.1,.3,3.1,.3c1.1,0,2.2,-.1,3.2,-.3c1.1,-.2,2.1,-.5,3.1,-.9c1,-.4,1.9,-.9,2.8,-1.5c.9,-.6,1.7,-1.3,2.5,-2.1c.7,-.7,1.4,-1.5,2,-2.4c.6,-.9,1.1,-1.8,1.5,-2.8c.4,-1,.7,-2,.9,-3.1c.2,-1,.3,-2.1,.3,-3.2c0,-1,-.1,-2.1,-.3,-3.1c-.2,-1.1,-.5,-2.1,-.9,-3.1c-.4,-1,-.9,-1.9,-1.5,-2.8c-.6,-.9,-1.3,-1.7,-2,-2.5c-.8,-.7,-1.6,-1.4,-2.5,-2c-.9,-.6,-1.8,-1.1,-2.8,-1.5c-1,-.4,-2,-.7,-3.1,-.9c-1,-.2,-2.1,-.3,-3.2,-.3Z" class="g1"/>
<path d="M574.7,5205.6c-1,0,-2.1,.1,-3.1,.3c-1.1,.2,-2.1,.5,-3.1,.9c-1,.4,-1.9,.9,-2.8,1.5c-.9,.6,-1.7,1.3,-2.5,2c-.7,.8,-1.4,1.6,-2,2.5c-.6,.9,-1.1,1.8,-1.5,2.8c-.4,1,-.7,2,-.9,3.1c-.2,1,-.3,2.1,-.3,3.1c0,1.1,.1,2.2,.3,3.2c.2,1.1,.5,2.1,.9,3.1c.4,1,.9,1.9,1.5,2.8c.6,.9,1.3,1.7,2,2.4c.8,.8,1.6,1.5,2.5,2.1c.9,.6,1.8,1.1,2.8,1.5c1,.4,2,.7,3.1,.9c1,.2,2.1,.3,3.1,.3c1.1,0,2.2,-.1,3.2,-.3c1.1,-.2,2.1,-.5,3.1,-.9c1,-.4,1.9,-.9,2.8,-1.5c.9,-.6,1.7,-1.3,2.5,-2.1c.7,-.7,1.4,-1.5,2,-2.4c.6,-.9,1.1,-1.8,1.5,-2.8c.4,-1,.7,-2,.9,-3.1c.2,-1,.3,-2.1,.3,-3.2c0,-1,-.1,-2.1,-.3,-3.1c-.2,-1.1,-.5,-2.1,-.9,-3.1c-.4,-1,-.9,-1.9,-1.5,-2.8c-.6,-.9,-1.3,-1.7,-2,-2.5c-.8,-.7,-1.6,-1.4,-2.5,-2c-.9,-.6,-1.8,-1.1,-2.8,-1.5c-1,-.4,-2,-.7,-3.1,-.9c-1,-.2,-2.1,-.3,-3.2,-.3Z" class="g1"/>
<path d="M571.4,4730.4c-1.1,0,-2.1,.1,-3.2,.3c-1,.2,-2,.5,-3,1c-1,.4,-1.9,.9,-2.8,1.5c-.9,.6,-1.7,1.2,-2.5,2c-.8,.7,-1.4,1.6,-2,2.5c-.6,.8,-1.1,1.8,-1.5,2.8c-.4,1,-.7,2,-1,3c-.2,1.1,-.3,2.1,-.3,3.2c0,1.1,.1,2.1,.3,3.2c.3,1,.6,2,1,3c.4,1,.9,2,1.5,2.8c.6,.9,1.2,1.8,2,2.5c.8,.8,1.6,1.4,2.5,2c.9,.6,1.8,1.1,2.8,1.5c1,.4,2,.8,3,1c1.1,.2,2.1,.3,3.2,.3c1.1,0,2.1,-.1,3.2,-.3c1,-.2,2.1,-.6,3,-1c1,-.4,2,-.9,2.9,-1.5c.8,-.6,1.7,-1.2,2.4,-2c.8,-.7,1.5,-1.6,2,-2.5c.6,-.8,1.1,-1.8,1.6,-2.8c.4,-1,.7,-2,.9,-3c.2,-1.1,.3,-2.1,.3,-3.2c0,-1.1,-.1,-2.1,-.3,-3.2c-.2,-1,-.5,-2,-.9,-3c-.5,-1,-1,-2,-1.6,-2.8c-.5,-.9,-1.2,-1.8,-2,-2.5c-.7,-.8,-1.6,-1.4,-2.4,-2c-.9,-.6,-1.9,-1.1,-2.9,-1.5c-.9,-.5,-2,-.8,-3,-1c-1.1,-.2,-2.1,-.3,-3.2,-.3Z" class="g1"/>
<path d="M571.4,4826.7c-1.1,0,-2.1,.1,-3.2,.3c-1,.2,-2,.5,-3,.9c-1,.4,-1.9,.9,-2.8,1.5c-.9,.6,-1.7,1.3,-2.5,2c-.8,.8,-1.4,1.6,-2,2.5c-.6,.9,-1.1,1.8,-1.5,2.8c-.4,1,-.7,2,-1,3.1c-.2,1,-.3,2.1,-.3,3.1c0,1.1,.1,2.2,.3,3.2c.3,1.1,.6,2.1,1,3.1c.4,1,.9,1.9,1.5,2.8c.6,.9,1.2,1.7,2,2.5c.8,.7,1.6,1.4,2.5,2c.9,.6,1.8,1.1,2.8,1.5c1,.4,2,.7,3,.9c1.1,.2,2.1,.3,3.2,.3c1.1,0,2.1,-.1,3.2,-.3c1,-.2,2.1,-.5,3,-.9c1,-.4,2,-.9,2.9,-1.5c.8,-.6,1.7,-1.3,2.4,-2c.8,-.8,1.5,-1.6,2,-2.5c.6,-.9,1.1,-1.8,1.6,-2.8c.4,-1,.7,-2,.9,-3.1c.2,-1,.3,-2.1,.3,-3.2c0,-1,-.1,-2.1,-.3,-3.1c-.2,-1.1,-.5,-2.1,-.9,-3.1c-.5,-1,-1,-1.9,-1.6,-2.8c-.5,-.9,-1.2,-1.7,-2,-2.5c-.7,-.7,-1.6,-1.4,-2.4,-2c-.9,-.6,-1.9,-1.1,-2.9,-1.5c-.9,-.4,-2,-.7,-3,-.9c-1.1,-.2,-2.1,-.3,-3.2,-.3Z" class="g1"/>
<path d="M571.4,4826.7c-1.1,0,-2.1,.1,-3.2,.3c-1,.2,-2,.5,-3,.9c-1,.4,-1.9,.9,-2.8,1.5c-.9,.6,-1.7,1.3,-2.5,2c-.8,.8,-1.4,1.6,-2,2.5c-.6,.9,-1.1,1.8,-1.5,2.8c-.4,1,-.7,2,-1,3.1c-.2,1,-.3,2.1,-.3,3.1c0,1.1,.1,2.2,.3,3.2c.3,1.1,.6,2.1,1,3.1c.4,1,.9,1.9,1.5,2.8c.6,.9,1.2,1.7,2,2.5c.8,.7,1.6,1.4,2.5,2c.9,.6,1.8,1.1,2.8,1.5c1,.4,2,.7,3,.9c1.1,.2,2.1,.3,3.2,.3c1.1,0,2.1,-.1,3.2,-.3c1,-.2,2.1,-.5,3,-.9c1,-.4,2,-.9,2.9,-1.5c.8,-.6,1.7,-1.3,2.4,-2c.8,-.8,1.5,-1.6,2,-2.5c.6,-.9,1.1,-1.8,1.6,-2.8c.4,-1,.7,-2,.9,-3.1c.2,-1,.3,-2.1,.3,-3.2c0,-1,-.1,-2.1,-.3,-3.1c-.2,-1.1,-.5,-2.1,-.9,-3.1c-.5,-1,-1,-1.9,-1.6,-2.8c-.5,-.9,-1.2,-1.7,-2,-2.5c-.7,-.7,-1.6,-1.4,-2.4,-2c-.9,-.6,-1.9,-1.1,-2.9,-1.5c-.9,-.4,-2,-.7,-3,-.9c-1.1,-.2,-2.1,-.3,-3.2,-.3Z" class="g1"/>
<path d="M572.4,4919.9c-1.1,0,-2.1,.1,-3.2,.3c-1,.2,-2,.5,-3,.9c-1,.4,-1.9,.9,-2.8,1.5c-.9,.6,-1.7,1.3,-2.5,2c-.8,.8,-1.4,1.6,-2,2.5c-.6,.9,-1.1,1.8,-1.5,2.8c-.4,1,-.7,2,-1,3.1c-.2,1,-.3,2.1,-.3,3.1c0,1.1,.1,2.2,.3,3.2c.3,1.1,.6,2.1,1,3.1c.4,1,.9,1.9,1.5,2.8c.6,.9,1.2,1.7,2,2.5c.8,.7,1.6,1.4,2.5,2c.9,.6,1.8,1.1,2.8,1.5c1,.4,2,.7,3,.9c1.1,.2,2.1,.3,3.2,.3c1.1,0,2.1,-.1,3.2,-.3c1,-.2,2.1,-.5,3,-.9c1,-.4,2,-.9,2.9,-1.5c.8,-.6,1.7,-1.3,2.4,-2c.8,-.8,1.5,-1.6,2.1,-2.5c.5,-.9,1,-1.8,1.5,-2.8c.4,-1,.7,-2,.9,-3.1c.2,-1,.3,-2.1,.3,-3.2c0,-1,-.1,-2.1,-.3,-3.1c-.2,-1.1,-.5,-2.1,-.9,-3.1c-.5,-1,-1,-1.9,-1.5,-2.8c-.6,-.9,-1.3,-1.7,-2.1,-2.5c-.7,-.7,-1.6,-1.4,-2.4,-2c-.9,-.6,-1.9,-1.1,-2.9,-1.5c-.9,-.4,-2,-.7,-3,-.9c-1.1,-.2,-2.1,-.3,-3.2,-.3Z" class="g1"/>
<image preserveAspectRatio="none" x="523" y="3571" width="102" height="102" xlink:href="1/img/26.png"/>
<image preserveAspectRatio="none" x="879" y="3574" width="95" height="95" xlink:href="1/img/27.png"/>
<text x="246" y="415" class="s1">Narzdzie, </text>
<text x="338" y="415" class="s1">ktre </text>
<text x="395" y="415" class="s1">zmienia </text>
<text x="468" y="415" class="s1">cakowicie</text>
<text x="246" y="436" class="s1">dostp </text>
<text x="321" y="436" class="s1">do </text>
<text x="367" y="436" class="s1">informacji, </text>
<text x="466" y="436" class="s1">moliwo</text>
<text x="246" y="457" dx="0,0,0,0,0,0,0,0,0,0,0,0,0,0,2.2,0,2.2,0,0,0,0,0,0,0,0,0,0,0,2.2,0,0,0,0,0,0,0,2.2,0,0,0" class="s1">przekazywania i zwikszania wygody, przy</text>
<text x="246" y="478" dx="0,0,0,0,0,0,0,0,0,0,0,0,0,8.7,0,0,0,0,0,0,0,0,0,0,8.7,0,0,0,0,0,0,0,8.7,0" class="s1">jednoczesnym pozytywnym wpywie na</text>
<text x="246" y="500" class="s1">realizacj </text>
<text x="344" y="500" class="s1">celw </text>
<text x="417" y="500" class="s1">w </text>
<text x="463" y="500" class="s1">codziennej</text>
<text x="246" y="521" class="s1">rzeczywistoci gospodarczej.</text>
<text x="537" y="742" class="s1">Sposb </text>
<text x="604" y="742" class="s1">dziaania </text>
<text x="679" y="742" class="s1">jest </text>
<text x="718" y="742" class="s1">bardzo </text>
<text x="782" y="742" class="s1">prosty.</text>
<text x="537" y="764" dx="0,0,0,0,0,0,0,1,0,0,0,0,0,1,0,0,0,0,0,0,0,0,0,0,1,0,0,1,0,0,0,0,0,1,0,0,0,0,0,1,1" class="s1">Prosz sobie wyobrazi, e kada osoba  /</text>
<text x="537" y="785" class="s1">firma </text>
<text x="592" y="785" class="s1">moe </text>
<text x="649" y="785" class="s1">przekaza </text>
<text x="736" y="785" class="s1">komukolwiek,</text>
<text x="537" y="806" class="s1">cokolwiek, bez adnej aplikacji.</text>
<text x="779" y="1063" dx="0,0,0,0,0,.5,0,0,.5,0,0,0,.5,0,0,0,0,0,0,0,0,0,0,0,.5,0,0,0,0,0,0,0,0,.5,0,0,0,0,0,0,0,0,0,0" class="s1">Moe to by informacja, artyku, instrukcja,</text>
<text x="779" y="1085" class="s1">ankieta, </text>
<text x="878" y="1085" class="s1">linki </text>
<text x="951" y="1085" class="s1">do </text>
<text x="1016" y="1085" class="s1">mediw</text>
<text x="779" y="1106" dx="0,0,0,0,0,0,0,0,0,0,0,0,0,0,0,0,0,0,0,1.8,0,0,1.8,0,0,0,0,0,0,0,0,0,0,0,1.8,0,0,0,0,0,0" class="s1">spoecznociowych, do wystawienia opinii,</text>
<text x="779" y="1127" class="s1">cokolwiek!</text>
<text x="376" y="1292" dx="0,0,1.2,0,0,0,0,0,1.2,0,0,0,0,0,0,1.2,0,0,0,0,0,1.2,0,0,0,0,0,0,0,0,0,0,1.2,0,0,1.2,0,0,0,0" class="s1">A teraz prosz sobie wyobrazi, e mona</text>
<text x="376" y="1313" class="s1">rwnie </text>
<text x="448" y="1313" class="s1">napisa </text>
<text x="518" y="1313" class="s1">o </text>
<text x="545" y="1313" class="s1">tym, </text>
<text x="591" y="1313" class="s1">czego </text>
<text x="649" y="1313" class="s1">si</text>
<text x="376" y="1334" dx="0,0,0,0,0,0,0,0,0,0,0,0,2.7,0,0,0,0,2.7,0,0,0,2.7,0,0,0,0,0,2.7,0,0,0,2.7,0,0,0,0,0,2.7,0,0" class="s1">potrzebuje, kogo lub czego si szuka lub</text>
<text x="376" y="1356" dx="0,0,0,0,0,0,0,3.3,0,0,0,0,0,0,3.3,0,0,0,0,0,0,0,0,0,0,3.3,0,0,0,3.3,0,0,0,0,0,0,0,0,3.3,0" class="s1">zoy ofert wsppracy czy zaprosi do</text>
<text x="376" y="1377" class="s1">rozmowy...</text>
<text x="25" y="1594" dx="0,0,0,0,0,0,0,0,0,0,7.3,0,0,0,0,0,7.3,0,0,0,7.3,0,0,0,0,0,0,0,0,0,7.3,0,0,0,0" class="s1">Dodatkowo mona te przekaza takie</text>
<text x="25" y="1616" dx="0,0,0,0,0,9.2,0,0,0,0,0,0,9.2,0,0,0,0,0,0,0,9.2,0,0,0,0,0,0,0,0,9.2,0,9.2,0,0" class="s1">dane bardzo szybko, wygodnie i bez</text>
<text x="25" y="1637" class="s1">adnej aplikacji.</text>
<text x="328" y="1867" dx="0,0,0,0,0,0,0,.6,0,0,0,0,0,.6,0,0,0,0,0,0,0,.6,0,0,0,0,0,0,0,0,0,.6,0,0,0,0,.6,0,0,0,0" class="s1">Prosz sobie rwnie wyobrazi sie osb,</text>
<text x="328" y="1888" class="s1">ktre </text>
<text x="385" y="1888" class="s1">razem </text>
<text x="450" y="1888" class="s1">ze </text>
<text x="486" y="1888" class="s1">swoj </text>
<text x="547" y="1888" class="s1">wizytwk,</text>
<text x="328" y="1909" class="s1">przekazuj informacje o Pastwa hotelu.</text>
<text x="407" y="2204" dx="0,0,2.6,0,0,0,0,0,2.6,0,0,0,0,0,0,2.6,0,0,0,0,0,2.6,0,0,0,0,0,0,0,0,0,2.6,0,0,0,0,2.6,0,0,2.6,0,0,0,2.6" class="s1">A teraz prosz sobie wyobrazi taki QR kod w</text>
<text x="407" y="2226" dx="0,0,0,0,0,0,0,0,5.1,0,0,0,0,0,0,0,0,5.1,0,5.1,0,0,5.1,0,0,0,0,0,0,5.1,0,0,0,0,0,5.1,0,0,0,0,0,0,0" class="s1">Pastwa pokojach i po prostu wyj telefon,</text>
<text x="407" y="2247" dx="0,0,0,0,0,0,2.4,0,0" class="s1">wej na </text>
<text x="474" y="2247" class="s2">www.personashare.com</text>
<text x="665" y="2247" dx="0,0,2.5,0,0,0,0,0,0,0" class="s1">i najecha</text>
<text x="407" y="2268" class="s1">aparatem na poniszy kod QR:</text>
<text x="410" y="3243" dx="0,0,0,0,5.5,0,0,5.5,0,0,0,0,0,0,0,5.5,0,0,0,0,0,0,0,5.5,0,0,0,0,0,0,0,0,0,0,0,0,0,5.5,0,0,0,0" class="s1">Tak to wanie dziaa! Podsumowujc, kada</text>
<text x="410" y="3264" class="s1">grupa zyskuje w PersonaShare</text>
<text x="89" y="3893" dx="0,0,0,0,0,0,0,0,.5,0,.5,0,0,0,0,0,0,.5,0,0,0,0,0,0,.5,0,0,.5,0,0,0,0,0,0,0,0" class="s1">Wygodny i szybki dostp do wszelkich</text>
<text x="89" y="3914" class="s1">materiaw </text>
<text x="183" y="3914" class="s1">przekazywanych </text>
<text x="311" y="3914" class="s1">przez</text>
<text x="89" y="3936" class="s1">Pastwa w spocie.</text>
<text x="171" y="3751" class="s3">Klienci</text>
<text x="446" y="3893" class="s1">Moliwo </text>
<text x="545" y="3893" class="s1">budowania </text>
<text x="650" y="3893" class="s1">swojego</text>
<text x="446" y="3914" dx="0,0,0,0,0,0,0,0,0,0,0,1,0,0,0,0,0,1,0,0,0,0,1,0,0,0,0,0,0,0,0,0,1,0,0,0,0" class="s1">wizerunku, ktry jest niezwykle wany</text>
<text x="446" y="3936" class="s1">w kontakcie z klientami.</text>
<text x="495" y="3751" class="s3">Pracownicy</text>
<text x="801" y="3893" class="s1">Podniesienie </text>
<text x="903" y="3893" class="s1">satysfakcji </text>
<text x="986" y="3893" class="s1">klientw </text>
<text x="1057" y="3893" class="s1">i</text>
<text x="801" y="3914" class="s1">pracownikw.</text>
<text x="891" y="3751" class="s3">Hotel</text>
<text x="89" y="4239" dx="0,0,0,0,0,0,0,6.5,0,0,6.5,0,0,0,0,0,0,0,0,0,0,6.5,0,0,0,0,0,0,0,0,0,0,6.5" class="s1">Dostp do wszystkich informacji w</text>
<text x="89" y="4260" dx="0,0,0,0,0,0,0,1.3,0,0,0,0,0,0,0,1.3,0,1.3,0,0,0,0,0,0,0,0,0,0,1.3,0,0,1.3,0,0,0" class="s1">jednym miejscu i powrcenia do nich</text>
<text x="89" y="4281" class="s1">pniej</text>
<text x="89" y="4583" class="s1">Moliwo </text>
<text x="181" y="4583" class="s1">budowania </text>
<text x="278" y="4583" class="s1">wizerunku</text>
<text x="89" y="4604" class="s1">swojego i swojej firmy w spocie hotelu</text>
<text x="89" y="4625" class="s1">oraz </text>
<text x="178" y="4625" class="s1">poszerzenia </text>
<text x="319" y="4625" class="s1">sieci</text>
<text x="89" y="4647" class="s1">rekomendacyjnej.</text>
<text x="446" y="4239" dx="0,0,0,0,0,0,0,0,0,0,8.5,0,0,0,0,0,0,0,8.5,0,0,0,0,0,0,0,8.5,0,0,8.5,0,0,0,0" class="s1">Moliwo poprawy relacji na linii</text>
<text x="446" y="4260" dx="0,0,0,0,0,0,0,0,0,0,0,8.4,0,0,8.4,0,0,0,0,0,0,0,0,0,8.4,0,0,0,0,0,0" class="s1">pracodawca -&gt; pracownik poprzez</text>
<text x="446" y="4281" class="s1">wzajemne promowanie.</text>
<text x="446" y="4586" class="s1">Moliwo </text>
<text x="611" y="4586" class="s1">wykorzystania</text>
<text x="446" y="4607" class="s1">innowacyjnego narzdzia w pracy.</text>
<text x="798" y="4239" class="s1">Podniesienie </text>
<text x="938" y="4239" class="s1">technologicznego</text>
<text x="798" y="4260" class="s1">poziomu hotelu</text>
<text x="795" y="4586" dx="0,0,0,0,0,0,0,4.9,0,0,4.9,0,0,0,0,0,0,0,4.9,0,0,0,0,0,4.9,0,0,0,0,0,0,4.9,0,0,0" class="s1">Szansa na wiksz ilo opinii oraz</text>
<text x="795" y="4607" class="s1">wikszy </text>
<text x="880" y="4607" class="s1">ruch </text>
<text x="945" y="4607" class="s1">na </text>
<text x="995" y="4607" class="s1">mediach</text>
<text x="795" y="4628" class="s1">spoecznociowych hotelu</text>
<text x="801" y="4874" class="s1">Moliwo </text>
<text x="890" y="4874" class="s1">promocji </text>
<text x="970" y="4874" class="s1">pracownikw</text>
<text x="801" y="4896" class="s1">wrd goci hotelowych</text>
<text x="801" y="5192" class="s1">Moliwo </text>
<text x="886" y="5192" class="s1">reklamowania </text>
<text x="997" y="5192" class="s1">lokalnych</text>
<text x="801" y="5213" class="s1">firm </text>
<text x="844" y="5213" class="s1">z </text>
<text x="866" y="5213" class="s1">okolicy </text>
<text x="927" y="5213" class="s1">i </text>
<text x="946" y="5213" class="s1">w </text>
<text x="972" y="5213" class="s1">ten </text>
<text x="1010" y="5213" class="s1">sposb</text>
<text x="801" y="5235" class="s1">zwikszania przychodu</text>
<text x="795" y="5522" dx="0,0,0,0,0,0,0,0,0,0,8.9,0,0,0,0,0,0,0,0,0,0,0,0,0,8.9,0,0,0,0,8.9,0" class="s1">Moliwo wykorzystania kodu QR</text>
<text x="795" y="5543" dx="0,0,0,0,0,0,0,0,0,5.6,0,0,0,0,0,0,0,0,5.6,0,0,0,0,0,0,0,0,5.6,0,0,0,0,0,0,0,0,0" class="s1">wszdzie (pokoje, tablice, korytarze,</text>
<text x="795" y="5565" class="s1">internet itp.)</text>
<text x="86" y="6549" class="s1">Lepszy </text>
<text x="173" y="6549" class="s1">networking, </text>
<text x="293" y="6549" class="s1">wiksza</text>
<text x="86" y="6570" dx="0,0,0,0,0,0,0,0,0,0,0,0,0,0,3.9,0,0,0,0,0,0,0,0,0,4,4,0,0,0,0,0,0,0,0" class="s1">elastyczno, moliwo  budowania</text>
<text x="86" y="6591" class="s1">wizerunku </text>
<text x="179" y="6591" class="s1">swojego </text>
<text x="257" y="6591" class="s1">i </text>
<text x="283" y="6591" class="s1">firmy, </text>
<text x="342" y="6591" class="s1">i</text>
<text x="86" y="6613" class="s1">budowanie </text>
<text x="218" y="6613" class="s1">swojej </text>
<text x="316" y="6613" class="s1">sieci</text>
<text x="86" y="6634" class="s1">rekomendacyjnej </text>
<text x="220" y="6634" class="s1">oraz </text>
<text x="266" y="6634" class="s1">wygodny </text>
<text x="342" y="6634" class="s1">i</text>
<text x="86" y="6655" class="s1">szybki </text>
<text x="155" y="6655" class="s1">dostp </text>
<text x="229" y="6655" class="s1">do </text>
<text x="274" y="6655" class="s1">wszystkich</text>
<text x="86" y="6676" class="s1">informacji </text>
<text x="184" y="6676" class="s1">(instrukcje, </text>
<text x="288" y="6676" class="s1">telefony,</text>
<text x="86" y="6698" dx="0,0,0,0,0,0,0,0,0,0,8,0,0,0,0,0,0,0,0,0,0,8,0,0,0,0,0,0,0,0,0" class="s1">kontakty, informacje hotelowe).</text>
<text x="328" y="6698" class="s2">To</text>
<text x="86" y="6719" class="s2">wszystko </text>
<text x="181" y="6719" class="s2">przekada </text>
<text x="281" y="6719" class="s2">si </text>
<text x="327" y="6719" class="s2">na</text>
<text x="86" y="6740" class="s2">wiksze </text>
<text x="165" y="6740" class="s2">zadowolenie </text>
<text x="279" y="6740" class="s2">klientw</text>
<text x="86" y="6761" class="s2">Pastwa hotelu.</text>
<text x="453" y="6549" dx="0,0,0,0,0,0,0,0,0,0,3.2,0,0,0,0,0,3.2,0,0,0,0,0,0,0,0,0,0,3.2,0,0,0,0" class="s1">Moliwo bycia promowanym przez</text>
<text x="453" y="6570" class="s1">pracodawc, </text>
<text x="556" y="6570" class="s1">nawizania </text>
<text x="648" y="6570" class="s1">relacji </text>
<text x="705" y="6570" class="s1">z</text>
<text x="453" y="6591" class="s1">klientami </text>
<text x="564" y="6591" class="s1">i </text>
<text x="617" y="6591" class="s1">wykorzystania</text>
<text x="453" y="6613" dx="0,0,0,0,0,0,0,0,0,0,0,0,0,0,1.4,0,0,0,0,0,0,0,0,0,1.4,0,1.4,0,0,0,0,0,0" class="s1">innowacyjnego narzdzia w pracy. </text>
<text x="694" y="6613" class="s2">To</text>
<text x="453" y="6634" class="s2">przekada </text>
<text x="558" y="6634" class="s2">si </text>
<text x="610" y="6634" class="s2">na </text>
<text x="659" y="6634" class="s2">wysz</text>
<text x="453" y="6655" class="s2">satysfakcj pracownikw.</text>
<text x="781" y="6549" class="s2">Moliwo </text>
<text x="875" y="6549" class="s2">przekazywania </text>
<text x="1004" y="6549" class="s2">dowolnego</text>
<text x="781" y="6570" class="s2">contentu </text>
<text x="876" y="6570" class="s2">w </text>
<text x="914" y="6570" class="s2">spotach </text>
<text x="999" y="6570" class="s2">(informacje</text>
<text x="781" y="6591" class="s2">hotelowe, </text>
<text x="872" y="6591" class="s2">instrukcje, </text>
<text x="968" y="6591" class="s2">kontakty </text>
<text x="1053" y="6591" class="s2">itp.),</text>
<text x="781" y="6613" dx="0,0,0,0,0,0,0,0,0,0,0,9.1,0,0,0,0,9.1,0,0,9.1,0,0,0,0,0,0,9.1,0,0,0,0,0,0,0" class="s2">zwikszony ruch na social mediach,</text>
<text x="781" y="6634" dx="0,0,0,0,0,0,0,6.8,0,0,6.8,0,0,0,0,0,0,6.8,0,0,0,0,0,0,0,6.8,0,0,0,0,0,0,0,0,0,0,0" class="s2">szansa na wicej opinii, podniesienie</text>
<text x="781" y="6655" class="s2">poziomu </text>
<text x="873" y="6655" class="s2">technologicznego </text>
<text x="1033" y="6655" class="s2">hotelu,</text>
<text x="781" y="6676" class="s2">wiksza </text>
<text x="871" y="6676" class="s2">satysfakcja </text>
<text x="986" y="6676" class="s2">klientw </text>
<text x="1083" y="6676" class="s2">i</text>
<text x="781" y="6698" class="s2">pracownikw </text>
<text x="929" y="6698" class="s2">oraz </text>
<text x="1008" y="6698" class="s2">moliwo</text>
<text x="781" y="6719" class="s2">monetyzacji reklam w spocie.</text>
<text x="430" y="7026" class="s1">A to wszystko to dla Pastwa to po prostu</text>
<text x="178" y="7993" class="s4">Czekam na Pastwa telefon</text>
<text x="396" y="8061" class="s4">660-791-170</text>
<text x="86" y="4874" dx="0,0,0,0,0,0,0,0,0,0,3,0,0,0,0,0,0,0,0,0,0,3,0,0,0,0,0,0,0,0,0,0,0,3" class="s1">Moliwo nawizania biznesowych /</text>
<text x="86" y="4896" dx="0,0,0,0,0,0,0,0,0,0,0,4.3,0,0,0,0,0,0,0,0,4.3,0,0,0,0,0,0,4.3,0,0,0,0,0,0,0,0,0" class="s1">prywatnych relacji, dziki doczeniu</text>
<text x="86" y="4917" dx="0,0,0,2.1,0,0,0,0,0,2.1,0,2.1,0,0,0,0,0,0,0,0,0,2.1,0,0,0,0,0,2.1,0,0,0,0,0,0" class="s1">do spota i pokazaniu innym gociom</text>
<text x="86" y="4938" class="s1">swoich </text>
<text x="153" y="4938" class="s1">propozcyji </text>
<text x="244" y="4938" class="s1">np. </text>
<text x="287" y="4938" class="s1">"Chtnie</text>
<text x="86" y="4959" class="s1">porozmawiam </text>
<text x="212" y="4959" class="s1">o </text>
<text x="249" y="4959" class="s1">biznesie </text>
<text x="334" y="4959" class="s1">w</text>
<text x="86" y="4981" dx="0,0,0,0,0,0,0,0,0,0,0,0,7.6,0,0,0,0,0,0,0,0,0,7.6,0,7.6,0,0,0,0,0,0,7.6,0,0" class="s1">restauracji hotelowej o 20:00" lub</text>
<text x="86" y="5002" dx="0,0,0,0,0,0,0,0,0,1.8,0,0,0,0,0,0,1.8,0,0,1.8,0,0,0,0,1.8,0,1.8,0,0,0,0,0,0,0,0" class="s1">"Chtnie skocz na piwo z ciekawymi</text>
<text x="86" y="5023" class="s1">osobami"</text>
<text x="799" y="5853" dx="0,0,0,0,0,0,0,0,0,0,9.2,0,0,0,0,0,0,0,0,0,0,0,9.2,0,0,0,0,0,0,0,0,0" class="s1">Moliwo przekazania poradnikw</text>
<text x="799" y="5874" dx="0,0,0,0,0,0,0,0,0,0,0,0,0,0,0,3.1,0,0,0,0,0,0,0,0,0,0,3.1,0,0,0,0,0,0,3.1,0,0" class="s1">turystycznych, polecanych miejsc czy</text>
<text x="799" y="5895" class="s1">istotnych </text>
<text x="900" y="5895" class="s1">lokalizacji </text>
<text x="1002" y="5895" class="s1">gociom</text>
<text x="799" y="5916" class="s1">hotelowym</text>

</g>

<!-- Any embedded fonts defined here -->
<style type="text/css" ><![CDATA[

@font-face {
	font-family: Adumu_1w;
	src: url("fonts/Adumu_1w.woff") format("woff");
}

@font-face {
	font-family: OpenSans-Bold_1v;
	src: url("fonts/OpenSans-Bold_1v.woff") format("woff");
}

@font-face {
	font-family: OpenSans-Light_1u;
	src: url("fonts/OpenSans-Light_1u.woff") format("woff");
}

]]></style>

</svg>
